<svg width="272" height="206" viewBox="0 0 272 206" fill="none" xmlns="http://www.w3.org/2000/svg">
<g clip-path="url(#clip0)">
<path opacity="0.1" d="M158.066 32.5908C140.634 31.9336 124.032 25.8197 108.177 19.1324C92.3225 12.4451 76.6196 5.03508 59.6029 1.49243C48.661 -0.788163 36.1449 -1.11022 27.3268 5.26288C18.8413 11.3951 16.1004 21.9812 14.6251 31.8053C13.5162 39.1969 12.8654 46.9735 15.9028 53.8938C18.0121 58.6959 21.7582 62.7334 24.34 67.3339C33.3534 83.3452 26.9917 103.085 17.2142 118.719C12.6339 126.051 7.31606 133.047 3.78206 140.852C0.248059 148.658 -1.38154 157.602 1.72578 165.578C4.79212 173.469 12.0915 179.397 20.0153 183.568C36.0798 192.023 55.0251 194.448 73.4978 195.82C114.392 198.857 155.505 197.543 196.508 196.226C211.681 195.736 226.923 195.244 241.85 192.693C250.14 191.28 258.698 189.028 264.717 183.61C272.357 176.727 274.251 165.07 269.131 156.437C260.544 141.957 236.802 138.37 230.802 122.822C227.497 114.271 230.891 104.742 235.693 96.8115C245.991 79.7921 263.254 64.8674 264.163 45.4155C264.79 32.0619 256.49 18.6768 243.658 12.356C230.206 5.73157 211.558 6.56421 201.633 17.5325C191.414 28.8256 173.458 33.1694 158.066 32.5908Z" fill="#6C63FF"/>
<path d="M217.594 178.549C216.616 178.205 215.583 178.086 214.559 178.198C213.313 178.345 213.489 180.405 214.74 180.309C215.366 180.256 215.985 180.132 216.587 179.939L217.594 178.549Z" fill="#6C63FF"/>
<path d="M217.973 178.567C218.423 179.572 218.676 180.668 218.715 181.785C218.756 183.147 216.852 183.244 216.765 181.885C216.727 181.205 216.755 180.522 216.847 179.848L217.973 178.567Z" fill="#6C63FF"/>
<path d="M220.807 174.158C220.807 174.158 220.197 172.079 216.468 172.886C214.781 173.25 214.827 175.878 216.516 176.156H216.589C219.05 176.528 219.906 175.467 220.807 174.158Z" fill="#6C63FF"/>
<path d="M221.196 174.035C221.196 174.035 223.199 174.205 223.325 178.329C223.382 180.186 221.018 180.749 220.384 179.026C220.384 178.999 220.367 178.976 220.357 178.95C219.472 176.433 220.227 175.287 221.196 174.035Z" fill="#6C63FF"/>
<path d="M223.871 168.72C223.731 167.965 223.407 167.265 222.934 166.692C222.461 166.118 221.856 165.692 221.181 165.457C218.657 164.593 217.324 168.694 219.79 169.736C220.811 170.14 221.897 170.312 222.982 170.238L223.871 168.72Z" fill="#6C63FF"/>
<path d="M226.95 161.873C226.95 161.873 225.93 159.254 223.286 158.731C220.482 158.173 219.634 162.747 222.404 163.478C223.646 163.771 224.932 163.783 226.179 163.512L226.95 161.873Z" fill="#6C63FF"/>
<path d="M228.808 155.13C228.377 154.393 227.813 153.759 227.15 153.264C226.487 152.769 225.74 152.424 224.951 152.25C222.541 151.758 221.728 155.678 224.096 156.348C225.582 156.743 227.137 156.719 228.613 156.28L228.808 155.13Z" fill="#6C63FF"/>
<path d="M230.561 148.558C229.792 147.181 228.595 146.148 227.186 145.644C224.776 144.84 223.585 148.81 225.981 149.674C227.402 150.186 228.937 150.179 230.354 149.655L230.561 148.558Z" fill="#6C63FF"/>
<path d="M231.299 142.57C231.299 142.57 230.335 140.114 228.37 138.815C226.181 137.367 224.096 140.91 226.2 142.505C227.497 143.492 229.158 144.172 231.099 143.717L231.299 142.57Z" fill="#6C63FF"/>
<path d="M231.663 135.466C231.663 135.466 230.599 132.987 228.56 131.801C226.28 130.491 224.296 134.11 226.444 135.671C227.849 136.689 229.604 137.349 231.467 136.553L231.663 135.466Z" fill="#6C63FF"/>
<path d="M231.436 128.989C230.641 127.648 229.666 126.443 228.544 125.415C226.948 123.998 224.928 126.548 226.439 128.062C227.835 129.452 229.573 130.62 231.369 130.526L231.436 128.989Z" fill="#6C63FF"/>
<path d="M230.831 122.773C229.92 121.103 228.822 119.562 227.562 118.185C226.314 116.876 224.467 118.871 225.634 120.251C226.981 121.822 228.799 123.451 230.983 124.163L230.831 122.773Z" fill="#6C63FF"/>
<path d="M229.662 115.462C228.911 114.193 228.035 113.016 227.051 111.951C225.793 110.613 223.896 112.626 225.104 114.017C226.386 115.496 228.045 116.881 229.99 117.353L229.662 115.462Z" fill="#6C63FF"/>
<path d="M228.64 108.641C227.867 107.505 227.029 106.423 226.13 105.402C225.122 104.274 223.512 105.861 224.462 107.049C225.578 108.448 227.01 109.686 228.656 109.885L228.64 108.641Z" fill="#6C63FF"/>
<path d="M227.579 102.315C226.874 100.817 226.069 99.3773 225.168 98.0081C224.414 96.8874 222.842 98.0867 223.553 99.2387C224.484 100.75 225.776 102.245 227.473 102.965L227.579 102.315Z" fill="#6C63FF"/>
<path d="M226.704 93.9077C226.704 93.9077 226.109 92.8106 225.258 91.5355C224.472 90.3598 222.813 91.5747 223.541 92.7923C224.361 94.1564 225.388 95.319 226.583 95.5494L226.704 93.9077Z" fill="#6C63FF"/>
<path d="M226.287 88.3358L225.532 84.2381C225.332 83.1541 223.845 83.4133 223.965 84.4999C224.235 86.6889 224.93 88.8909 226.441 90.3362L226.287 88.3358Z" fill="#6C63FF"/>
<path d="M226.736 76.6893C226.665 76.5081 226.536 76.3613 226.373 76.2764C226.21 76.1916 226.024 76.1746 225.85 76.2288C225.676 76.283 225.526 76.4045 225.429 76.5704C225.332 76.7363 225.294 76.9351 225.323 77.1292C225.491 78.2674 225.745 79.3884 226.085 80.4807L226.736 76.6893Z" fill="#6C63FF"/>
<path d="M224.04 168.638C224.714 168.397 225.434 168.355 226.128 168.517C226.821 168.679 227.462 169.039 227.984 169.56C229.913 171.516 227.304 174.797 225.248 172.993C224.419 172.23 223.744 171.289 223.264 170.23L224.04 168.638Z" fill="#6C63FF"/>
<path d="M227.121 161.624C227.121 161.624 229.657 160.959 231.619 162.954C233.7 165.07 230.824 168.534 228.633 166.552C227.675 165.642 226.901 164.526 226.359 163.276L227.121 161.624Z" fill="#6C63FF"/>
<path d="M228.975 155.591C229.631 155.081 230.374 154.721 231.161 154.531C231.948 154.341 232.763 154.326 233.555 154.486C235.966 155.01 235.366 158.971 232.938 158.634C231.424 158.395 229.99 157.742 228.772 156.735L228.975 155.591Z" fill="#6C63FF"/>
<path d="M230.682 148.595C231.866 147.629 233.33 147.154 234.809 147.257C237.33 147.495 237.06 151.656 234.536 151.483C233.042 151.382 231.62 150.752 230.486 149.689L230.682 148.595Z" fill="#6C63FF"/>
<path d="M231.268 142.74C231.268 142.74 232.605 140.499 234.741 139.582C237.111 138.564 238.632 142.421 236.33 143.607C234.884 144.348 233.141 144.722 231.289 143.908L231.268 142.74Z" fill="#6C63FF"/>
<path d="M231.352 135.359C231.352 135.359 232.704 133.055 234.866 132.175C237.277 131.193 238.817 135.068 236.501 136.312C234.984 137.124 233.164 137.527 231.414 136.474L231.352 135.359Z" fill="#6C63FF"/>
<path d="M230.898 128.921C231.411 127.426 232.126 126.023 233.02 124.757C234.297 123 236.783 125.019 235.597 126.852C234.507 128.536 233.051 130.078 231.258 130.405L230.898 128.921Z" fill="#6C63FF"/>
<path d="M230.713 122.762C231.156 120.878 231.814 119.061 232.67 117.353C233.536 115.724 235.819 117.072 235.042 118.753C234.155 120.678 232.825 122.786 230.911 124.134L230.713 122.762Z" fill="#6C63FF"/>
<path d="M229.315 115.122C229.836 113.669 230.503 112.284 231.306 110.993C232.299 109.422 234.5 110.961 233.591 112.585C232.603 114.355 231.21 116.135 229.341 117.036L229.315 115.122Z" fill="#6C63FF"/>
<path d="M228.201 108.605C228.47 107.223 228.819 105.862 229.245 104.528C229.727 103.043 231.803 103.761 231.393 105.271C230.911 107.047 230.084 108.819 228.664 109.744L228.201 108.605Z" fill="#6C63FF"/>
<path d="M227.427 102.192C227.799 100.557 228.283 98.9549 228.874 97.398C229.375 96.1202 231.159 96.8979 230.706 98.1966C230.118 99.8985 229.173 101.674 227.673 102.794L227.427 102.192Z" fill="#6C63FF"/>
<path d="M226.268 94.4837C226.268 94.4837 226.494 93.2348 226.906 91.724C227.287 90.331 229.225 90.8783 228.91 92.2895C228.558 93.8606 227.945 95.3399 226.885 95.9893L226.268 94.4837Z" fill="#6C63FF"/>
<path d="M226.538 88.0583L227.849 84.1307C228.196 83.0834 229.642 83.5913 229.36 84.6544C228.794 86.7753 227.81 88.8438 226.111 90.022L226.538 88.0583Z" fill="#6C63FF"/>
<path d="M228.172 77.1004C228.172 77.1004 228.377 76.9224 228.69 76.6422C229.329 76.0661 230.163 77.0716 229.56 77.6895C228.511 78.7254 227.305 79.5563 225.995 80.1456L228.172 77.1004Z" fill="#6C63FF"/>
<path d="M228.085 74.8251C228.869 73.0869 229.742 71.398 230.701 69.7664C230.756 69.6539 230.771 69.5235 230.744 69.3996C230.717 69.2757 230.649 69.1668 230.553 69.0933C230.458 69.0198 230.341 68.9867 230.224 69.0002C230.107 69.0138 229.999 69.073 229.92 69.1668C229.149 70.3137 228.392 71.992 227.818 74.4585L228.085 74.8251Z" fill="#6C63FF"/>
<path d="M226.591 95.6149L226.871 95.5835C225.665 83.3793 226.174 75.8541 228.281 74.3957L228.129 74.1338C225.897 75.6865 225.366 83.1122 226.591 95.6149Z" fill="#444053"/>
<path d="M230.737 124.469L231.154 124.401C230.997 123.273 230.817 122.126 230.614 120.997C228.859 111.092 227.495 101.936 226.812 94.9813L226.506 94.7194C227.191 101.687 228.435 111.16 230.202 121.078C230.4 122.199 230.58 123.343 230.737 124.469Z" fill="#444053"/>
<path d="M211.211 186.153C211.274 186.098 217.696 180.762 223.334 170.526C226.639 164.537 229.047 158.015 230.47 151.206C232.251 142.693 232.302 132.78 231.017 123.495L230.641 123.823C233.534 144.66 228.016 160.838 222.866 170.191C217.283 180.332 210.936 185.613 210.871 185.666L211.211 186.153Z" fill="#444053"/>
<path d="M46.7713 186.106C55.6315 186.106 62.8142 184.605 62.8142 182.754C62.8142 180.903 55.6315 179.403 46.7713 179.403C37.9111 179.403 30.7285 180.903 30.7285 182.754C30.7285 184.605 37.9111 186.106 46.7713 186.106Z" fill="#6C63FF"/>
<path d="M46.5011 183.985C47.5329 183.985 48.3693 182.796 48.3693 181.33C48.3693 179.863 47.5329 178.675 46.5011 178.675C45.4693 178.675 44.6328 179.863 44.6328 181.33C44.6328 182.796 45.4693 183.985 46.5011 183.985Z" fill="#3F3D56"/>
<path d="M46.5011 180.738C47.5329 180.738 48.3693 179.549 48.3693 178.083C48.3693 176.617 47.5329 175.428 46.5011 175.428C45.4693 175.428 44.6328 176.617 44.6328 178.083C44.6328 179.549 45.4693 180.738 46.5011 180.738Z" fill="#3F3D56"/>
<path d="M46.5011 177.494C47.5329 177.494 48.3693 176.305 48.3693 174.839C48.3693 173.372 47.5329 172.184 46.5011 172.184C45.4693 172.184 44.6328 173.372 44.6328 174.839C44.6328 176.305 45.4693 177.494 46.5011 177.494Z" fill="#3F3D56"/>
<path d="M46.5011 174.247C47.5329 174.247 48.3693 173.058 48.3693 171.592C48.3693 170.126 47.5329 168.937 46.5011 168.937C45.4693 168.937 44.6328 170.126 44.6328 171.592C44.6328 173.058 45.4693 174.247 46.5011 174.247Z" fill="#3F3D56"/>
<path d="M46.5011 171C47.5329 171 48.3693 169.812 48.3693 168.345C48.3693 166.879 47.5329 165.69 46.5011 165.69C45.4693 165.69 44.6328 166.879 44.6328 168.345C44.6328 169.812 45.4693 171 46.5011 171Z" fill="#3F3D56"/>
<path d="M46.5011 167.756C47.5329 167.756 48.3693 166.567 48.3693 165.101C48.3693 163.635 47.5329 162.446 46.5011 162.446C45.4693 162.446 44.6328 163.635 44.6328 165.101C44.6328 166.567 45.4693 167.756 46.5011 167.756Z" fill="#3F3D56"/>
<path d="M46.5011 164.509C47.5329 164.509 48.3693 163.321 48.3693 161.854C48.3693 160.388 47.5329 159.199 46.5011 159.199C45.4693 159.199 44.6328 160.388 44.6328 161.854C44.6328 163.321 45.4693 164.509 46.5011 164.509Z" fill="#3F3D56"/>
<path d="M53.4922 139.64C53.7482 139.287 53.981 138.916 54.1889 138.527L49.2808 137.653L54.5842 137.695C55.0937 136.492 55.3717 135.189 55.4012 133.865C55.4306 132.541 55.2108 131.225 54.7554 129.997L47.6343 134.008L54.2009 128.771C53.5869 127.614 52.7599 126.606 51.7713 125.811C50.7827 125.016 49.6539 124.451 48.4554 124.152C47.2568 123.852 46.0142 123.824 44.8052 124.069C43.5961 124.314 42.4466 124.827 41.4283 125.577C40.4101 126.326 39.545 127.295 38.887 128.424C38.2291 129.552 37.7924 130.816 37.6043 132.137C37.4162 133.457 37.4807 134.805 37.7937 136.097C38.1067 137.389 38.6616 138.597 39.4237 139.645C39.0267 140.195 38.6848 140.789 38.404 141.418L44.7753 145.013L37.9869 142.536C37.5105 144.068 37.3932 145.704 37.6458 147.298C37.8983 148.891 38.5127 150.391 39.4333 151.661C38.3947 153.095 37.7484 154.817 37.5684 156.63C37.3884 158.444 37.682 160.276 38.4156 161.917C39.1491 163.558 40.2931 164.942 41.7166 165.91C43.1401 166.878 44.7857 167.391 46.4652 167.391C48.1447 167.391 49.7903 166.878 51.2138 165.91C52.6373 164.942 53.7812 163.558 54.5148 161.917C55.2483 160.276 55.5419 158.444 55.3619 156.63C55.182 154.817 54.5357 153.095 53.497 151.661C54.7383 149.949 55.4132 147.833 55.4132 145.653C55.4132 143.474 54.7383 141.358 53.497 139.645L53.4922 139.64Z" fill="#6C63FF"/>
<path opacity="0.1" d="M37.5146 145.649C37.5126 147.828 38.1869 149.944 39.4287 151.656C38.39 153.089 37.7437 154.811 37.5637 156.625C37.3838 158.439 37.6773 160.271 38.4109 161.912C39.1445 163.553 40.2884 164.937 41.7119 165.905C43.1354 166.873 44.781 167.386 46.4605 167.386C48.14 167.386 49.7856 166.873 51.2091 165.905C52.6326 164.937 53.7766 163.553 54.5101 161.912C55.2437 160.271 55.5373 158.439 55.3573 156.625C55.1773 154.811 54.531 153.089 53.4924 151.656C54.6929 150.004 37.5146 144.557 37.5146 145.649Z" fill="black"/>
<path d="M55.9199 68.4022V184.058C55.9199 184.588 56.0161 185.113 56.2029 185.603C56.3897 186.093 56.6635 186.538 57.0087 186.913C57.3538 187.288 57.7636 187.585 58.2146 187.788C58.6656 187.991 59.149 188.096 59.6371 188.096H212.441C213.426 188.096 214.372 187.67 215.069 186.913C215.766 186.156 216.158 185.129 216.158 184.058V68.4022H55.9199Z" fill="white"/>
<path opacity="0.1" d="M104.82 78.7552H70.6848C69.5332 78.7552 68.5996 79.7692 68.5996 81.0201V100.912C68.5996 102.163 69.5332 103.177 70.6848 103.177H104.82C105.971 103.177 106.905 102.163 106.905 100.912V81.0201C106.905 79.7692 105.971 78.7552 104.82 78.7552Z" fill="black"/>
<path opacity="0.1" d="M153.107 78.7552H118.972C117.821 78.7552 116.887 79.7692 116.887 81.0201V100.912C116.887 102.163 117.821 103.177 118.972 103.177H153.107C154.259 103.177 155.192 102.163 155.192 100.912V81.0201C155.192 79.7692 154.259 78.7552 153.107 78.7552Z" fill="black"/>
<path d="M104.28 79.0983H71.2224C70.0708 79.0983 69.1372 80.1123 69.1372 81.3632V100.566C69.1372 101.817 70.0708 102.831 71.2224 102.831H104.28C105.431 102.831 106.365 101.817 106.365 100.566V81.3632C106.365 80.1123 105.431 79.0983 104.28 79.0983Z" fill="#6C63FF"/>
<path opacity="0.1" d="M167.798 102.831H200.855C202.006 102.831 202.94 101.817 202.94 100.566V81.3632C202.94 80.1123 202.006 79.0983 200.855 79.0983H167.798C166.646 79.0983 165.712 80.1123 165.712 81.3632V100.566C165.712 101.817 166.646 102.831 167.798 102.831Z" fill="#444053"/>
<path d="M119.51 102.831H152.567C153.719 102.831 154.652 101.817 154.652 100.566V81.3632C154.652 80.1123 153.719 79.0983 152.567 79.0983H119.51C118.358 79.0983 117.425 80.1123 117.425 81.3632V100.566C117.425 101.817 118.358 102.831 119.51 102.831Z" fill="#6C63FF"/>
<path opacity="0.1" d="M104.28 113.38H71.2224C70.0708 113.38 69.1372 114.394 69.1372 115.645V134.848C69.1372 136.099 70.0708 137.113 71.2224 137.113H104.28C105.431 137.113 106.365 136.099 106.365 134.848V115.645C106.365 114.394 105.431 113.38 104.28 113.38Z" fill="#444053"/>
<path opacity="0.1" d="M167.798 137.113H200.855C202.006 137.113 202.94 136.099 202.94 134.848V115.645C202.94 114.394 202.006 113.38 200.855 113.38H167.798C166.646 113.38 165.712 114.394 165.712 115.645V134.848C165.712 136.099 166.646 137.113 167.798 137.113Z" fill="#444053"/>
<path opacity="0.1" d="M119.51 137.113H152.567C153.719 137.113 154.652 136.099 154.652 134.848V115.645C154.652 114.394 153.719 113.38 152.567 113.38H119.51C118.358 113.38 117.425 114.394 117.425 115.645V134.848C117.425 136.099 118.358 137.113 119.51 137.113Z" fill="#444053"/>
<path opacity="0.1" d="M104.28 147.663H71.2224C70.0708 147.663 69.1372 148.677 69.1372 149.928V169.131C69.1372 170.382 70.0708 171.396 71.2224 171.396H104.28C105.431 171.396 106.365 170.382 106.365 169.131V149.928C106.365 148.677 105.431 147.663 104.28 147.663Z" fill="#444053"/>
<path opacity="0.1" d="M167.798 171.398H200.855C202.006 171.398 202.94 170.384 202.94 169.133V149.93C202.94 148.679 202.006 147.665 200.855 147.665H167.798C166.646 147.665 165.712 148.679 165.712 149.93V169.133C165.712 170.384 166.646 171.398 167.798 171.398Z" fill="#444053"/>
<path opacity="0.1" d="M119.51 171.398H152.567C153.719 171.398 154.652 170.384 154.652 169.133V149.93C154.652 148.679 153.719 147.665 152.567 147.665H119.51C118.358 147.665 117.425 148.679 117.425 149.93V169.133C117.425 170.384 118.358 171.398 119.51 171.398Z" fill="#444053"/>
<path d="M55.9199 47.9763V68.9887H216.158V47.9763C216.158 47.4459 216.062 46.9206 215.875 46.4304C215.689 45.9402 215.415 45.4948 215.07 45.1196C214.725 44.7445 214.315 44.4468 213.864 44.2437C213.412 44.0407 212.929 43.9362 212.441 43.9362H59.6371C59.1488 43.9362 58.6652 44.0407 58.2141 44.2437C57.7629 44.4468 57.353 44.7445 57.0078 45.1196C56.6626 45.4948 56.3888 45.9402 56.2022 46.4304C56.0155 46.9206 55.9196 47.4459 55.9199 47.9763ZM95.575 54.1923C94.9881 54.1923 94.4143 54.0033 93.9263 53.6491C93.4383 53.2949 93.058 52.7915 92.8334 52.2026C92.6088 51.6136 92.55 50.9655 92.6645 50.3403C92.779 49.715 93.0616 49.1407 93.4767 48.6899C93.8917 48.2392 94.4204 47.9322 94.9961 47.8078C95.5717 47.6834 96.1684 47.7473 96.7106 47.9912C97.2528 48.2352 97.7163 48.6483 98.0424 49.1784C98.3685 49.7084 98.5425 50.3316 98.5425 50.9691C98.5425 51.8239 98.2298 52.6438 97.6733 53.2482C97.1168 53.8527 96.362 54.1923 95.575 54.1923ZM176.503 54.1923C175.916 54.1923 175.342 54.0033 174.854 53.6491C174.366 53.2949 173.986 52.7915 173.761 52.2026C173.536 51.6136 173.478 50.9655 173.592 50.3403C173.707 49.715 173.989 49.1407 174.404 48.6899C174.819 48.2392 175.348 47.9322 175.924 47.8078C176.499 47.6834 177.096 47.7473 177.638 47.9912C178.181 48.2352 178.644 48.6483 178.97 49.1784C179.296 49.7084 179.47 50.3316 179.47 50.9691C179.47 51.3928 179.393 51.8124 179.244 52.2038C179.094 52.5952 178.875 52.9507 178.599 53.2501C178.323 53.5495 177.996 53.7868 177.635 53.9485C177.274 54.1101 176.888 54.193 176.498 54.1923H176.503Z" fill="#6C63FF"/>
<path opacity="0.1" d="M95.5748 47.1594C94.881 47.1589 94.2026 47.3819 93.6255 47.8002C93.0484 48.2185 92.5985 48.8133 92.3326 49.5094C92.0668 50.2055 91.997 50.9716 92.132 51.7108C92.2671 52.45 92.601 53.129 93.0914 53.6621C93.5818 54.1952 94.2068 54.5583 94.8873 54.7055C95.5677 54.8527 96.2731 54.7774 96.9141 54.4891C97.5552 54.2008 98.1031 53.7125 98.4886 53.086C98.8741 52.4594 99.0799 51.7227 99.0799 50.9691C99.0802 50.469 98.9898 49.9736 98.8138 49.5114C98.6378 49.0492 98.3797 48.6292 98.0541 48.2754C97.7286 47.9216 97.3421 47.641 96.9167 47.4495C96.4913 47.258 96.0353 47.1594 95.5748 47.1594ZM95.5748 54.1924C94.9879 54.1924 94.4142 54.0033 93.9262 53.6491C93.4382 53.295 93.0578 52.7916 92.8332 52.2026C92.6086 51.6136 92.5499 50.9656 92.6644 50.3403C92.7789 49.7151 93.0615 49.1408 93.4765 48.69C93.8915 48.2392 94.4203 47.9322 94.9959 47.8079C95.5715 47.6835 96.1682 47.7473 96.7104 47.9913C97.2527 48.2352 97.7161 48.6484 98.0422 49.1784C98.3683 49.7085 98.5423 50.3317 98.5423 50.9691C98.5423 51.824 98.2297 52.6438 97.6732 53.2483C97.1167 53.8528 96.3619 54.1924 95.5748 54.1924Z" fill="black"/>
<path opacity="0.1" d="M176.498 47.1594C175.804 47.1594 175.126 47.3829 174.549 47.8015C173.972 48.2201 173.523 48.8151 173.257 49.5112C172.992 50.2074 172.922 50.9734 173.058 51.7124C173.193 52.4514 173.527 53.1302 174.018 53.663C174.508 54.1958 175.133 54.5587 175.813 54.7057C176.494 54.8527 177.199 54.7772 177.84 54.4889C178.481 54.2005 179.029 53.7122 179.414 53.0857C179.799 52.4592 180.005 51.7226 180.005 50.9691C180.005 49.9587 179.636 48.9897 178.978 48.2753C178.32 47.5608 177.428 47.1594 176.498 47.1594ZM176.498 54.1924C175.911 54.1924 175.337 54.0033 174.849 53.6491C174.361 53.295 173.981 52.7916 173.756 52.2026C173.531 51.6136 173.473 50.9656 173.587 50.3403C173.702 49.7151 173.984 49.1408 174.399 48.69C174.814 48.2392 175.343 47.9322 175.919 47.8079C176.494 47.6835 177.091 47.7473 177.633 47.9913C178.176 48.2352 178.639 48.6484 178.965 49.1784C179.291 49.7085 179.465 50.3317 179.465 50.9691C179.465 51.824 179.153 52.6438 178.596 53.2483C178.04 53.8528 177.285 54.1924 176.498 54.1924Z" fill="black"/>
<path opacity="0.1" d="M249.043 113.954C251.076 113.954 252.724 112.164 252.724 109.956C252.724 107.748 251.076 105.958 249.043 105.958C247.01 105.958 245.362 107.748 245.362 109.956C245.362 112.164 247.01 113.954 249.043 113.954Z" fill="#6C63FF"/>
<path opacity="0.1" d="M262.213 98.8276C265.621 98.8276 268.384 95.8266 268.384 92.1246C268.384 88.4226 265.621 85.4216 262.213 85.4216C258.804 85.4216 256.042 88.4226 256.042 92.1246C256.042 95.8266 258.804 98.8276 262.213 98.8276Z" fill="#6C63FF"/>
<path opacity="0.1" d="M254.043 131.353C257.452 131.353 260.215 128.352 260.215 124.65C260.215 120.948 257.452 117.947 254.043 117.947C250.635 117.947 247.872 120.948 247.872 124.65C247.872 128.352 250.635 131.353 254.043 131.353Z" fill="#6C63FF"/>
<path opacity="0.1" d="M8.73858 99.9718C13.5648 99.9718 17.4772 95.7223 17.4772 90.4802C17.4772 85.2382 13.5648 80.9886 8.73858 80.9886C3.91239 80.9886 0 85.2382 0 90.4802C0 95.7223 3.91239 99.9718 8.73858 99.9718Z" fill="#6C63FF"/>
<path d="M223.141 193.856C222.592 193.407 221.991 193.04 221.352 192.764C221.304 192.737 221.25 192.722 221.196 192.72C219.875 191.69 218.64 190.535 217.507 189.269C217.748 189.059 217.97 188.855 218.206 188.653C216.76 187.904 215.957 186.189 215.176 184.642C213.111 180.528 210.39 176.845 207.139 173.765C207.06 173.433 206.594 173.503 206.346 173.289C206.265 173.204 206.206 173.098 206.175 172.981C206.144 172.863 206.142 172.739 206.17 172.621C206.209 172.38 206.31 172.158 206.365 171.922C206.498 171.369 206.382 170.788 206.324 170.22C206.266 169.652 206.291 169.018 206.638 168.594C206.749 168.455 206.891 168.348 206.999 168.206C207.113 168.04 207.194 167.849 207.235 167.647C207.277 167.444 207.278 167.234 207.24 167.031C207.214 166.623 207.133 166.222 206.999 165.839C208.18 162.348 209.361 158.851 210.54 155.348C211.367 152.902 212.201 150.404 212.286 147.796C212.353 145.702 211.857 143.526 210.69 141.926C210.902 141.871 211.114 141.813 211.324 141.748C209.945 139.763 209.796 137.134 209.759 134.634C209.74 133.387 209.701 132.14 209.641 130.892C210.041 131.083 210.446 131.253 210.861 131.4L211.247 131.528C211.873 131.728 212.512 131.876 213.158 131.973C213.443 132.018 213.732 132.052 214.019 132.073C213.604 130.945 213.191 129.816 212.778 128.685C212.563 128.184 212.432 127.646 212.392 127.095V126.991C212.392 126.928 212.392 126.865 212.404 126.802C212.42 126.652 212.452 126.505 212.498 126.362C212.519 126.292 212.544 126.223 212.573 126.155C212.659 125.949 212.762 125.752 212.881 125.566C212.968 125.422 213.064 125.284 213.161 125.142C213.52 124.687 213.812 124.174 214.026 123.621C214.111 123.341 214.156 123.049 214.159 122.754C214.164 122.456 214.139 122.157 214.087 121.864C214.053 121.67 214.009 121.474 213.961 121.285C213.93 121.168 213.896 121.05 213.862 120.934L213.833 120.84C213.807 120.751 213.78 120.665 213.751 120.578L213.723 120.489C213.691 120.395 213.66 120.303 213.626 120.209L213.607 120.154C213.146 118.869 212.534 117.643 212.16 116.321C212.062 115.969 211.982 115.611 211.919 115.25C211.902 115.158 211.89 115.064 211.876 114.972C211.862 114.881 211.854 114.815 211.845 114.737C211.835 114.658 211.823 114.554 211.813 114.462L211.792 114.2C211.792 114.116 211.78 114.032 211.775 113.938C211.775 113.778 211.76 113.619 211.758 113.459C211.758 113.401 211.758 113.346 211.758 113.289C211.758 113.168 211.758 113.045 211.758 112.925C211.758 112.859 211.758 112.794 211.758 112.731C211.758 112.611 211.775 112.49 211.784 112.372C211.784 112.315 211.784 112.257 211.801 112.202C211.817 112.028 211.839 111.853 211.866 111.679C211.89 111.524 211.917 111.367 211.946 111.21C212.033 110.78 212.078 110.341 212.081 109.901C212.081 109.817 212.081 109.73 212.064 109.639C212.047 109.547 212.045 109.497 212.033 109.429C212.032 109.408 212.032 109.387 212.033 109.367C212.033 109.319 212.011 109.272 212.001 109.225C211.992 109.178 211.989 109.181 211.982 109.16C211.975 109.139 211.956 109.068 211.941 109.024C211.927 108.979 211.929 108.984 211.922 108.963C211.915 108.942 211.888 108.869 211.869 108.825L211.852 108.777C211.828 108.72 211.801 108.665 211.775 108.61C211.681 108.419 211.573 108.237 211.452 108.065C210.659 106.934 209.34 106.073 208.614 104.826C208.191 104.019 207.915 103.129 207.802 102.208C207.766 101.998 207.734 101.789 207.701 101.582C207.667 101.375 207.638 101.171 207.604 100.967C207.583 100.841 207.561 100.705 207.537 100.59L207.522 100.509C207.503 100.409 207.484 100.307 207.462 100.207L207.448 100.137C207.426 100.032 207.404 99.9273 207.38 99.8226L207.366 99.7676C207.342 99.6576 207.315 99.5477 207.289 99.4377C207.287 99.4246 207.287 99.4115 207.289 99.3984C207.26 99.2832 207.228 99.168 207.197 99.0528V99.0292C207.163 98.9088 207.129 98.7909 207.093 98.6731C207.057 98.5527 207.019 98.4296 206.978 98.3092C206.934 98.1861 206.893 98.063 206.847 97.9426C206.544 97.099 206.134 96.3058 205.628 95.5861C204.524 94.0465 202.817 92.9415 201.047 93.0148C200.098 93.0541 199.186 93.4154 198.292 93.7742L195.971 94.7037L196.619 94.379C195.944 94.4445 195.255 94.5125 194.645 94.8372C194.035 95.1619 193.519 95.7982 193.5 96.5418C193.488 96.9738 193.644 97.4032 193.594 97.8326C193.509 98.5422 192.909 99.024 192.598 99.6524C192.416 100.031 192.332 100.457 192.357 100.883V100.904C192.357 100.954 192.357 101.001 192.357 101.051C192.356 101.065 192.356 101.079 192.357 101.092V101.176C191.393 100.721 190.428 100.247 189.464 99.7388C187.871 98.8878 186.258 97.8876 185.265 96.2747C184.947 95.751 184.701 95.1855 184.385 94.667C184.023 94.1091 183.62 93.5837 183.18 93.096L180.222 89.6188C179.995 90.0823 180.287 90.6295 180.516 91.0903C180.759 91.5737 180.943 92.0895 181.063 92.6247C181.121 92.7991 181.116 92.9911 181.049 93.1615C180.941 93.3019 180.801 93.4093 180.644 93.473C180.374 93.6577 180.167 93.9343 180.057 94.2597C179.947 94.5851 179.938 94.941 180.034 95.2719C180.139 95.5977 180.32 95.8883 180.56 96.1151C180.799 96.3419 181.089 96.497 181.401 96.5653C181.609 96.5912 181.814 96.6457 182.011 96.7277C182.367 96.9188 182.536 97.3639 182.792 97.6965C183.257 98.3039 183.997 98.5317 184.703 98.7307C185.798 100.103 186.935 101.417 188.03 102.789C189.686 104.866 191.381 106.979 193.541 108.382C193.765 108.529 193.994 108.665 194.225 108.79C194.225 108.832 194.225 108.874 194.213 108.916C194.153 109.226 194.189 109.548 194.317 109.833C194.51 110.165 194.907 110.265 195.262 110.333L196.896 110.65C196.882 110.88 196.855 111.109 196.817 111.336C196.795 111.474 196.768 111.61 196.744 111.749L196.715 111.927C196.715 111.927 196.715 111.946 196.715 111.953C196.715 111.961 196.715 112.048 196.699 112.097C196.682 112.147 196.699 112.132 196.699 112.147V112.273V112.325C196.699 112.38 196.699 112.438 196.699 112.495C196.754 113.192 197.181 113.768 197.607 114.3L197.836 114.601C197.473 115.098 197.218 115.678 197.092 116.297C197.019 116.686 196.983 117.082 196.985 117.478C196.767 117.705 196.602 117.985 196.503 118.295C196.389 118.724 196.347 119.172 196.378 119.617V119.649C196.378 119.814 196.378 119.976 196.378 120.141C196.35 120.767 196.445 121.392 196.658 121.974C196.679 122.021 196.703 122.063 196.725 122.107C196.363 122.877 195.761 123.477 195.329 124.202C194.893 125.007 194.696 125.939 194.764 126.871C194.833 127.802 195.164 128.688 195.713 129.408C196.043 129.821 196.467 130.219 196.506 130.769C196.5 131.018 196.477 131.267 196.438 131.513C196.4 132.104 196.65 132.665 196.785 133.238C196.899 133.715 196.903 134.286 196.653 134.668C196.399 135.07 196.282 135.555 196.323 136.04C196.445 136.781 196.163 137.522 196.115 138.273C196.094 138.595 196.115 138.923 196.089 139.245C196.054 139.553 195.995 139.858 195.913 140.156C195.913 140.187 195.898 140.221 195.889 140.255C195.293 140.541 194.703 140.837 194.134 141.18C193.826 141.328 193.572 141.582 193.41 141.902C193.314 142.224 193.301 142.568 193.372 142.897L193.885 146.778L193.796 146.736C193.836 147.371 193.878 148.009 193.922 148.65C193.953 149.134 193.994 149.647 194.259 150.035C194.394 150.191 194.516 150.36 194.623 150.54C194.826 150.985 194.584 151.504 194.406 151.959C194.228 152.415 194.165 153.062 194.558 153.308C194.763 153.463 194.984 153.591 195.216 153.69C194.734 155.874 195.177 158.162 195.626 160.354C195.968 162.03 196.311 163.704 196.655 165.376C196.79 166.086 196.866 166.808 196.882 167.534C196.882 167.638 196.882 167.743 196.882 167.848C196.93 168.845 197.092 169.832 197.364 170.786C197.899 172.744 197.386 175.095 197.554 177.229C197.667 178.256 197.855 179.271 198.118 180.264C199.283 185.281 200.322 190.198 200.722 195.356C201.15 195.948 201.731 196.389 202.39 196.621C202.342 197.255 202.407 197.98 202.39 198.349C202.389 198.655 202.346 198.959 202.26 199.25C202.055 199.831 201.537 200.211 200.999 200.415C200.83 200.478 200.659 200.528 200.486 200.572L200.679 200.394C199.576 200.134 198.424 200.354 197.47 201.007C197.32 201.09 197.187 201.204 197.078 201.344C196.969 201.483 196.887 201.644 196.836 201.818C196.796 202.151 196.876 202.488 197.058 202.758C197.588 203.602 198.379 204.212 199.288 204.479C200.185 204.735 201.108 204.875 202.036 204.895L203.738 205.002C203.68 205.108 203.659 205.233 203.68 205.354C203.7 205.474 203.76 205.583 203.849 205.66C204.031 205.804 204.247 205.89 204.473 205.906C205.168 206.018 205.874 206.029 206.573 205.94C206.748 205.934 206.917 205.868 207.055 205.751C207.087 205.72 207.112 205.681 207.13 205.638C207.148 205.595 207.157 205.548 207.157 205.501C207.157 205.454 207.148 205.408 207.13 205.364C207.112 205.321 207.087 205.283 207.055 205.251C207.157 205.248 207.256 205.211 207.338 205.145C207.421 205.08 207.483 204.989 207.518 204.885C207.584 204.672 207.606 204.445 207.58 204.222C207.534 203.361 207.465 202.109 207.052 201.342C206.981 201.202 206.87 201.092 206.735 201.028C206.601 200.963 206.45 200.949 206.307 200.986C206.041 199.453 205.88 197.9 205.825 196.341C206.25 196.168 206.664 195.965 207.064 195.733C205.881 193.657 205.859 191.02 206.221 188.606C206.364 187.844 206.469 187.074 206.536 186.299C206.616 184.755 206.401 183.005 205.613 181.728C207.05 182.72 208.322 183.97 209.374 185.425C211.039 187.781 212.054 190.635 214.096 192.599C214.365 192.315 214.636 192.032 214.911 191.751C215.342 192.543 215.749 193.352 216.133 194.178C216.435 194.785 216.672 195.427 216.842 196.092C217.03 197.109 217.052 198.154 216.907 199.179C216.851 199.724 216.782 200.266 216.702 200.805C216.67 201.036 216.621 201.264 216.555 201.486C216.554 201.415 216.538 201.345 216.509 201.282C216.381 201.038 216.027 201.148 215.834 201.316C215.491 201.596 215.207 201.953 215.003 202.363C214.89 202.563 214.838 202.797 214.853 203.031C214.884 203.172 214.944 203.303 215.027 203.416C215.11 203.53 215.216 203.621 215.335 203.685C216.23 204.254 217.353 203.842 218.312 203.423C218.577 203.32 218.83 203.182 219.065 203.012C219.547 202.635 219.809 202.015 220.289 201.648C220.545 201.496 220.792 201.326 221.029 201.14C221.475 200.698 221.511 199.952 221.837 199.391C222.377 198.425 223.584 198.176 224.057 197.153C224.604 196.021 223.965 194.594 223.141 193.856Z" fill="url(#paint0_linear)"/>
<path d="M202.359 198.464C202.358 198.767 202.313 199.067 202.227 199.355C202.024 199.928 201.503 200.303 200.968 200.504C200.433 200.706 199.864 200.766 199.319 200.941C199.08 201.001 198.859 201.125 198.676 201.303C198.194 201.826 198.483 202.769 199.047 203.159C199.611 203.549 200.329 203.536 201 203.486C202.422 203.397 203.834 203.178 205.223 202.834C205.724 202.706 206.31 202.455 206.39 201.902C206.405 201.727 206.392 201.55 206.351 201.379C206.009 199.504 205.828 197.6 205.809 195.689C205.809 195.563 203.012 195.482 202.752 195.665C202.169 196.082 202.391 197.82 202.359 198.464Z" fill="#A1616A"/>
<path d="M214.827 191.795C215.29 192.628 215.724 193.477 216.131 194.343C216.432 194.941 216.67 195.574 216.84 196.231C217.026 197.234 217.048 198.265 216.905 199.276C216.848 199.812 216.779 200.347 216.697 200.881C216.618 201.405 216.49 201.999 216.078 202.3C216.262 202.419 216.467 202.491 216.68 202.511C216.893 202.531 217.107 202.5 217.307 202.418C217.705 202.251 218.072 202.007 218.39 201.698C220.455 199.847 222.006 197.158 222.083 194.249C222.104 194.022 222.065 193.792 221.969 193.589C221.872 193.447 221.749 193.327 221.608 193.238C220.066 192.098 218.634 190.791 217.334 189.339C217.257 189.228 217.146 189.15 217.02 189.122C216.922 189.123 216.825 189.152 216.741 189.208C215.948 189.64 214.622 190.256 214.292 191.238C214.517 191.361 214.704 191.555 214.827 191.795Z" fill="#A1616A"/>
<path d="M205.184 201.504C203.449 202.29 201.568 202.572 199.691 202.842C199.45 202.874 199.192 202.895 199.032 202.711C198.969 202.626 198.931 202.521 198.924 202.412C198.916 202.303 198.939 202.194 198.989 202.099C199.091 201.91 199.228 201.746 199.392 201.617L200.638 200.483C199.551 200.233 198.418 200.444 197.47 201.075C197.173 201.236 196.946 201.518 196.839 201.86C196.799 202.19 196.878 202.523 197.061 202.79C197.594 203.625 198.384 204.226 199.288 204.486C200.185 204.739 201.107 204.877 202.034 204.898L203.721 205.002C203.663 205.107 203.642 205.231 203.663 205.351C203.684 205.47 203.745 205.578 203.834 205.652C204.018 205.797 204.235 205.883 204.461 205.9C205.156 206.01 205.861 206.021 206.559 205.932C206.734 205.929 206.903 205.863 207.041 205.746C207.073 205.715 207.098 205.677 207.116 205.635C207.133 205.592 207.142 205.546 207.142 205.5C207.142 205.453 207.133 205.407 207.116 205.365C207.098 205.323 207.073 205.285 207.041 205.254C207.142 205.25 207.241 205.214 207.324 205.149C207.406 205.084 207.469 204.994 207.503 204.89C207.568 204.68 207.589 204.457 207.566 204.238C207.52 203.389 207.45 202.143 207.038 201.402C206.626 200.661 205.768 201.242 205.184 201.504Z" fill="#3F3D56"/>
<path d="M223.098 194.018C222.548 193.576 221.946 193.214 221.309 192.942C221.283 192.921 221.254 192.906 221.222 192.899C221.191 192.892 221.159 192.893 221.127 192.902C221.096 192.91 221.067 192.926 221.043 192.949C221.018 192.971 220.999 192.999 220.986 193.031C219.847 194.709 218.958 196.571 218.351 198.548C218.006 199.674 217.734 200.873 217.035 201.784C216.943 201.905 216.794 202.028 216.668 201.957C216.488 201.858 216.598 201.541 216.497 201.35C216.372 201.109 216.03 201.219 215.825 201.384C215.48 201.662 215.197 202.02 214.995 202.431C214.88 202.626 214.827 202.857 214.846 203.088C214.876 203.227 214.934 203.356 215.015 203.467C215.096 203.579 215.199 203.669 215.316 203.733C216.21 204.295 217.334 203.89 218.291 203.471C218.555 203.369 218.807 203.233 219.04 203.065C219.523 202.696 219.785 202.08 220.265 201.722C220.521 201.571 220.768 201.403 221.005 201.219C221.449 200.782 221.487 200.046 221.81 199.491C222.35 198.54 223.558 198.294 224.03 197.284C224.558 196.155 223.922 194.746 223.098 194.018Z" fill="#3F3D56"/>
<path d="M209.644 141.716C211.539 143.261 212.334 146.008 212.25 148.579C212.166 151.15 211.334 153.617 210.51 156.028C209.328 159.479 208.149 162.93 206.971 166.379C207.102 166.757 207.183 167.154 207.212 167.557C207.249 167.758 207.247 167.964 207.205 168.164C207.164 168.363 207.084 168.551 206.971 168.714C206.86 168.853 206.73 168.961 206.609 169.097C206.262 169.516 206.24 170.144 206.296 170.702C206.351 171.259 206.469 171.835 206.337 172.38C206.281 172.613 206.18 172.833 206.141 173.069C206.115 173.186 206.117 173.309 206.148 173.424C206.178 173.54 206.237 173.645 206.317 173.729C206.559 173.938 207.041 173.87 207.111 174.2C210.352 177.232 213.07 180.867 215.138 184.935C215.919 186.462 216.707 188.153 218.166 188.892C216.745 190.114 215.382 191.416 214.085 192.79C212.048 190.853 211.033 188.033 209.369 185.721C208.316 184.283 207.046 183.05 205.614 182.073C206.402 183.333 206.616 185.061 206.537 186.582C206.47 187.346 206.365 188.106 206.221 188.857C205.847 191.24 205.881 193.832 207.065 195.89C205.802 196.603 204.35 197.132 202.94 196.919C202.055 196.783 201.252 196.285 200.693 195.526C200.293 190.436 199.247 185.577 198.092 180.636C197.828 179.65 197.64 178.642 197.531 177.622C197.362 175.527 197.875 173.197 197.338 171.265C197.067 170.325 196.905 169.352 196.856 168.369C196.856 168.264 196.856 168.162 196.856 168.057C196.839 167.343 196.763 166.631 196.629 165.931L195.602 160.977C195.154 158.812 194.705 156.555 195.19 154.4C194.959 154.303 194.739 154.177 194.534 154.025C194.141 153.782 194.204 153.146 194.382 152.695C194.561 152.245 194.799 151.734 194.599 151.294C194.493 151.116 194.371 150.948 194.235 150.794C193.97 150.412 193.929 149.907 193.898 149.43L193.772 147.54C194.5 147.853 195.106 148.429 195.489 149.171C194.539 147.574 195.007 145.296 195.708 143.552C195.839 143.018 196.125 142.544 196.523 142.201C196.922 141.858 197.413 141.664 197.921 141.648C201.785 140.931 206.505 139.153 209.644 141.716Z" fill="#3F3D56"/>
<path opacity="0.1" d="M207.882 152.467C207.882 152.467 205.982 153.845 205.982 154.876C205.982 155.908 205.5 165.193 205.5 165.193V171.739C205.5 171.739 205.816 175.179 205.5 176.038C205.184 176.897 205.5 180.853 205.5 181.369C205.5 181.885 205.982 176.038 205.982 176.038V169.838L206.464 155.735L207.882 152.467Z" fill="black"/>
<path d="M197.287 104.777L196.18 104.308C193.919 103.323 191.656 102.336 189.467 101.181C187.876 100.341 186.263 99.3486 185.272 97.7645C184.954 97.2409 184.708 96.691 184.392 96.1752C184.029 95.6234 183.626 95.1042 183.187 94.6225L180.232 91.1924C180.005 91.6507 180.294 92.19 180.526 92.643C180.768 93.1204 180.952 93.6301 181.073 94.159C181.13 94.3294 181.124 94.5171 181.056 94.6827C180.95 94.8229 180.811 94.9295 180.653 94.9917C180.384 95.1709 180.178 95.4428 180.068 95.764C179.957 96.0852 179.949 96.4373 180.044 96.7643C180.149 97.0876 180.331 97.3754 180.57 97.5994C180.809 97.8235 181.098 97.976 181.408 98.0421C181.616 98.0683 181.821 98.1219 182.018 98.2018C182.375 98.3929 182.543 98.8302 182.799 99.1575C183.264 99.7571 184.004 99.9849 184.708 100.179C185.803 101.532 186.938 102.828 188.032 104.182C189.686 106.23 191.378 108.314 193.538 109.702C194.305 110.211 195.145 110.577 196.024 110.786C196.314 108.753 196.736 106.745 197.287 104.777Z" fill="#A1616A"/>
<path opacity="0.15" d="M197.287 104.777L196.18 104.308C193.919 103.323 191.656 102.336 189.467 101.181C187.876 100.341 186.263 99.3486 185.272 97.7645C184.954 97.2409 184.708 96.691 184.392 96.1752C184.029 95.6234 183.626 95.1042 183.187 94.6225L180.232 91.1924C180.005 91.6507 180.294 92.19 180.526 92.643C180.768 93.1204 180.952 93.6301 181.073 94.159C181.13 94.3294 181.124 94.5171 181.056 94.6827C180.95 94.8229 180.811 94.9295 180.653 94.9917C180.384 95.1709 180.178 95.4428 180.068 95.764C179.957 96.0852 179.949 96.4373 180.044 96.7643C180.149 97.0876 180.331 97.3754 180.57 97.5994C180.809 97.8235 181.098 97.976 181.408 98.0421C181.616 98.0683 181.821 98.1219 182.018 98.2018C182.375 98.3929 182.543 98.8302 182.799 99.1575C183.264 99.7571 184.004 99.9849 184.708 100.179C185.803 101.532 186.938 102.828 188.032 104.182C189.686 106.23 191.378 108.314 193.538 109.702C194.305 110.211 195.145 110.577 196.024 110.786C196.314 108.753 196.736 106.745 197.287 104.777Z" fill="black"/>
<path d="M195.262 111.613C194.908 111.545 194.51 111.451 194.317 111.121C194.19 110.841 194.153 110.523 194.214 110.217C194.405 108.244 194.81 106.302 195.419 104.431C195.956 105.512 197.015 106.143 198.018 106.711C198.913 107.252 199.846 107.714 200.809 108.094C200.568 108.01 199.977 112.037 199.645 112.283C199.225 112.603 198.213 112.171 197.748 112.084L195.262 111.613Z" fill="#6C63FF"/>
<path d="M197.829 110.424C200.628 110.424 202.897 107.96 202.897 104.921C202.897 101.881 200.628 99.4168 197.829 99.4168C195.031 99.4168 192.762 101.881 192.762 104.921C192.762 107.96 195.031 110.424 197.829 110.424Z" fill="#A1616A"/>
<path d="M196.8 109.477C196.8 109.477 200.124 112.571 198.699 114.635C197.275 116.698 196.482 118.075 198.381 118.248C200.281 118.421 206.614 114.808 206.614 114.808C206.614 114.808 200.756 109.649 201.705 106.554C202.655 103.46 196.8 109.477 196.8 109.477Z" fill="#FBBEBE"/>
<path d="M199.989 114.32C199.281 114.505 198.634 114.901 198.12 115.462C197.606 116.023 197.246 116.728 197.08 117.499C196.706 119.353 197.499 121.427 196.752 123.134C196.4 123.946 195.747 124.553 195.306 125.315C194.871 126.108 194.674 127.028 194.743 127.948C194.811 128.868 195.141 129.742 195.686 130.45C196.017 130.858 196.441 131.253 196.48 131.793C196.474 132.039 196.451 132.284 196.412 132.526C196.373 133.11 196.624 133.665 196.759 134.231C196.873 134.699 196.877 135.262 196.627 135.639C196.374 136.034 196.258 136.514 196.299 136.993C196.419 137.726 196.137 138.457 196.089 139.198C196.067 139.517 196.089 139.836 196.063 140.156C196.027 140.46 195.969 140.76 195.889 141.054L195.465 142.753C197.764 143.822 200.209 144.207 202.697 144.157C204.924 144.11 207.12 143.61 209.299 143.109C209.962 142.958 210.625 142.806 211.278 142.609C209.9 140.651 209.753 138.056 209.714 135.592C209.654 131.484 209.371 127.384 208.868 123.312C209.536 121.943 209.832 120.416 210.107 118.895C210.23 118.282 210.282 117.655 210.261 117.028C210.194 115.719 209.639 114.475 209.097 113.289C208.6 112.205 208.063 111.063 206.956 110.595C206.689 110.472 206.398 110.426 206.109 110.46C205.821 110.495 205.546 110.609 205.31 110.791C204.473 111.477 204.722 112.66 204.507 113.671C204.225 114.98 203.114 115.92 201.93 116.289C201.047 116.541 200.131 116.634 199.22 116.564C199.131 116.559 199.045 116.527 198.972 116.471C198.899 116.415 198.841 116.339 198.806 116.25C198.77 116.161 198.758 116.062 198.771 115.966C198.784 115.87 198.821 115.78 198.878 115.706C199.266 115.24 199.657 114.766 199.989 114.32Z" fill="#6C63FF"/>
<path d="M203.914 135.595C202.038 137.26 200.141 138.941 197.976 140.119C196.706 140.811 195.356 141.321 194.119 142.065C193.814 142.211 193.56 142.461 193.396 142.777C193.298 143.094 193.284 143.434 193.358 143.759L193.907 147.875C194.059 148.99 195.045 149.708 195.836 150.42C195.792 150.046 195.722 149.755 195.886 149.422C195.943 149.318 196.005 149.218 196.072 149.121C196.41 148.566 196.422 147.846 196.34 147.186C196.258 146.527 196.099 145.877 196.13 145.202C196.123 145.09 196.143 144.978 196.188 144.877C196.233 144.776 196.301 144.689 196.385 144.626C199.078 143.22 201.978 142.141 204.7 140.805C205.42 140.489 206.098 140.071 206.717 139.562C207.34 139.043 207.758 138.288 207.889 137.449C207.901 137.394 207.904 137.338 207.895 137.282C207.887 137.227 207.869 137.174 207.841 137.127C207.786 137.062 207.715 137.016 207.636 136.996C206.416 136.514 205.129 136.071 203.914 135.595Z" fill="#A1616A"/>
<path opacity="0.1" d="M198.704 118.324C197.774 118.494 196.795 119.018 196.479 119.987C196.366 120.411 196.323 120.855 196.354 121.296C196.325 121.916 196.421 122.535 196.636 123.11C196.795 123.428 196.984 123.726 197.2 124.001C199.427 127.101 200.546 130.994 202.716 134.144C202.908 134.422 203.26 134.783 203.152 135.11C203.113 135.195 203.078 135.283 203.048 135.372C203.038 135.457 203.048 135.543 203.075 135.623C203.103 135.703 203.148 135.774 203.207 135.83C203.323 135.946 203.413 136.088 203.47 136.247C203.511 136.412 203.41 136.626 203.253 136.613C203.514 137.488 204.311 137.998 205.068 138.412C206.327 139.101 207.72 139.643 209.121 139.493C209.383 138.349 209.75 137.056 209.603 135.891C209.449 135.001 209.177 134.14 208.795 133.335L207.853 131.099C207.05 129.19 206.24 127.268 205.121 125.558C204.718 125.017 204.379 124.423 204.111 123.791C203.825 122.982 203.036 122.414 202.559 121.72C201.85 120.673 201.113 119.625 200.163 118.869C199.782 118.549 199.17 118.24 198.704 118.324Z" fill="black"/>
<path d="M198.705 117.808C197.774 117.978 196.795 118.502 196.48 119.468C196.366 119.893 196.324 120.336 196.354 120.777C196.325 121.397 196.422 122.017 196.636 122.592C196.795 122.909 196.984 123.208 197.2 123.482C199.428 126.582 200.546 130.476 202.716 133.626C202.909 133.903 203.261 134.265 203.152 134.592C203.113 134.677 203.078 134.764 203.049 134.854C203.039 134.938 203.048 135.024 203.076 135.104C203.103 135.184 203.149 135.255 203.208 135.312C203.323 135.427 203.413 135.569 203.47 135.728C203.511 135.893 203.41 136.108 203.253 136.095C203.514 136.969 204.312 137.48 205.069 137.894C206.327 138.582 207.72 139.124 209.121 138.975C209.384 137.831 209.75 136.537 209.603 135.372C209.449 134.482 209.177 133.621 208.796 132.817L207.853 130.58C207.05 128.672 206.24 126.75 205.122 125.04C204.718 124.498 204.379 123.904 204.112 123.27C203.825 122.464 203.036 121.895 202.559 121.202C201.85 120.154 201.113 119.107 200.163 118.35C199.782 118.033 199.17 117.724 198.705 117.808Z" fill="#6C63FF"/>
<path d="M196.58 95.8794C195.908 95.9422 195.216 96.0103 194.609 96.3297C194.001 96.6492 193.483 97.2776 193.463 98.0107C193.463 98.4375 193.608 98.8617 193.557 99.2832C193.473 99.985 192.873 100.459 192.564 101.079C192.024 102.158 192.444 103.53 193.143 104.483C193.842 105.436 194.789 106.17 195.508 107.117C196.074 107.875 196.484 108.757 196.71 109.702C196.935 110.647 196.971 111.634 196.814 112.595C196.725 112.969 196.682 113.353 196.687 113.739C196.742 114.425 197.169 114.993 197.593 115.517C199.657 118.138 201.567 120.898 203.311 123.781C203.834 124.618 204.305 125.493 204.719 126.399C205.129 127.336 205.442 128.337 206.011 129.167C206.536 129.879 207.18 130.479 207.908 130.934C209.746 132.165 211.83 132.895 213.983 133.063L212.741 129.719C212.522 129.125 212.295 128.499 212.368 127.863C212.505 126.658 213.624 125.868 213.988 124.721C214.229 123.982 214.12 123.168 213.923 122.417C213.484 120.722 212.606 119.199 212.134 117.515C211.72 116.039 211.627 114.478 211.864 112.956C211.968 112.286 212.136 111.613 212.059 110.94C211.83 108.893 209.62 107.913 208.597 106.177C207.937 105.062 207.809 103.687 207.587 102.383C207.267 100.48 206.696 98.5789 205.591 97.0602C204.487 95.5416 202.785 94.4419 201.011 94.523C200.061 94.5623 199.153 94.921 198.258 95.2719L195.934 96.1909" fill="#3F3D56"/>
<g opacity="0.1">
<path opacity="0.1" d="M206.953 100.155C207.153 101.331 207.279 102.564 207.785 103.614C207.715 103.205 207.657 102.794 207.587 102.391C207.424 101.365 207.163 100.359 206.811 99.3905C206.871 99.6445 206.912 99.8985 206.953 100.155Z" fill="black"/>
<path opacity="0.1" d="M211.23 110.728C210.995 112.251 211.087 113.812 211.5 115.289C211.613 115.69 211.741 116.075 211.896 116.468C211.695 115.311 211.684 114.125 211.864 112.964C211.968 112.294 212.137 111.621 212.059 110.948C211.988 110.371 211.771 109.828 211.433 109.377C211.396 109.833 211.3 110.28 211.23 110.728Z" fill="black"/>
<path opacity="0.1" d="M213.923 122.424C213.789 121.932 213.628 121.45 213.441 120.979C213.522 121.484 213.49 122.003 213.349 122.492C212.985 123.637 211.864 124.43 211.729 125.634C211.657 126.271 211.881 126.896 212.103 127.491C212.185 127.713 212.267 127.939 212.344 128.161C212.338 128.064 212.338 127.967 212.344 127.87C212.481 126.666 213.6 125.875 213.964 124.728C214.224 123.99 214.121 123.176 213.923 122.424Z" fill="black"/>
<path opacity="0.1" d="M207.277 128.706C206.548 128.249 205.905 127.649 205.379 126.936C204.808 126.106 204.495 125.103 204.085 124.168C203.671 123.261 203.201 122.386 202.677 121.55C200.933 118.667 199.024 115.906 196.961 113.284C196.887 113.192 196.814 113.098 196.742 113.003C196.692 113.246 196.674 113.494 196.687 113.742C196.742 114.428 197.169 114.996 197.593 115.52C199.657 118.141 201.567 120.901 203.311 123.783C203.834 124.62 204.305 125.495 204.719 126.402C205.129 127.339 205.442 128.339 206.011 129.169C206.536 129.882 207.18 130.481 207.908 130.937C209.746 132.167 211.83 132.898 213.983 133.065L213.139 130.814C211.061 130.616 209.053 129.894 207.277 128.706Z" fill="black"/>
<path opacity="0.1" d="M194.874 104.892C194.151 103.944 193.208 103.224 192.509 102.26C192.446 102.171 192.386 102.08 192.326 101.983C192.311 102.899 192.601 103.791 193.143 104.494C193.842 105.46 194.789 106.18 195.508 107.128C195.788 107.496 196.031 107.896 196.231 108.322C196.082 107.063 195.612 105.875 194.874 104.892Z" fill="black"/>
</g>
<path d="M100.774 78.0142L99.0267 76.1054C98.9404 76.0108 98.8378 75.9357 98.7246 75.8845C98.6114 75.8332 98.49 75.8069 98.3674 75.8069C98.2448 75.8069 98.1234 75.8332 98.0103 75.8845C97.8971 75.9357 97.7944 76.0108 97.7081 76.1054L86.7325 87.9169L82.0896 82.8373C81.916 82.6487 81.6805 82.5428 81.4351 82.5428C81.1896 82.5428 80.9542 82.6487 80.7806 82.8373L79.0136 84.7356C78.84 84.9262 78.7427 85.1836 78.7427 85.4517C78.7427 85.7198 78.84 85.9771 79.0136 86.1678L86.0647 93.8841C86.2398 94.0725 86.4763 94.1782 86.7228 94.1782C86.9693 94.1782 87.2058 94.0725 87.3809 93.8841L100.774 79.4465C100.862 79.3527 100.931 79.2412 100.978 79.1183C101.025 78.9954 101.049 78.8635 101.049 78.7304C101.049 78.5972 101.025 78.4653 100.978 78.3424C100.931 78.2195 100.862 78.108 100.774 78.0142Z" fill="#3ACC6C"/>
<path d="M149.229 78.0142L147.481 76.1054C147.395 76.0108 147.292 75.9357 147.179 75.8845C147.066 75.8332 146.944 75.8069 146.822 75.8069C146.699 75.8069 146.578 75.8332 146.464 75.8845C146.351 75.9357 146.249 76.0108 146.162 76.1054L135.187 87.9169L130.544 82.8373C130.37 82.6487 130.135 82.5428 129.889 82.5428C129.644 82.5428 129.408 82.6487 129.235 82.8373L127.468 84.7356C127.294 84.9262 127.197 85.1836 127.197 85.4517C127.197 85.7198 127.294 85.9771 127.468 86.1678L134.519 93.8841C134.694 94.0725 134.93 94.1782 135.177 94.1782C135.423 94.1782 135.66 94.0725 135.835 93.8841L149.229 79.4465C149.316 79.3527 149.385 79.2412 149.432 79.1183C149.479 78.9954 149.503 78.8635 149.503 78.7304C149.503 78.5972 149.479 78.4653 149.432 78.3424C149.385 78.2195 149.316 78.108 149.229 78.0142Z" fill="#3ACC6C"/>
</g>
<defs>
<linearGradient id="paint0_linear" x1="202.127" y1="205.997" x2="202.127" y2="89.6136" gradientUnits="userSpaceOnUse">
<stop stop-color="#808080" stop-opacity="0.25"/>
<stop offset="0.54" stop-color="#808080" stop-opacity="0.12"/>
<stop offset="1" stop-color="#808080" stop-opacity="0.1"/>
</linearGradient>
<clipPath id="clip0">
<rect width="272" height="206" fill="white"/>
</clipPath>
</defs>
</svg>
