<svg width="272" height="206" viewBox="0 0 272 206" fill="none" xmlns="http://www.w3.org/2000/svg">
<g clip-path="url(#clip0)">
<path opacity="0.1" d="M255.73 111.822C246.168 124.931 249.324 143.644 254.851 158.552C256.703 163.543 258.806 168.821 257.846 174.251C256.673 180.889 251.163 185.862 245.435 188.571C234.994 193.508 222.659 192.72 213.319 186.499C205.259 181.13 199.585 172.208 191.368 167.096C177.617 158.542 159.764 162.364 144.46 168.894C133.632 173.514 121.771 179.464 111.22 175.198C103.794 172.196 98.7945 164.555 96.1639 156.388C94.8938 152.444 94.0048 148.164 91.4743 145.077C89.9697 143.241 87.9816 141.963 85.9372 140.894C67.2789 131.132 43.2788 137.233 25.1896 126.342C12.977 118.987 5.37595 104.713 2.21779 89.7074C-0.940371 74.7017 -0.158769 58.8613 1.09912 43.2919C1.99308 32.2273 3.40729 20.4038 10.0656 11.7088C17.1073 2.51602 28.9095 -1.13719 39.4636 0.302621C50.0177 1.74243 59.4799 7.59928 67.7576 14.5909C78.1114 23.3127 87.6372 34.2626 100.514 37.5741C109.285 39.829 118.603 38.233 127.721 37.5278C142.962 36.3515 158.15 37.7059 173.245 39.236C187.694 40.7002 202.244 42.3353 215.93 47.1354C225.614 50.5324 233.291 56.953 242.409 61.3407C248.352 64.2008 254.89 64.8646 260.484 68.5593C267.386 73.1106 273.624 81.1735 271.599 90.8495C269.687 100.047 260.811 104.864 255.73 111.822Z" fill="#6C63FF"/>
<g opacity="0.5">
<path opacity="0.5" d="M208.832 171.615C208.832 171.615 209.638 147.759 222.556 134.278C227.979 128.621 231.54 121.437 232.483 113.662C232.924 109.972 233.025 106.25 232.786 102.541" stroke="#535461" stroke-width="2" stroke-miterlimit="10"/>
<path opacity="0.5" d="M240.878 94.0024C239.993 96.6673 232.602 102.788 232.602 102.788C232.602 102.788 230.338 93.4631 231.222 90.8007C231.433 90.1673 231.766 89.5814 232.203 89.0766C232.639 88.5718 233.172 88.1579 233.769 87.8586C234.365 87.5592 235.016 87.3803 235.682 87.332C236.348 87.2837 237.017 87.3669 237.651 87.577C238.285 87.787 238.871 88.1198 239.377 88.5563C239.882 88.9928 240.296 89.5244 240.596 90.1208C240.895 90.7173 241.074 91.3668 241.123 92.0324C241.171 92.698 241.088 93.3666 240.878 94V94.0024Z" fill="#6C63FF"/>
<path opacity="0.5" d="M243.957 111.402C241.759 113.159 232.233 114.287 232.233 114.287C232.233 114.287 235.409 105.231 237.607 103.476C238.124 103.026 238.727 102.686 239.379 102.475C240.031 102.264 240.719 102.187 241.401 102.248C242.084 102.309 242.747 102.508 243.351 102.832C243.955 103.156 244.487 103.599 244.916 104.133C245.344 104.668 245.66 105.283 245.844 105.943C246.028 106.603 246.077 107.293 245.987 107.972C245.898 108.651 245.672 109.305 245.323 109.894C244.974 110.484 244.51 110.997 243.957 111.402Z" fill="#6C63FF"/>
<path opacity="0.5" d="M235.243 136.499C232.463 136.909 223.663 133.082 223.663 133.082C223.663 133.082 230.975 126.864 233.755 126.454C234.416 126.357 235.089 126.39 235.737 126.553C236.385 126.715 236.994 127.004 237.531 127.401C238.067 127.799 238.52 128.299 238.863 128.871C239.206 129.444 239.433 130.078 239.53 130.738C239.628 131.399 239.595 132.071 239.432 132.719C239.269 133.366 238.981 133.975 238.583 134.511C238.184 135.047 237.684 135.499 237.111 135.842C236.538 136.184 235.903 136.411 235.243 136.509V136.499Z" fill="#6C63FF"/>
<path opacity="0.5" d="M224.366 154.006C221.697 154.879 212.374 152.585 212.374 152.585C212.374 152.585 218.531 145.223 221.201 144.349C222.482 143.929 223.879 144.034 225.083 144.642C226.287 145.25 227.2 146.311 227.621 147.591C228.042 148.872 227.937 150.267 227.328 151.47C226.72 152.673 225.658 153.585 224.376 154.006H224.366Z" fill="#6C63FF"/>
<path opacity="0.5" d="M221.924 111.444C223.221 113.933 231.501 118.806 231.501 118.806C231.501 118.806 232.253 109.242 230.956 106.751C230.648 106.159 230.226 105.634 229.714 105.205C229.203 104.776 228.612 104.451 227.975 104.251C227.338 104.05 226.668 103.976 226.003 104.034C225.337 104.092 224.69 104.281 224.098 104.589C223.505 104.897 222.979 105.318 222.55 105.829C222.12 106.34 221.796 106.931 221.595 107.567C221.394 108.203 221.321 108.873 221.379 109.538C221.437 110.203 221.625 110.849 221.933 111.441L221.924 111.444Z" fill="#6C63FF"/>
<path opacity="0.5" d="M209.464 132.077C211.448 134.066 220.798 136.242 220.798 136.242C220.798 136.242 218.651 126.891 216.67 124.902C215.718 123.947 214.425 123.41 213.076 123.407C211.728 123.405 210.433 123.938 209.478 124.889C208.522 125.84 207.984 127.131 207.981 128.479C207.979 129.826 208.512 131.12 209.464 132.074V132.077Z" fill="#6C63FF"/>
<path opacity="0.5" d="M200.11 153.794C201.727 156.088 210.576 159.814 210.576 159.814C210.576 159.814 210.044 150.236 208.424 147.939C208.05 147.37 207.564 146.882 206.997 146.504C206.429 146.126 205.792 145.865 205.122 145.739C204.452 145.612 203.763 145.621 203.097 145.765C202.43 145.91 201.8 146.187 201.243 146.58C200.685 146.973 200.213 147.474 199.854 148.053C199.494 148.632 199.255 149.277 199.15 149.95C199.045 150.623 199.077 151.311 199.244 151.972C199.41 152.632 199.708 153.253 200.12 153.796L200.11 153.794Z" fill="#6C63FF"/>
<path opacity="0.5" d="M211.67 161.742C211.67 161.742 204.342 151.092 205.627 141.072C206.193 136.873 205.381 132.603 203.312 128.904C202.315 127.156 201.161 125.503 199.863 123.965" stroke="#535461" stroke-width="2" stroke-miterlimit="10"/>
<path opacity="0.5" d="M200.637 117.645C201.109 119.089 199.863 124.131 199.863 124.131C199.863 124.131 195.875 120.798 195.403 119.355C195.176 118.662 195.235 117.907 195.565 117.256C195.896 116.606 196.471 116.113 197.165 115.886C197.86 115.66 198.615 115.718 199.266 116.048C199.918 116.378 200.411 116.954 200.637 117.647V117.645Z" fill="#6C63FF"/>
<path opacity="0.5" d="M207.581 124.231C207.193 125.695 203.402 129.256 203.402 129.256C203.402 129.256 201.868 124.292 202.256 122.823C202.443 122.118 202.903 121.515 203.534 121.148C204.166 120.782 204.917 120.68 205.623 120.867C206.33 121.054 206.932 121.513 207.3 122.144C207.667 122.775 207.768 123.526 207.581 124.231Z" fill="#6C63FF"/>
<path opacity="0.5" d="M211.866 137.961C210.788 139.032 205.72 140.191 205.72 140.191C205.72 140.191 206.902 135.132 207.982 134.061C208.239 133.806 208.543 133.604 208.878 133.467C209.212 133.33 209.571 133.26 209.932 133.261C210.294 133.262 210.652 133.334 210.986 133.474C211.32 133.613 211.623 133.817 211.878 134.073C212.133 134.329 212.335 134.633 212.472 134.968C212.61 135.302 212.68 135.66 212.679 136.022C212.677 136.383 212.605 136.741 212.466 137.074C212.326 137.408 212.122 137.711 211.866 137.965V137.961Z" fill="#6C63FF"/>
<path opacity="0.5" d="M212.767 149.081C211.885 150.319 207.076 152.312 207.076 152.312C207.076 152.312 207.386 147.127 208.268 145.889C208.477 145.595 208.743 145.344 209.049 145.152C209.355 144.96 209.696 144.831 210.053 144.77C210.409 144.71 210.774 144.72 211.127 144.801C211.479 144.882 211.812 145.031 212.107 145.24C212.402 145.449 212.653 145.715 212.845 146.021C213.037 146.327 213.167 146.668 213.227 147.024C213.288 147.38 213.277 147.745 213.196 148.097C213.116 148.449 212.966 148.782 212.757 149.076L212.767 149.081Z" fill="#6C63FF"/>
<path opacity="0.5" d="M197.999 131.325C199.365 131.994 204.535 131.457 204.535 131.457C204.535 131.457 201.783 127.05 200.417 126.383C199.762 126.063 199.005 126.016 198.315 126.253C197.624 126.49 197.056 126.991 196.735 127.646C196.415 128.302 196.368 129.057 196.605 129.747C196.842 130.437 197.343 131.005 197.999 131.325Z" fill="#6C63FF"/>
<path opacity="0.5" d="M199.218 144.32C200.723 144.549 205.496 142.492 205.496 142.492C205.496 142.492 201.549 139.11 200.046 138.89C199.324 138.781 198.588 138.962 198 139.394C197.412 139.827 197.02 140.475 196.91 141.196C196.8 141.918 196.982 142.653 197.415 143.241C197.848 143.828 198.496 144.22 199.218 144.33V144.32Z" fill="#6C63FF"/>
<path opacity="0.5" d="M202.135 156.783C203.578 157.271 208.632 156.051 208.632 156.051C208.632 156.051 205.315 152.051 203.871 151.57C203.178 151.34 202.422 151.395 201.769 151.722C201.116 152.049 200.62 152.621 200.389 153.314C200.159 154.007 200.214 154.762 200.541 155.415C200.868 156.067 201.442 156.563 202.135 156.793V156.783Z" fill="#6C63FF"/>
<path opacity="0.5" d="M200.637 117.645C201.109 119.089 199.863 124.131 199.863 124.131C199.863 124.131 195.875 120.798 195.403 119.355C195.176 118.662 195.235 117.907 195.565 117.256C195.896 116.606 196.471 116.113 197.165 115.886C197.86 115.66 198.615 115.718 199.266 116.048C199.918 116.378 200.411 116.954 200.637 117.647V117.645Z" fill="white"/>
<path opacity="0.5" d="M207.581 124.231C207.193 125.695 203.402 129.256 203.402 129.256C203.402 129.256 201.868 124.292 202.256 122.823C202.443 122.118 202.903 121.515 203.534 121.148C204.166 120.782 204.917 120.68 205.623 120.867C206.33 121.054 206.932 121.513 207.3 122.144C207.667 122.775 207.768 123.526 207.581 124.231Z" fill="white"/>
<path opacity="0.5" d="M211.866 137.961C210.788 139.032 205.72 140.191 205.72 140.191C205.72 140.191 206.902 135.132 207.982 134.061C208.239 133.806 208.543 133.604 208.878 133.467C209.212 133.33 209.571 133.26 209.932 133.261C210.294 133.262 210.652 133.334 210.986 133.474C211.32 133.613 211.623 133.817 211.878 134.073C212.133 134.329 212.335 134.633 212.472 134.968C212.61 135.302 212.68 135.66 212.679 136.022C212.677 136.383 212.605 136.741 212.466 137.074C212.326 137.408 212.122 137.711 211.866 137.965V137.961Z" fill="white"/>
<path opacity="0.5" d="M212.767 149.081C211.885 150.319 207.076 152.312 207.076 152.312C207.076 152.312 207.386 147.127 208.268 145.889C208.477 145.595 208.743 145.344 209.049 145.152C209.355 144.96 209.696 144.831 210.053 144.77C210.409 144.71 210.774 144.72 211.127 144.801C211.479 144.882 211.812 145.031 212.107 145.24C212.402 145.449 212.653 145.715 212.845 146.021C213.037 146.327 213.167 146.668 213.227 147.024C213.288 147.38 213.277 147.745 213.196 148.097C213.116 148.449 212.966 148.782 212.757 149.076L212.767 149.081Z" fill="white"/>
<path opacity="0.5" d="M197.999 131.325C199.365 131.994 204.535 131.457 204.535 131.457C204.535 131.457 201.783 127.05 200.417 126.383C199.762 126.063 199.005 126.016 198.315 126.253C197.624 126.49 197.056 126.991 196.735 127.646C196.415 128.302 196.368 129.057 196.605 129.747C196.842 130.437 197.343 131.005 197.999 131.325Z" fill="white"/>
<path opacity="0.5" d="M199.218 144.32C200.723 144.549 205.496 142.492 205.496 142.492C205.496 142.492 201.549 139.11 200.046 138.89C199.324 138.781 198.588 138.962 198 139.394C197.412 139.827 197.02 140.475 196.91 141.196C196.8 141.918 196.982 142.653 197.415 143.241C197.848 143.828 198.496 144.22 199.218 144.33V144.32Z" fill="white"/>
<path opacity="0.5" d="M202.135 156.783C203.578 157.271 208.632 156.051 208.632 156.051C208.632 156.051 205.315 152.051 203.871 151.57C203.178 151.34 202.422 151.395 201.769 151.722C201.116 152.049 200.62 152.621 200.389 153.314C200.159 154.007 200.214 154.762 200.541 155.415C200.868 156.067 201.442 156.563 202.135 156.793V156.783Z" fill="white"/>
<path opacity="0.5" d="M198.112 190.618H218.954L224.166 158.862H192.902L198.112 190.618Z" fill="#474059"/>
<path opacity="0.1" d="M196.89 158.862L201.758 188.537H219.296L218.954 190.618H198.112L192.902 158.862H196.89Z" fill="black"/>
</g>
<path d="M202.063 9.58812H49.1626V193.908H202.063V9.58812Z" fill="url(#paint0_linear)"/>
<path d="M200.11 11.9456H51.1167V191.556H200.11V11.9456Z" fill="white"/>
<path d="M169.09 32.2005H109.004V35.1289H169.09V32.2005Z" fill="#C0BCCF"/>
<path d="M169.09 41.4738H109.004V44.4023H169.09V41.4738Z" fill="#C0BCCF"/>
<path d="M154.679 50.7472H123.415V53.6756H154.679V50.7472Z" fill="#6C63FF"/>
<path opacity="0.5" d="M169.09 91.013H109.004V93.9415H169.09V91.013Z" fill="#C0BCCF"/>
<path opacity="0.5" d="M169.09 100.286H109.004V103.215H169.09V100.286Z" fill="#C0BCCF"/>
<path opacity="0.5" d="M154.679 109.56H123.415V112.488H154.679V109.56Z" fill="#6C63FF"/>
<path opacity="0.5" d="M169.09 149.826H109.004V152.754H169.09V149.826Z" fill="#C0BCCF"/>
<path opacity="0.5" d="M169.09 159.099H109.004V162.027H169.09V159.099Z" fill="#C0BCCF"/>
<path opacity="0.5" d="M154.679 168.372H123.415V171.301H154.679V168.372Z" fill="#6C63FF"/>
<g opacity="0.5">
<path opacity="0.5" d="M87.8497 107.346L86.5894 106.78C86.6086 106.589 86.6168 106.396 86.6138 106.204C86.6226 106.042 86.6226 105.879 86.6138 105.716C86.4892 104.432 85.671 103.315 85.0921 102.141C84.5621 101.069 84.2256 99.9129 84.098 98.7245C83.9442 97.2603 84.098 95.7424 83.5607 94.366C83.1235 93.2556 82.2588 92.3283 81.3331 91.5083C80.294 90.5341 79.0799 89.7649 77.7548 89.2413C76.4017 88.7532 74.8458 88.6287 73.4927 89.1266C72.2714 89.5756 71.331 90.4712 70.4224 91.3424C69.7627 91.9232 69.1799 92.5858 68.6883 93.3142C68.1338 94.222 67.8969 95.2665 67.7113 96.2963C67.4196 97.9451 67.219 99.6087 67.1104 101.28C67.0151 102.673 66.8661 104.254 65.6742 105.108C65.0929 105.526 64.2747 105.76 64.0084 106.392C63.933 106.582 63.9029 106.787 63.9205 106.99C63.9132 107.159 63.9255 107.329 63.9571 107.495C63.9742 107.593 63.9938 107.688 64.0182 107.785C63.6761 108.635 63.3889 109.506 63.1584 110.392C62.9801 111.051 62.8165 111.697 62.6699 112.325H63.0656H63.2757L65.5521 112.378H65.5838L68.0263 112.434H68.0386L70.315 112.488H70.3711L71.0282 112.534H71.2431L80.3463 112.744H80.3952L81.0009 112.759H81.2134L83.0355 112.8L85.7223 112.861H85.7418L87.7642 112.91H87.9792H88.3944L88.2869 110.792C88.7315 107.549 87.8497 107.346 87.8497 107.346ZM77.6229 107.088C77.6229 108.884 75.6982 111.082 75.6982 111.082L73.7613 108.447L73.8322 108.344L75.6982 110.882C75.6982 110.882 77.6229 108.686 77.6229 106.887C77.6678 106.796 77.7192 106.708 77.7768 106.624L77.8208 106.761C77.7469 106.865 77.6807 106.974 77.6229 107.088ZM80.5833 114.135C80.5833 114.045 80.5833 113.952 80.5662 113.862C80.5491 113.772 80.5515 113.691 80.5393 113.603C80.5271 113.515 80.5173 113.43 80.5051 113.342C80.4929 113.254 80.4758 113.169 80.4587 113.081C80.4416 112.993 80.4245 112.908 80.405 112.82C80.405 112.791 80.3927 112.764 80.3854 112.732C80.3585 112.617 80.3292 112.503 80.2975 112.388C80.2657 112.273 80.2462 112.203 80.2169 112.112C80.2169 112.071 80.1925 112.029 80.1778 111.99C80.1631 111.951 80.1363 111.858 80.1143 111.793L80.0703 111.666C80.0508 111.61 80.0313 111.551 80.0093 111.495C79.9726 111.392 79.9336 111.292 79.8945 111.19C79.8554 111.087 79.8139 110.987 79.7723 110.887C79.6893 110.682 79.5989 110.48 79.5086 110.275C79.1544 109.484 78.7563 108.706 78.3899 107.934C78.1934 107.531 78.0189 107.117 77.8672 106.695L77.8208 106.756C77.7468 106.86 77.6806 106.971 77.6229 107.085C77.6229 108.881 75.6982 111.08 75.6982 111.08L73.7613 108.444L72.0662 110.885C71.822 111.007 71.5777 111.422 71.3872 112.012C71.3335 112.171 71.2822 112.347 71.2333 112.53C71.1992 112.654 71.1674 112.774 71.1381 112.913C71.121 112.979 71.1063 113.044 71.0917 113.113L71.0477 113.32V113.352C71.0184 113.493 70.9891 113.64 70.9622 113.789C70.9354 113.938 70.9036 114.108 70.8767 114.277C70.8572 114.383 70.8401 114.488 70.8255 114.592C70.7913 114.794 70.7619 114.999 70.7326 115.204C70.7155 115.324 70.6984 115.448 70.6838 115.558L70.6252 116.012C70.7497 116.385 70.889 116.744 71.0331 117.12C71.1247 117.317 71.1786 117.53 71.1918 117.747C74.1966 118.547 77.3587 118.547 80.3634 117.747C80.3625 117.74 80.3625 117.732 80.3634 117.725C80.3184 117.521 80.2987 117.312 80.3048 117.103C80.3542 116.516 80.4357 115.933 80.5491 115.355C80.5852 115.071 80.6007 114.784 80.5955 114.496V114.394C80.5882 114.301 80.5857 114.218 80.5833 114.138V114.135ZM80.5833 114.135C80.5833 114.045 80.5833 113.952 80.5662 113.862C80.5491 113.772 80.5515 113.691 80.5393 113.603C80.5271 113.515 80.5173 113.43 80.5051 113.342C80.4929 113.254 80.4758 113.169 80.4587 113.081C80.4416 112.993 80.4245 112.908 80.405 112.82C80.405 112.791 80.3927 112.764 80.3854 112.732C80.3585 112.617 80.3292 112.503 80.2975 112.388C80.2657 112.273 80.2462 112.203 80.2169 112.112C80.2169 112.071 80.1925 112.029 80.1778 111.99C80.1631 111.951 80.1363 111.858 80.1143 111.793L80.0703 111.666C80.0508 111.61 80.0313 111.551 80.0093 111.495C79.9726 111.392 79.9336 111.292 79.8945 111.19C79.8554 111.087 79.8139 110.987 79.7723 110.887C79.6893 110.682 79.5989 110.48 79.5086 110.275C79.1544 109.484 78.7563 108.706 78.3899 107.934C78.1934 107.531 78.0189 107.117 77.8672 106.695L77.8208 106.756C77.7468 106.86 77.6806 106.971 77.6229 107.085C77.6229 108.881 75.6982 111.08 75.6982 111.08L73.7613 108.444L72.0662 110.885C71.822 111.007 71.5777 111.422 71.3872 112.012C71.3335 112.171 71.2822 112.347 71.2333 112.53C71.1992 112.654 71.1674 112.774 71.1381 112.913C71.121 112.979 71.1063 113.044 71.0917 113.113L71.0477 113.32V113.352C71.0184 113.493 70.9891 113.64 70.9622 113.789C70.9354 113.938 70.9036 114.108 70.8767 114.277C70.8572 114.383 70.8401 114.488 70.8255 114.592C70.7913 114.794 70.7619 114.999 70.7326 115.204C70.7155 115.324 70.6984 115.448 70.6838 115.558L70.6252 116.012C70.7497 116.385 70.889 116.744 71.0331 117.12C71.1247 117.317 71.1786 117.53 71.1918 117.747C74.1966 118.547 77.3587 118.547 80.3634 117.747C80.3625 117.74 80.3625 117.732 80.3634 117.725C80.3184 117.521 80.2987 117.312 80.3048 117.103C80.3542 116.516 80.4357 115.933 80.5491 115.355C80.5852 115.071 80.6007 114.784 80.5955 114.496V114.394C80.5882 114.301 80.5857 114.218 80.5833 114.138V114.135ZM80.5833 114.135C80.5833 114.045 80.5833 113.952 80.5662 113.862C80.5491 113.772 80.5515 113.691 80.5393 113.603C80.5271 113.515 80.5173 113.43 80.5051 113.342C80.4929 113.254 80.4758 113.169 80.4587 113.081C80.4416 112.993 80.4245 112.908 80.405 112.82C80.405 112.791 80.3927 112.764 80.3854 112.732C80.3585 112.617 80.3292 112.503 80.2975 112.388C80.2657 112.273 80.2462 112.203 80.2169 112.112C80.2169 112.071 80.1925 112.029 80.1778 111.99C80.1631 111.951 80.1363 111.858 80.1143 111.793L80.0703 111.666C80.0508 111.61 80.0313 111.551 80.0093 111.495C79.9726 111.392 79.9336 111.292 79.8945 111.19C79.8554 111.087 79.8139 110.987 79.7723 110.887C79.6893 110.682 79.5989 110.48 79.5086 110.275C79.1544 109.484 78.7563 108.706 78.3899 107.934C78.1934 107.531 78.0189 107.117 77.8672 106.695L77.8208 106.756C77.7468 106.86 77.6806 106.971 77.6229 107.085C77.6229 108.881 75.6982 111.08 75.6982 111.08L73.7613 108.444L72.0662 110.885C71.822 111.007 71.5777 111.422 71.3872 112.012C71.3335 112.171 71.2822 112.347 71.2333 112.53C71.1992 112.654 71.1674 112.774 71.1381 112.913C71.121 112.979 71.1063 113.044 71.0917 113.113L71.0477 113.32V113.352C71.0184 113.493 70.9891 113.64 70.9622 113.789C70.9354 113.938 70.9036 114.108 70.8767 114.277C70.8572 114.383 70.8401 114.488 70.8255 114.592C70.7913 114.794 70.7619 114.999 70.7326 115.204C70.7155 115.324 70.6984 115.448 70.6838 115.558L70.6252 116.012C70.7497 116.385 70.889 116.744 71.0331 117.12C71.1247 117.317 71.1786 117.53 71.1918 117.747C74.1966 118.547 77.3587 118.547 80.3634 117.747C80.3625 117.74 80.3625 117.732 80.3634 117.725C80.3184 117.521 80.2987 117.312 80.3048 117.103C80.3542 116.516 80.4357 115.933 80.5491 115.355C80.5852 115.071 80.6007 114.784 80.5955 114.496V114.394C80.5882 114.301 80.5857 114.218 80.5833 114.138V114.135ZM80.5833 114.135C80.5833 114.045 80.5833 113.952 80.5662 113.862C80.5491 113.772 80.5515 113.691 80.5393 113.603C80.5271 113.515 80.5173 113.43 80.5051 113.342C80.4929 113.254 80.4758 113.169 80.4587 113.081C80.4416 112.993 80.4245 112.908 80.405 112.82C80.405 112.791 80.3927 112.764 80.3854 112.732C80.3585 112.617 80.3292 112.503 80.2975 112.388C80.2657 112.273 80.2462 112.203 80.2169 112.112C80.2169 112.071 80.1925 112.029 80.1778 111.99C80.1631 111.951 80.1363 111.858 80.1143 111.793L80.0703 111.666C80.0508 111.61 80.0313 111.551 80.0093 111.495C79.9726 111.392 79.9336 111.292 79.8945 111.19C79.8554 111.087 79.8139 110.987 79.7723 110.887C79.6893 110.682 79.5989 110.48 79.5086 110.275C79.1544 109.484 78.7563 108.706 78.3899 107.934C78.1934 107.531 78.0189 107.117 77.8672 106.695L77.8208 106.756C77.7468 106.86 77.6806 106.971 77.6229 107.085C77.6229 108.881 75.6982 111.08 75.6982 111.08L73.7613 108.444L72.0662 110.885C71.822 111.007 71.5777 111.422 71.3872 112.012C71.3335 112.171 71.2822 112.347 71.2333 112.53C71.1992 112.654 71.1674 112.774 71.1381 112.913C71.121 112.979 71.1063 113.044 71.0917 113.113L71.0477 113.32V113.352C71.0184 113.493 70.9891 113.64 70.9622 113.789C70.9354 113.938 70.9036 114.108 70.8767 114.277C70.8572 114.383 70.8401 114.488 70.8255 114.592C70.7913 114.794 70.7619 114.999 70.7326 115.204C70.7155 115.324 70.6984 115.448 70.6838 115.558L70.6252 116.012C70.7497 116.385 70.889 116.744 71.0331 117.12C71.1247 117.317 71.1786 117.53 71.1918 117.747C74.1966 118.547 77.3587 118.547 80.3634 117.747C80.3625 117.74 80.3625 117.732 80.3634 117.725C80.3184 117.521 80.2987 117.312 80.3048 117.103C80.3542 116.516 80.4357 115.933 80.5491 115.355C80.5852 115.071 80.6007 114.784 80.5955 114.496V114.394C80.5882 114.301 80.5857 114.218 80.5833 114.138V114.135Z" fill="url(#paint1_linear)"/>
<path opacity="0.5" d="M80.6711 97.1139H69.4355V104.679H80.6711V97.1139Z" fill="#493545"/>
<path opacity="0.5" d="M82.5371 105.457L77.8353 112.076L72.921 111.649C72.921 111.649 66.5094 112.073 70.7838 107.166C72.8379 104.806 73.5096 102.839 73.6537 101.436C73.81 99.9178 73.3484 99.054 73.3484 99.054L78.6902 98.4146C78.4491 99.1337 78.4186 99.9067 78.6022 100.643C79.2715 103.415 82.5371 105.457 82.5371 105.457Z" fill="#C77485"/>
<path opacity="0.1" d="M78.6 100.635C77.9033 101.162 77.0878 101.511 76.225 101.649C75.3622 101.788 74.4785 101.713 73.6515 101.431C73.8078 99.913 73.3462 99.0491 73.3462 99.0491L78.6879 98.4097C78.4474 99.1281 78.4169 99.9002 78.6 100.635Z" fill="black"/>
<path opacity="0.5" d="M75.3784 101.504C78.3286 101.504 80.7201 99.1145 80.7201 96.167C80.7201 93.2194 78.3286 90.8299 75.3784 90.8299C72.4282 90.8299 70.0366 93.2194 70.0366 96.167C70.0366 99.1145 72.4282 101.504 75.3784 101.504Z" fill="#C77485"/>
<path opacity="0.1" d="M82.342 105.731L82.2174 105.243L82.1099 104.813L81.9511 104.179L81.9218 104.062L81.8974 103.964C81.8974 103.964 82.0244 103.581 81.1866 103.705L81.0303 103.732C80.8984 103.759 80.7446 103.796 80.5687 103.844L80.4099 103.893L80.1999 103.959C79.5348 104.175 78.9283 104.541 78.4266 105.028C78.2014 105.243 78.0022 105.484 77.8331 105.745C77.816 105.77 77.8038 105.792 77.7891 105.811C77.7313 105.902 77.6799 105.997 77.6352 106.094C77.6352 108.017 75.7105 110.365 75.7105 110.365L73.8323 107.654L73.7956 107.6L73.3486 106.951L73.1899 106.741L73.1361 106.668L72.1591 105.357L71.9149 105.03L71.8343 104.921L71.7146 104.762L71.4337 104.389L70.3346 105.03L68.8691 105.884L68.0142 111.436V111.59L68.0411 112.049L68.2194 115.065V115.107L67.9067 116.356L67.9531 116.38C68.6909 116.778 69.4585 117.117 70.2491 117.396L70.4567 117.469C70.701 117.549 70.9306 117.623 71.1699 117.693C71.1788 117.729 71.1853 117.766 71.1895 117.803C71.1895 117.769 71.1895 117.732 71.1895 117.698C74.1867 118.554 77.3639 118.554 80.3611 117.698L80.4173 117.681C80.5565 117.642 80.6981 117.601 80.8349 117.554L81.0572 117.483C81.6599 117.282 82.2504 117.046 82.8256 116.776L83.0307 112.408L83.1773 109.257V109.076L82.342 105.731Z" fill="black"/>
<path opacity="0.5" d="M80.5833 113.845C80.5833 113.747 80.5833 113.65 80.5662 113.552C80.5491 113.454 80.5516 113.369 80.5394 113.276C80.5272 113.184 80.5174 113.091 80.5052 112.998C80.493 112.905 80.4759 112.813 80.4588 112.72C80.4417 112.627 80.4246 112.534 80.405 112.442C80.405 112.41 80.3928 112.381 80.3855 112.349C80.3586 112.227 80.3293 112.105 80.2976 111.981C80.2658 111.856 80.2463 111.783 80.217 111.685C80.217 111.641 80.1925 111.597 80.1779 111.556C80.1632 111.514 80.1364 111.414 80.1144 111.344L80.0704 111.207C80.0509 111.146 80.0313 111.085 80.0093 111.024C79.9727 110.914 79.9336 110.807 79.8945 110.697C79.8555 110.587 79.8139 110.48 79.7724 110.372C79.6894 110.153 79.599 109.936 79.5086 109.718C79.1545 108.874 78.7563 108.042 78.39 107.217C78.1931 106.785 78.0186 106.342 77.8673 105.892L77.8209 105.958C77.7466 106.07 77.6805 106.187 77.623 106.309C77.623 108.23 75.6983 110.58 75.6983 110.58L73.7614 107.761L72.0663 110.365C71.8221 110.494 71.5778 110.938 71.3873 111.571C71.3336 111.741 71.2823 111.927 71.2334 112.125C71.1992 112.256 71.1675 112.395 71.1382 112.534C71.1211 112.605 71.1064 112.676 71.0917 112.749L71.0478 112.971V113.005C71.0185 113.157 70.9892 113.313 70.9623 113.472C70.9354 113.63 70.9037 113.813 70.8768 113.986C70.8573 114.099 70.8402 114.211 70.8255 114.323C70.7913 114.54 70.762 114.76 70.7327 114.977C70.7156 115.104 70.6985 115.221 70.6838 115.356L70.6252 115.844C70.7498 116.244 70.889 116.639 71.0331 117.027C71.1252 117.24 71.1789 117.467 71.1919 117.698C74.1891 118.554 77.3663 118.554 80.3635 117.698C80.3624 117.69 80.3624 117.682 80.3635 117.674C80.3184 117.455 80.2987 117.231 80.3049 117.008C80.3542 116.382 80.4357 115.758 80.5491 115.141C80.5852 114.836 80.6007 114.53 80.5955 114.223V114.113C80.5882 114.021 80.5858 113.933 80.5833 113.845ZM80.5833 113.845C80.5833 113.747 80.5833 113.65 80.5662 113.552C80.5491 113.454 80.5516 113.369 80.5394 113.276C80.5272 113.184 80.5174 113.091 80.5052 112.998C80.493 112.905 80.4759 112.813 80.4588 112.72C80.4417 112.627 80.4246 112.534 80.405 112.442C80.405 112.41 80.3928 112.381 80.3855 112.349C80.3586 112.227 80.3293 112.105 80.2976 111.981C80.2658 111.856 80.2463 111.783 80.217 111.685C80.217 111.641 80.1925 111.597 80.1779 111.556C80.1632 111.514 80.1364 111.414 80.1144 111.344L80.0704 111.207C80.0509 111.146 80.0313 111.085 80.0093 111.024C79.9727 110.914 79.9336 110.807 79.8945 110.697C79.8555 110.587 79.8139 110.48 79.7724 110.372C79.6894 110.153 79.599 109.936 79.5086 109.718C79.1545 108.874 78.7563 108.042 78.39 107.217C78.1931 106.785 78.0186 106.342 77.8673 105.892L77.8209 105.958C77.7466 106.07 77.6805 106.187 77.623 106.309C77.623 108.23 75.6983 110.58 75.6983 110.58L73.7614 107.761L72.0663 110.365C71.8221 110.494 71.5778 110.938 71.3873 111.571C71.3336 111.741 71.2823 111.927 71.2334 112.125C71.1992 112.256 71.1675 112.395 71.1382 112.534C71.1211 112.605 71.1064 112.676 71.0917 112.749L71.0478 112.971V113.005C71.0185 113.157 70.9892 113.313 70.9623 113.472C70.9354 113.63 70.9037 113.813 70.8768 113.986C70.8573 114.099 70.8402 114.211 70.8255 114.323C70.7913 114.54 70.762 114.76 70.7327 114.977C70.7156 115.104 70.6985 115.221 70.6838 115.356L70.6252 115.844C70.7498 116.244 70.889 116.639 71.0331 117.027C71.1252 117.24 71.1789 117.467 71.1919 117.698C74.1891 118.554 77.3663 118.554 80.3635 117.698C80.3624 117.69 80.3624 117.682 80.3635 117.674C80.3184 117.455 80.2987 117.231 80.3049 117.008C80.3542 116.382 80.4357 115.758 80.5491 115.141C80.5852 114.836 80.6007 114.53 80.5955 114.223V114.113C80.5882 114.021 80.5858 113.933 80.5833 113.845ZM80.5833 113.845C80.5833 113.747 80.5833 113.65 80.5662 113.552C80.5491 113.454 80.5516 113.369 80.5394 113.276C80.5272 113.184 80.5174 113.091 80.5052 112.998C80.493 112.905 80.4759 112.813 80.4588 112.72C80.4417 112.627 80.4246 112.534 80.405 112.442C80.405 112.41 80.3928 112.381 80.3855 112.349C80.3586 112.227 80.3293 112.105 80.2976 111.981C80.2658 111.856 80.2463 111.783 80.217 111.685C80.217 111.641 80.1925 111.597 80.1779 111.556C80.1632 111.514 80.1364 111.414 80.1144 111.344L80.0704 111.207C80.0509 111.146 80.0313 111.085 80.0093 111.024C79.9727 110.914 79.9336 110.807 79.8945 110.697C79.8555 110.587 79.8139 110.48 79.7724 110.372C79.6894 110.153 79.599 109.936 79.5086 109.718C79.1545 108.874 78.7563 108.042 78.39 107.217C78.1931 106.785 78.0186 106.342 77.8673 105.892L77.8209 105.958C77.7466 106.07 77.6805 106.187 77.623 106.309C77.623 108.23 75.6983 110.58 75.6983 110.58L73.7614 107.761L72.0663 110.365C71.8221 110.494 71.5778 110.938 71.3873 111.571C71.3336 111.741 71.2823 111.927 71.2334 112.125C71.1992 112.256 71.1675 112.395 71.1382 112.534C71.1211 112.605 71.1064 112.676 71.0917 112.749L71.0478 112.971V113.005C71.0185 113.157 70.9892 113.313 70.9623 113.472C70.9354 113.63 70.9037 113.813 70.8768 113.986C70.8573 114.099 70.8402 114.211 70.8255 114.323C70.7913 114.54 70.762 114.76 70.7327 114.977C70.7156 115.104 70.6985 115.221 70.6838 115.356L70.6252 115.844C70.7498 116.244 70.889 116.639 71.0331 117.027C71.1252 117.24 71.1789 117.467 71.1919 117.698C74.1891 118.554 77.3663 118.554 80.3635 117.698C80.3624 117.69 80.3624 117.682 80.3635 117.674C80.3184 117.455 80.2987 117.231 80.3049 117.008C80.3542 116.382 80.4357 115.758 80.5491 115.141C80.5852 114.836 80.6007 114.53 80.5955 114.223V114.113C80.5882 114.021 80.5858 113.933 80.5833 113.845ZM83.1724 109.264L82.3004 105.787L82.1514 105.191L82.1099 105.028L81.8974 104.179C81.8979 104.171 81.8979 104.164 81.8974 104.157C81.9025 104.119 81.8965 104.081 81.8803 104.047C81.8485 103.983 81.7679 103.918 81.5799 103.901C81.5083 103.895 81.4365 103.895 81.3649 103.901C81.1527 103.922 80.9427 103.961 80.7372 104.018C80.6371 104.044 80.5296 104.074 80.4148 104.11L80.2047 104.176H80.1852C79.6226 104.361 79.1004 104.651 78.6464 105.03C78.3465 105.28 78.0834 105.571 77.8648 105.894L77.8184 105.96C77.7441 106.072 77.678 106.19 77.6206 106.312C77.6206 108.232 75.6959 110.582 75.6959 110.582L73.759 107.764L73.6491 107.605L73.6295 107.578L73.3486 107.166L73.1361 106.883L73.0799 106.809L72.0785 105.475L71.761 105.043V105.028L71.6511 104.879L71.441 104.601L70.7083 105.028L68.8764 106.094L68.0313 111.588V111.646L68.0557 112.046L68.2365 115.104V115.277L67.9604 116.378C68.6982 116.776 69.4658 117.115 70.2564 117.393L70.464 117.466C70.7083 117.547 70.9379 117.62 71.1772 117.691C71.1861 117.727 71.1926 117.764 71.1968 117.801C71.1968 117.767 71.1968 117.73 71.1968 117.696C74.194 118.552 77.3712 118.552 80.3684 117.696L80.4246 117.679C80.5638 117.64 80.7055 117.598 80.8422 117.552L81.0645 117.481C81.6672 117.28 82.2577 117.043 82.8329 116.773L83.0356 112.41L83.1822 109.294L83.1724 109.264ZM71.1601 117.691C71.169 117.727 71.1755 117.764 71.1797 117.801C71.1797 117.767 71.1797 117.73 71.1797 117.696L71.1601 117.691ZM80.5833 113.845C80.5833 113.747 80.5833 113.65 80.5662 113.552C80.5491 113.454 80.5516 113.369 80.5394 113.276C80.5272 113.184 80.5174 113.091 80.5052 112.998C80.493 112.905 80.4759 112.813 80.4588 112.72C80.4417 112.627 80.4246 112.534 80.405 112.442C80.405 112.41 80.3928 112.381 80.3855 112.349C80.3586 112.227 80.3293 112.105 80.2976 111.981C80.2658 111.856 80.2463 111.783 80.217 111.685C80.217 111.641 80.1925 111.597 80.1779 111.556C80.1632 111.514 80.1364 111.414 80.1144 111.344L80.0704 111.207C80.0509 111.146 80.0313 111.085 80.0093 111.024C79.9727 110.914 79.9336 110.807 79.8945 110.697C79.8555 110.587 79.8139 110.48 79.7724 110.372C79.6894 110.153 79.599 109.936 79.5086 109.718C79.1545 108.874 78.7563 108.042 78.39 107.217C78.1931 106.785 78.0186 106.342 77.8673 105.892L77.8209 105.958C77.7466 106.07 77.6805 106.187 77.623 106.309C77.623 108.23 75.6983 110.58 75.6983 110.58L73.7614 107.761L72.0663 110.365C71.8221 110.494 71.5778 110.938 71.3873 111.571C71.3336 111.741 71.2823 111.927 71.2334 112.125C71.1992 112.256 71.1675 112.395 71.1382 112.534C71.1211 112.605 71.1064 112.676 71.0917 112.749L71.0478 112.971V113.005C71.0185 113.157 70.9892 113.313 70.9623 113.472C70.9354 113.63 70.9037 113.813 70.8768 113.986C70.8573 114.099 70.8402 114.211 70.8255 114.323C70.7913 114.54 70.762 114.76 70.7327 114.977C70.7156 115.104 70.6985 115.221 70.6838 115.356L70.6252 115.844C70.7498 116.244 70.889 116.639 71.0331 117.027C71.1252 117.24 71.1789 117.467 71.1919 117.698C74.1891 118.554 77.3663 118.554 80.3635 117.698C80.3624 117.69 80.3624 117.682 80.3635 117.674C80.3184 117.455 80.2987 117.231 80.3049 117.008C80.3542 116.382 80.4357 115.758 80.5491 115.141C80.5852 114.836 80.6007 114.53 80.5955 114.223V114.113C80.5882 114.021 80.5858 113.933 80.5833 113.845ZM80.5833 113.845C80.5833 113.747 80.5833 113.65 80.5662 113.552C80.5491 113.454 80.5516 113.369 80.5394 113.276C80.5272 113.184 80.5174 113.091 80.5052 112.998C80.493 112.905 80.4759 112.813 80.4588 112.72C80.4417 112.627 80.4246 112.534 80.405 112.442C80.405 112.41 80.3928 112.381 80.3855 112.349C80.3586 112.227 80.3293 112.105 80.2976 111.981C80.2658 111.856 80.2463 111.783 80.217 111.685C80.217 111.641 80.1925 111.597 80.1779 111.556C80.1632 111.514 80.1364 111.414 80.1144 111.344L80.0704 111.207C80.0509 111.146 80.0313 111.085 80.0093 111.024C79.9727 110.914 79.9336 110.807 79.8945 110.697C79.8555 110.587 79.8139 110.48 79.7724 110.372C79.6894 110.153 79.599 109.936 79.5086 109.718C79.1545 108.874 78.7563 108.042 78.39 107.217C78.1931 106.785 78.0186 106.342 77.8673 105.892L77.8209 105.958C77.7466 106.07 77.6805 106.187 77.623 106.309C77.623 108.23 75.6983 110.58 75.6983 110.58L73.7614 107.761L72.0663 110.365C71.8221 110.494 71.5778 110.938 71.3873 111.571C71.3336 111.741 71.2823 111.927 71.2334 112.125C71.1992 112.256 71.1675 112.395 71.1382 112.534C71.1211 112.605 71.1064 112.676 71.0917 112.749L71.0478 112.971V113.005C71.0185 113.157 70.9892 113.313 70.9623 113.472C70.9354 113.63 70.9037 113.813 70.8768 113.986C70.8573 114.099 70.8402 114.211 70.8255 114.323C70.7913 114.54 70.762 114.76 70.7327 114.977C70.7156 115.104 70.6985 115.221 70.6838 115.356L70.6252 115.844C70.7498 116.244 70.889 116.639 71.0331 117.027C71.1252 117.24 71.1789 117.467 71.1919 117.698C74.1891 118.554 77.3663 118.554 80.3635 117.698C80.3624 117.69 80.3624 117.682 80.3635 117.674C80.3184 117.455 80.2987 117.231 80.3049 117.008C80.3542 116.382 80.4357 115.758 80.5491 115.141C80.5852 114.836 80.6007 114.53 80.5955 114.223V114.113C80.5882 114.021 80.5858 113.933 80.5833 113.845ZM80.5833 113.845C80.5833 113.747 80.5833 113.65 80.5662 113.552C80.5491 113.454 80.5516 113.369 80.5394 113.276C80.5272 113.184 80.5174 113.091 80.5052 112.998C80.493 112.905 80.4759 112.813 80.4588 112.72C80.4417 112.627 80.4246 112.534 80.405 112.442C80.405 112.41 80.3928 112.381 80.3855 112.349C80.3586 112.227 80.3293 112.105 80.2976 111.981C80.2658 111.856 80.2463 111.783 80.217 111.685C80.217 111.641 80.1925 111.597 80.1779 111.556C80.1632 111.514 80.1364 111.414 80.1144 111.344L80.0704 111.207C80.0509 111.146 80.0313 111.085 80.0093 111.024C79.9727 110.914 79.9336 110.807 79.8945 110.697C79.8555 110.587 79.8139 110.48 79.7724 110.372C79.6894 110.153 79.599 109.936 79.5086 109.718C79.1545 108.874 78.7563 108.042 78.39 107.217C78.1931 106.785 78.0186 106.342 77.8673 105.892L77.8209 105.958C77.7466 106.07 77.6805 106.187 77.623 106.309C77.623 108.23 75.6983 110.58 75.6983 110.58L73.7614 107.761L72.0663 110.365C71.8221 110.494 71.5778 110.938 71.3873 111.571C71.3336 111.741 71.2823 111.927 71.2334 112.125C71.1992 112.256 71.1675 112.395 71.1382 112.534C71.1211 112.605 71.1064 112.676 71.0917 112.749L71.0478 112.971V113.005C71.0185 113.157 70.9892 113.313 70.9623 113.472C70.9354 113.63 70.9037 113.813 70.8768 113.986C70.8573 114.099 70.8402 114.211 70.8255 114.323C70.7913 114.54 70.762 114.76 70.7327 114.977C70.7156 115.104 70.6985 115.221 70.6838 115.356L70.6252 115.844C70.7498 116.244 70.889 116.639 71.0331 117.027C71.1252 117.24 71.1789 117.467 71.1919 117.698C74.1891 118.554 77.3663 118.554 80.3635 117.698C80.3624 117.69 80.3624 117.682 80.3635 117.674C80.3184 117.455 80.2987 117.231 80.3049 117.008C80.3542 116.382 80.4357 115.758 80.5491 115.141C80.5852 114.836 80.6007 114.53 80.5955 114.223V114.113C80.5882 114.021 80.5858 113.933 80.5833 113.845ZM80.5833 113.845C80.5833 113.747 80.5833 113.65 80.5662 113.552C80.5491 113.454 80.5516 113.369 80.5394 113.276C80.5272 113.184 80.5174 113.091 80.5052 112.998C80.493 112.905 80.4759 112.813 80.4588 112.72C80.4417 112.627 80.4246 112.534 80.405 112.442C80.405 112.41 80.3928 112.381 80.3855 112.349C80.3586 112.227 80.3293 112.105 80.2976 111.981C80.2658 111.856 80.2463 111.783 80.217 111.685C80.217 111.641 80.1925 111.597 80.1779 111.556C80.1632 111.514 80.1364 111.414 80.1144 111.344L80.0704 111.207C80.0509 111.146 80.0313 111.085 80.0093 111.024C79.9727 110.914 79.9336 110.807 79.8945 110.697C79.8555 110.587 79.8139 110.48 79.7724 110.372C79.6894 110.153 79.599 109.936 79.5086 109.718C79.1545 108.874 78.7563 108.042 78.39 107.217C78.1931 106.785 78.0186 106.342 77.8673 105.892L77.8209 105.958C77.7466 106.07 77.6805 106.187 77.623 106.309C77.623 108.23 75.6983 110.58 75.6983 110.58L73.7614 107.761L72.0663 110.365C71.8221 110.494 71.5778 110.938 71.3873 111.571C71.3336 111.741 71.2823 111.927 71.2334 112.125C71.1992 112.256 71.1675 112.395 71.1382 112.534C71.1211 112.605 71.1064 112.676 71.0917 112.749L71.0478 112.971V113.005C71.0185 113.157 70.9892 113.313 70.9623 113.472C70.9354 113.63 70.9037 113.813 70.8768 113.986C70.8573 114.099 70.8402 114.211 70.8255 114.323C70.7913 114.54 70.762 114.76 70.7327 114.977C70.7156 115.104 70.6985 115.221 70.6838 115.356L70.6252 115.844C70.7498 116.244 70.889 116.639 71.0331 117.027C71.1252 117.24 71.1789 117.467 71.1919 117.698C74.1891 118.554 77.3663 118.554 80.3635 117.698C80.3624 117.69 80.3624 117.682 80.3635 117.674C80.3184 117.455 80.2987 117.231 80.3049 117.008C80.3542 116.382 80.4357 115.758 80.5491 115.141C80.5852 114.836 80.6007 114.53 80.5955 114.223V114.113C80.5882 114.021 80.5858 113.933 80.5833 113.845ZM80.5833 113.845C80.5833 113.747 80.5833 113.65 80.5662 113.552C80.5491 113.454 80.5516 113.369 80.5394 113.276C80.5272 113.184 80.5174 113.091 80.5052 112.998C80.493 112.905 80.4759 112.813 80.4588 112.72C80.4417 112.627 80.4246 112.534 80.405 112.442C80.405 112.41 80.3928 112.381 80.3855 112.349C80.3586 112.227 80.3293 112.105 80.2976 111.981C80.2658 111.856 80.2463 111.783 80.217 111.685C80.217 111.641 80.1925 111.597 80.1779 111.556C80.1632 111.514 80.1364 111.414 80.1144 111.344L80.0704 111.207C80.0509 111.146 80.0313 111.085 80.0093 111.024C79.9727 110.914 79.9336 110.807 79.8945 110.697C79.8555 110.587 79.8139 110.48 79.7724 110.372C79.6894 110.153 79.599 109.936 79.5086 109.718C79.1545 108.874 78.7563 108.042 78.39 107.217C78.1931 106.785 78.0186 106.342 77.8673 105.892L77.8209 105.958C77.7466 106.07 77.6805 106.187 77.623 106.309C77.623 108.23 75.6983 110.58 75.6983 110.58L73.7614 107.761L72.0663 110.365C71.8221 110.494 71.5778 110.938 71.3873 111.571C71.3336 111.741 71.2823 111.927 71.2334 112.125C71.1992 112.256 71.1675 112.395 71.1382 112.534C71.1211 112.605 71.1064 112.676 71.0917 112.749L71.0478 112.971V113.005C71.0185 113.157 70.9892 113.313 70.9623 113.472C70.9354 113.63 70.9037 113.813 70.8768 113.986C70.8573 114.099 70.8402 114.211 70.8255 114.323C70.7913 114.54 70.762 114.76 70.7327 114.977C70.7156 115.104 70.6985 115.221 70.6838 115.356L70.6252 115.844C70.7498 116.244 70.889 116.639 71.0331 117.027C71.1252 117.24 71.1789 117.467 71.1919 117.698C74.1891 118.554 77.3663 118.554 80.3635 117.698C80.3624 117.69 80.3624 117.682 80.3635 117.674C80.3184 117.455 80.2987 117.231 80.3049 117.008C80.3542 116.382 80.4357 115.758 80.5491 115.141C80.5852 114.836 80.6007 114.53 80.5955 114.223V114.113C80.5882 114.021 80.5858 113.933 80.5833 113.845ZM80.5833 113.845C80.5833 113.747 80.5833 113.65 80.5662 113.552C80.5491 113.454 80.5516 113.369 80.5394 113.276C80.5272 113.184 80.5174 113.091 80.5052 112.998C80.493 112.905 80.4759 112.813 80.4588 112.72C80.4417 112.627 80.4246 112.534 80.405 112.442C80.405 112.41 80.3928 112.381 80.3855 112.349C80.3586 112.227 80.3293 112.105 80.2976 111.981C80.2658 111.856 80.2463 111.783 80.217 111.685C80.217 111.641 80.1925 111.597 80.1779 111.556C80.1632 111.514 80.1364 111.414 80.1144 111.344L80.0704 111.207C80.0509 111.146 80.0313 111.085 80.0093 111.024C79.9727 110.914 79.9336 110.807 79.8945 110.697C79.8555 110.587 79.8139 110.48 79.7724 110.372C79.6894 110.153 79.599 109.936 79.5086 109.718C79.1545 108.874 78.7563 108.042 78.39 107.217C78.1931 106.785 78.0186 106.342 77.8673 105.892L77.8209 105.958C77.7466 106.07 77.6805 106.187 77.623 106.309C77.623 108.23 75.6983 110.58 75.6983 110.58L73.7614 107.761L72.0663 110.365C71.8221 110.494 71.5778 110.938 71.3873 111.571C71.3336 111.741 71.2823 111.927 71.2334 112.125C71.1992 112.256 71.1675 112.395 71.1382 112.534C71.1211 112.605 71.1064 112.676 71.0917 112.749L71.0478 112.971V113.005C71.0185 113.157 70.9892 113.313 70.9623 113.472C70.9354 113.63 70.9037 113.813 70.8768 113.986C70.8573 114.099 70.8402 114.211 70.8255 114.323C70.7913 114.54 70.762 114.76 70.7327 114.977C70.7156 115.104 70.6985 115.221 70.6838 115.356L70.6252 115.844C70.7498 116.244 70.889 116.639 71.0331 117.027C71.1252 117.24 71.1789 117.467 71.1919 117.698C74.1891 118.554 77.3663 118.554 80.3635 117.698C80.3624 117.69 80.3624 117.682 80.3635 117.674C80.3184 117.455 80.2987 117.231 80.3049 117.008C80.3542 116.382 80.4357 115.758 80.5491 115.141C80.5852 114.836 80.6007 114.53 80.5955 114.223V114.113C80.5882 114.021 80.5858 113.933 80.5833 113.845ZM80.5833 113.845C80.5833 113.747 80.5833 113.65 80.5662 113.552C80.5491 113.454 80.5516 113.369 80.5394 113.276C80.5272 113.184 80.5174 113.091 80.5052 112.998C80.493 112.905 80.4759 112.813 80.4588 112.72C80.4417 112.627 80.4246 112.534 80.405 112.442C80.405 112.41 80.3928 112.381 80.3855 112.349C80.3586 112.227 80.3293 112.105 80.2976 111.981C80.2658 111.856 80.2463 111.783 80.217 111.685C80.217 111.641 80.1925 111.597 80.1779 111.556C80.1632 111.514 80.1364 111.414 80.1144 111.344L80.0704 111.207C80.0509 111.146 80.0313 111.085 80.0093 111.024C79.9727 110.914 79.9336 110.807 79.8945 110.697C79.8555 110.587 79.8139 110.48 79.7724 110.372C79.6894 110.153 79.599 109.936 79.5086 109.718C79.1545 108.874 78.7563 108.042 78.39 107.217C78.1931 106.785 78.0186 106.342 77.8673 105.892L77.8209 105.958C77.7466 106.07 77.6805 106.187 77.623 106.309C77.623 108.23 75.6983 110.58 75.6983 110.58L73.7614 107.761L72.0663 110.365C71.8221 110.494 71.5778 110.938 71.3873 111.571C71.3336 111.741 71.2823 111.927 71.2334 112.125C71.1992 112.256 71.1675 112.395 71.1382 112.534C71.1211 112.605 71.1064 112.676 71.0917 112.749L71.0478 112.971V113.005C71.0185 113.157 70.9892 113.313 70.9623 113.472C70.9354 113.63 70.9037 113.813 70.8768 113.986C70.8573 114.099 70.8402 114.211 70.8255 114.323C70.7913 114.54 70.762 114.76 70.7327 114.977C70.7156 115.104 70.6985 115.221 70.6838 115.356L70.6252 115.844C70.7498 116.244 70.889 116.639 71.0331 117.027C71.1252 117.24 71.1789 117.467 71.1919 117.698C74.1891 118.554 77.3663 118.554 80.3635 117.698C80.3624 117.69 80.3624 117.682 80.3635 117.674C80.3184 117.455 80.2987 117.231 80.3049 117.008C80.3542 116.382 80.4357 115.758 80.5491 115.141C80.5852 114.836 80.6007 114.53 80.5955 114.223V114.113C80.5882 114.021 80.5858 113.933 80.5833 113.845ZM80.5833 113.845C80.5833 113.747 80.5833 113.65 80.5662 113.552C80.5491 113.454 80.5516 113.369 80.5394 113.276C80.5272 113.184 80.5174 113.091 80.5052 112.998C80.493 112.905 80.4759 112.813 80.4588 112.72C80.4417 112.627 80.4246 112.534 80.405 112.442C80.405 112.41 80.3928 112.381 80.3855 112.349C80.3586 112.227 80.3293 112.105 80.2976 111.981C80.2658 111.856 80.2463 111.783 80.217 111.685C80.217 111.641 80.1925 111.597 80.1779 111.556C80.1632 111.514 80.1364 111.414 80.1144 111.344L80.0704 111.207C80.0509 111.146 80.0313 111.085 80.0093 111.024C79.9727 110.914 79.9336 110.807 79.8945 110.697C79.8555 110.587 79.8139 110.48 79.7724 110.372C79.6894 110.153 79.599 109.936 79.5086 109.718C79.1545 108.874 78.7563 108.042 78.39 107.217C78.1931 106.785 78.0186 106.342 77.8673 105.892L77.8209 105.958C77.7466 106.07 77.6805 106.187 77.623 106.309C77.623 108.23 75.6983 110.58 75.6983 110.58L73.7614 107.761L72.0663 110.365C71.8221 110.494 71.5778 110.938 71.3873 111.571C71.3336 111.741 71.2823 111.927 71.2334 112.125C71.1992 112.256 71.1675 112.395 71.1382 112.534C71.1211 112.605 71.1064 112.676 71.0917 112.749L71.0478 112.971V113.005C71.0185 113.157 70.9892 113.313 70.9623 113.472C70.9354 113.63 70.9037 113.813 70.8768 113.986C70.8573 114.099 70.8402 114.211 70.8255 114.323C70.7913 114.54 70.762 114.76 70.7327 114.977C70.7156 115.104 70.6985 115.221 70.6838 115.356L70.6252 115.844C70.7498 116.244 70.889 116.639 71.0331 117.027C71.1252 117.24 71.1789 117.467 71.1919 117.698C74.1891 118.554 77.3663 118.554 80.3635 117.698C80.3624 117.69 80.3624 117.682 80.3635 117.674C80.3184 117.455 80.2987 117.231 80.3049 117.008C80.3542 116.382 80.4357 115.758 80.5491 115.141C80.5852 114.836 80.6007 114.53 80.5955 114.223V114.113C80.5882 114.021 80.5858 113.933 80.5833 113.845Z" fill="white"/>
<path opacity="0.1" d="M73.7953 107.598L73.6317 107.576C73.3846 107.542 73.1399 107.493 72.8989 107.429L72.8086 107.405C72.2126 107.236 71.5604 106.934 71.4139 106.402C71.3702 106.231 71.3753 106.051 71.4285 105.882C71.5105 105.592 71.6218 105.31 71.7607 105.043V105.028C71.7791 104.99 71.7995 104.954 71.8218 104.918C72.0233 104.525 72.3281 104.193 72.7035 103.959L72.4104 104.005L69.9288 104.408L66.0819 105.028C66.0819 105.028 65.398 104.891 64.4674 107.454C64.4674 107.485 64.4454 107.515 64.4356 107.549C64.2109 108.176 63.974 108.959 63.7298 109.938C63.5612 110.616 63.4073 111.283 63.2657 111.929C63.2242 112.124 63.1826 112.317 63.1436 112.508C63.5839 113.026 64.058 113.515 64.5627 113.972L64.6433 114.047C65.6317 114.942 66.724 115.714 67.8967 116.349L67.9431 116.373C68.6808 116.771 69.4484 117.11 70.239 117.388L70.4467 117.462C70.4906 117.01 70.5395 116.51 70.5981 115.997C70.5981 115.946 70.5981 115.895 70.6176 115.844L70.6762 115.356C70.6909 115.231 70.708 115.111 70.7251 114.977C70.7544 114.76 70.7837 114.54 70.8179 114.323C70.8326 114.211 70.8497 114.099 70.8692 113.986C70.8961 113.813 70.9254 113.64 70.9547 113.472C70.984 113.303 71.0109 113.157 71.0402 113.005V112.971L71.0841 112.749C71.0988 112.676 71.1135 112.605 71.1306 112.534C71.1599 112.395 71.1916 112.256 71.2258 112.124C71.2747 111.927 71.326 111.741 71.3797 111.571C71.5751 110.938 71.8022 110.494 72.0587 110.365L73.7538 107.761L73.8246 107.651L73.8564 107.603L73.7953 107.598Z" fill="black"/>
<path opacity="0.1" d="M70.7106 90.3126C70.4663 90.6494 70.4858 91.113 70.3759 91.5328C70.1146 92.4869 69.079 93.0848 68.842 94.0463C68.7028 94.6076 68.864 95.2031 68.7688 95.7741C68.5953 96.8259 67.633 97.5385 67.0956 98.4585C66.8232 98.9324 66.6617 99.4619 66.6232 100.007C66.5848 100.552 66.6703 101.099 66.8734 101.607C66.9991 101.862 67.1029 102.129 67.1836 102.402C67.2452 102.81 67.2194 103.226 67.1079 103.622C66.9247 104.491 66.7366 105.448 67.1567 106.231C67.5109 106.892 68.2461 107.28 68.9862 107.402C69.7335 107.487 70.4895 107.452 71.2259 107.3C72.0344 107.175 72.8624 107.031 73.5659 106.617L70.9206 100.238C70.6544 99.5932 70.3808 98.927 70.3833 98.2291C70.4048 97.7142 70.5164 97.2071 70.713 96.7307C71.2251 95.3504 71.9685 94.0672 72.9113 92.936C73.2947 93.3801 73.2654 94.0561 73.5854 94.549C73.8681 94.9135 74.2447 95.1944 74.6747 95.3617C75.9281 95.9726 77.2158 96.5103 78.5315 96.9723C78.614 96.9827 78.6927 97.0132 78.7606 97.0612C78.8285 97.1093 78.8835 97.1733 78.9207 97.2476C78.9579 97.322 78.9762 97.4043 78.9739 97.4874C78.9716 97.5705 78.9489 97.6517 78.9076 97.7239L77.9111 101.833C77.6912 102.739 77.4983 103.786 78.0625 104.518C78.6267 105.25 79.8993 105.597 79.9066 106.541C79.8962 106.69 79.8962 106.84 79.9066 106.99C79.9725 107.432 80.4977 107.644 80.9447 107.666C81.6784 107.68 82.3935 107.434 82.9621 106.97C83.5308 106.507 83.916 105.856 84.0491 105.135C84.2933 103.52 83.2235 102.031 82.7765 100.457C82.0243 97.8094 83.0208 94.7028 81.5431 92.3771C80.3462 90.4907 78.1651 89.9782 76.0938 89.744C74.6405 89.5732 71.734 88.9631 70.7106 90.3126Z" fill="black"/>
<path opacity="0.5" d="M70.7106 90.0685C70.4663 90.4053 70.4858 90.869 70.3759 91.2887C70.1146 92.2429 69.079 92.8408 68.842 93.8023C68.7028 94.3636 68.864 94.959 68.7688 95.5301C68.5953 96.5819 67.633 97.2944 67.0956 98.2145C66.8232 98.6884 66.6617 99.2178 66.6232 99.763C66.5848 100.308 66.6703 100.855 66.8734 101.363C66.9991 101.618 67.1029 101.885 67.1836 102.158C67.2452 102.566 67.2194 102.981 67.1079 103.378C66.9247 104.247 66.7366 105.204 67.1567 105.987C67.5109 106.648 68.2461 107.036 68.9862 107.158C69.7335 107.243 70.4895 107.208 71.2259 107.056C72.0344 106.931 72.8624 106.787 73.5659 106.373L70.9206 99.9935C70.6544 99.3492 70.3808 98.683 70.3833 97.9851C70.4048 97.4702 70.5164 96.9631 70.713 96.4867C71.2251 95.1064 71.9685 93.8232 72.9113 92.6919C73.2947 93.1361 73.2654 93.812 73.5854 94.305C73.8681 94.6695 74.2447 94.9504 74.6747 95.1176C75.9281 95.7285 77.2158 96.2663 78.5315 96.7283C78.614 96.7386 78.6927 96.7692 78.7606 96.8172C78.8285 96.8652 78.8835 96.9292 78.9207 97.0036C78.9579 97.0779 78.9762 97.1603 78.9739 97.2434C78.9716 97.3265 78.9489 97.4077 78.9076 97.4799L77.9111 101.589C77.6912 102.495 77.4983 103.542 78.0625 104.274C78.6267 105.006 79.8993 105.352 79.9066 106.297C79.8962 106.446 79.8962 106.596 79.9066 106.746C79.9725 107.188 80.4977 107.4 80.9447 107.422C81.6784 107.436 82.3935 107.19 82.9621 106.726C83.5308 106.263 83.916 105.612 84.0491 104.891C84.2933 103.276 83.2235 101.787 82.7765 100.213C82.0243 97.5653 83.0208 94.4587 81.5431 92.1331C80.3462 90.2467 78.1651 89.7342 76.0938 89.4999C74.6405 89.3291 71.734 88.719 70.7106 90.0685Z" fill="#493545"/>
</g>
<g opacity="0.5">
<path opacity="0.5" d="M69.2084 155.433C69.2304 156.251 68.6735 156.949 68.2314 157.63C67.7893 158.311 67.462 159.24 67.9163 159.921C68.0653 160.146 68.29 160.319 68.4243 160.553C68.8957 161.371 68.1117 162.31 67.8259 163.208C67.4962 164.246 67.8797 165.405 68.5733 166.247C69.267 167.089 70.2245 167.657 71.1917 168.157C73.2254 169.24 75.4082 170.017 77.6692 170.461C78.8514 170.678 80.1117 170.776 81.2206 170.302C81.99 169.95 82.6185 169.349 83.0052 168.597C83.3919 167.844 83.5143 166.984 83.3529 166.154C83.072 164.87 82.1317 163.838 81.6432 162.625C81.5291 162.387 81.4739 162.125 81.482 161.861C81.5235 161.4 81.8777 161.039 82.1537 160.666C82.8458 159.649 83.1285 158.409 82.945 157.193C82.7522 155.977 82.2862 154.821 81.5821 153.811C81.3305 153.392 80.9984 153.027 80.6051 152.737C80.0726 152.378 79.4132 152.276 78.7781 152.185C76.1256 151.814 73.3777 151.409 70.7032 151.273C69.8581 151.229 69.2377 151.395 68.82 152.185C68.1825 153.364 69.1766 154.25 69.2084 155.433Z" fill="#444176"/>
<path opacity="0.5" d="M82.8695 163.733L77.8355 170.886L72.9212 170.459C72.9212 170.459 72.76 172.167 70.784 165.976C69.68 162.513 71.9246 163.716 72.3667 162.757C72.8088 161.798 73.588 160.951 73.6539 160.243C73.8103 158.725 73.3486 157.862 73.3486 157.862L78.6904 157.222C78.4493 157.941 78.4188 158.714 78.6025 159.45C79.2717 162.227 82.8695 163.733 82.8695 163.733Z" fill="#C77485"/>
<path opacity="0.5" d="M75.2978 157.635C78.8051 157.635 81.6483 155.395 81.6483 152.632C81.6483 149.869 78.8051 147.629 75.2978 147.629C71.7905 147.629 68.9473 149.869 68.9473 152.632C68.9473 155.395 71.7905 157.635 75.2978 157.635Z" fill="#444176"/>
<path opacity="0.1" d="M78.6 159.448C77.9033 159.975 77.0878 160.323 76.225 160.462C75.3622 160.601 74.4785 160.526 73.6515 160.243C73.8078 158.725 73.3462 157.862 73.3462 157.862L78.6879 157.222C78.4474 157.941 78.4169 158.713 78.6 159.448Z" fill="black"/>
<path opacity="0.5" d="M75.3784 160.317C78.3286 160.317 80.7201 157.927 80.7201 154.98C80.7201 152.032 78.3286 149.643 75.3784 149.643C72.4282 149.643 70.0366 152.032 70.0366 154.98C70.0366 157.927 72.4282 160.317 75.3784 160.317Z" fill="#C77485"/>
<path opacity="0.1" d="M82.342 164.543L82.2174 164.055L82.1099 163.626L81.9511 162.991L81.9218 162.874L81.8974 162.777C81.8974 162.777 82.0244 162.393 81.1866 162.518L81.0303 162.545C80.8984 162.572 80.7446 162.608 80.5687 162.657L80.4099 162.706L80.1999 162.772C79.5348 162.988 78.9283 163.354 78.4266 163.841C78.2014 164.056 78.0022 164.297 77.8331 164.558C77.816 164.582 77.8038 164.604 77.7891 164.624C77.7313 164.715 77.6799 164.809 77.6352 164.907C77.6352 166.83 75.7105 169.178 75.7105 169.178L73.8323 166.466L73.7956 166.413L73.3486 165.764L73.1899 165.554L73.1361 165.481L72.1591 164.17L71.9149 163.843L71.8343 163.733L71.7146 163.575L71.4337 163.201L70.3346 163.843L68.8691 164.697L68.0142 170.249V170.403L68.0411 170.861L68.2194 173.878V173.919L67.9067 175.169L67.9531 175.193C68.6909 175.591 69.4585 175.93 70.2491 176.208L70.4567 176.281C70.701 176.362 70.9306 176.435 71.1699 176.506C71.1788 176.542 71.1853 176.579 71.1895 176.616C71.1895 176.582 71.1895 176.545 71.1895 176.511C74.1867 177.367 77.3639 177.367 80.3611 176.511L80.4173 176.494C80.5565 176.455 80.6981 176.413 80.8349 176.367L81.0572 176.296C81.6599 176.095 82.2504 175.858 82.8256 175.588L83.0307 171.22L83.1773 168.07V167.889L82.342 164.543Z" fill="black"/>
<path opacity="0.5" d="M80.5833 172.658C80.5833 172.56 80.5833 172.462 80.5662 172.365C80.5491 172.267 80.5516 172.182 80.5394 172.089C80.5272 171.996 80.5174 171.903 80.5052 171.811C80.493 171.718 80.4759 171.625 80.4588 171.533C80.4417 171.44 80.4246 171.347 80.405 171.254C80.405 171.223 80.3928 171.193 80.3855 171.162C80.3586 171.04 80.3293 170.918 80.2976 170.793C80.2658 170.669 80.2463 170.595 80.217 170.498C80.217 170.454 80.1925 170.41 80.1779 170.368C80.1632 170.327 80.1364 170.227 80.1144 170.156L80.0704 170.019C80.0509 169.958 80.0313 169.897 80.0093 169.836C79.9727 169.727 79.9336 169.619 79.8945 169.509C79.8555 169.4 79.8139 169.292 79.7724 169.185C79.6894 168.965 79.599 168.748 79.5086 168.531C79.1545 167.687 78.7563 166.854 78.39 166.03C78.1931 165.597 78.0186 165.155 77.8673 164.704L77.8209 164.77C77.7466 164.883 77.6805 165 77.623 165.122C77.623 167.042 75.6983 169.392 75.6983 169.392L73.7614 166.574L72.0663 169.178C71.8221 169.307 71.5778 169.751 71.3873 170.383C71.3336 170.554 71.2823 170.739 71.2334 170.937C71.1992 171.069 71.1675 171.208 71.1382 171.347C71.1211 171.418 71.1064 171.489 71.0917 171.562L71.0478 171.784V171.818C71.0185 171.969 70.9892 172.126 70.9623 172.284C70.9354 172.443 70.9037 172.626 70.8768 172.799C70.8573 172.911 70.8402 173.024 70.8255 173.136C70.7913 173.353 70.762 173.573 70.7327 173.79C70.7156 173.917 70.6985 174.034 70.6838 174.168L70.6252 174.656C70.7498 175.056 70.889 175.452 71.0331 175.84C71.1252 176.052 71.1789 176.28 71.1919 176.511C74.1891 177.367 77.3663 177.367 80.3635 176.511C80.3624 176.503 80.3624 176.495 80.3635 176.486C80.3184 176.267 80.2987 176.044 80.3049 175.82C80.3542 175.194 80.4357 174.571 80.5491 173.953C80.5852 173.649 80.6007 173.342 80.5955 173.036V172.926C80.5882 172.833 80.5858 172.745 80.5833 172.658ZM80.5833 172.658C80.5833 172.56 80.5833 172.462 80.5662 172.365C80.5491 172.267 80.5516 172.182 80.5394 172.089C80.5272 171.996 80.5174 171.903 80.5052 171.811C80.493 171.718 80.4759 171.625 80.4588 171.533C80.4417 171.44 80.4246 171.347 80.405 171.254C80.405 171.223 80.3928 171.193 80.3855 171.162C80.3586 171.04 80.3293 170.918 80.2976 170.793C80.2658 170.669 80.2463 170.595 80.217 170.498C80.217 170.454 80.1925 170.41 80.1779 170.368C80.1632 170.327 80.1364 170.227 80.1144 170.156L80.0704 170.019C80.0509 169.958 80.0313 169.897 80.0093 169.836C79.9727 169.727 79.9336 169.619 79.8945 169.509C79.8555 169.4 79.8139 169.292 79.7724 169.185C79.6894 168.965 79.599 168.748 79.5086 168.531C79.1545 167.687 78.7563 166.854 78.39 166.03C78.1931 165.597 78.0186 165.155 77.8673 164.704L77.8209 164.77C77.7466 164.883 77.6805 165 77.623 165.122C77.623 167.042 75.6983 169.392 75.6983 169.392L73.7614 166.574L72.0663 169.178C71.8221 169.307 71.5778 169.751 71.3873 170.383C71.3336 170.554 71.2823 170.739 71.2334 170.937C71.1992 171.069 71.1675 171.208 71.1382 171.347C71.1211 171.418 71.1064 171.489 71.0917 171.562L71.0478 171.784V171.818C71.0185 171.969 70.9892 172.126 70.9623 172.284C70.9354 172.443 70.9037 172.626 70.8768 172.799C70.8573 172.911 70.8402 173.024 70.8255 173.136C70.7913 173.353 70.762 173.573 70.7327 173.79C70.7156 173.917 70.6985 174.034 70.6838 174.168L70.6252 174.656C70.7498 175.056 70.889 175.452 71.0331 175.84C71.1252 176.052 71.1789 176.28 71.1919 176.511C74.1891 177.367 77.3663 177.367 80.3635 176.511C80.3624 176.503 80.3624 176.495 80.3635 176.486C80.3184 176.267 80.2987 176.044 80.3049 175.82C80.3542 175.194 80.4357 174.571 80.5491 173.953C80.5852 173.649 80.6007 173.342 80.5955 173.036V172.926C80.5882 172.833 80.5858 172.745 80.5833 172.658ZM80.5833 172.658C80.5833 172.56 80.5833 172.462 80.5662 172.365C80.5491 172.267 80.5516 172.182 80.5394 172.089C80.5272 171.996 80.5174 171.903 80.5052 171.811C80.493 171.718 80.4759 171.625 80.4588 171.533C80.4417 171.44 80.4246 171.347 80.405 171.254C80.405 171.223 80.3928 171.193 80.3855 171.162C80.3586 171.04 80.3293 170.918 80.2976 170.793C80.2658 170.669 80.2463 170.595 80.217 170.498C80.217 170.454 80.1925 170.41 80.1779 170.368C80.1632 170.327 80.1364 170.227 80.1144 170.156L80.0704 170.019C80.0509 169.958 80.0313 169.897 80.0093 169.836C79.9727 169.727 79.9336 169.619 79.8945 169.509C79.8555 169.4 79.8139 169.292 79.7724 169.185C79.6894 168.965 79.599 168.748 79.5086 168.531C79.1545 167.687 78.7563 166.854 78.39 166.03C78.1931 165.597 78.0186 165.155 77.8673 164.704L77.8209 164.77C77.7466 164.883 77.6805 165 77.623 165.122C77.623 167.042 75.6983 169.392 75.6983 169.392L73.7614 166.574L72.0663 169.178C71.8221 169.307 71.5778 169.751 71.3873 170.383C71.3336 170.554 71.2823 170.739 71.2334 170.937C71.1992 171.069 71.1675 171.208 71.1382 171.347C71.1211 171.418 71.1064 171.489 71.0917 171.562L71.0478 171.784V171.818C71.0185 171.969 70.9892 172.126 70.9623 172.284C70.9354 172.443 70.9037 172.626 70.8768 172.799C70.8573 172.911 70.8402 173.024 70.8255 173.136C70.7913 173.353 70.762 173.573 70.7327 173.79C70.7156 173.917 70.6985 174.034 70.6838 174.168L70.6252 174.656C70.7498 175.056 70.889 175.452 71.0331 175.84C71.1252 176.052 71.1789 176.28 71.1919 176.511C74.1891 177.367 77.3663 177.367 80.3635 176.511C80.3624 176.503 80.3624 176.495 80.3635 176.486C80.3184 176.267 80.2987 176.044 80.3049 175.82C80.3542 175.194 80.4357 174.571 80.5491 173.953C80.5852 173.649 80.6007 173.342 80.5955 173.036V172.926C80.5882 172.833 80.5858 172.745 80.5833 172.658ZM83.1724 168.077L82.3004 164.599L82.1514 164.004L82.1099 163.841L81.8974 162.991C81.8979 162.984 81.8979 162.977 81.8974 162.969C81.9025 162.932 81.8965 162.894 81.8803 162.859C81.8485 162.796 81.7679 162.73 81.5799 162.713C81.5083 162.708 81.4365 162.708 81.3649 162.713C81.1527 162.734 80.9427 162.773 80.7372 162.83C80.6371 162.857 80.5296 162.886 80.4148 162.923L80.2047 162.989H80.1852C79.6226 163.173 79.1004 163.463 78.6464 163.843C78.3465 164.093 78.0834 164.384 77.8648 164.707L77.8184 164.773C77.7441 164.885 77.678 165.002 77.6206 165.124C77.6206 167.045 75.6959 169.395 75.6959 169.395L73.759 166.576L73.6491 166.418L73.6295 166.391L73.3486 165.978L73.1361 165.695L73.0799 165.622L72.0785 164.287L71.761 163.855V163.841L71.6511 163.692L71.441 163.413L70.7083 163.841L68.8764 164.907L68.0313 170.4V170.459L68.0557 170.859L68.2365 173.917V174.09L67.9604 175.191C68.6982 175.588 69.4658 175.928 70.2564 176.206L70.464 176.279C70.7083 176.36 70.9379 176.433 71.1772 176.504C71.1861 176.54 71.1926 176.576 71.1968 176.613C71.1968 176.579 71.1968 176.543 71.1968 176.508C74.194 177.364 77.3712 177.364 80.3684 176.508L80.4246 176.491C80.5638 176.452 80.7055 176.411 80.8422 176.364L81.0645 176.294C81.6672 176.092 82.2577 175.856 82.8329 175.586L83.0356 171.223L83.1822 168.106L83.1724 168.077ZM71.1601 176.504C71.169 176.54 71.1755 176.576 71.1797 176.613C71.1797 176.579 71.1797 176.543 71.1797 176.508L71.1601 176.504ZM80.5833 172.658C80.5833 172.56 80.5833 172.462 80.5662 172.365C80.5491 172.267 80.5516 172.182 80.5394 172.089C80.5272 171.996 80.5174 171.903 80.5052 171.811C80.493 171.718 80.4759 171.625 80.4588 171.533C80.4417 171.44 80.4246 171.347 80.405 171.254C80.405 171.223 80.3928 171.193 80.3855 171.162C80.3586 171.04 80.3293 170.918 80.2976 170.793C80.2658 170.669 80.2463 170.595 80.217 170.498C80.217 170.454 80.1925 170.41 80.1779 170.368C80.1632 170.327 80.1364 170.227 80.1144 170.156L80.0704 170.019C80.0509 169.958 80.0313 169.897 80.0093 169.836C79.9727 169.727 79.9336 169.619 79.8945 169.509C79.8555 169.4 79.8139 169.292 79.7724 169.185C79.6894 168.965 79.599 168.748 79.5086 168.531C79.1545 167.687 78.7563 166.854 78.39 166.03C78.1931 165.597 78.0186 165.155 77.8673 164.704L77.8209 164.77C77.7466 164.883 77.6805 165 77.623 165.122C77.623 167.042 75.6983 169.392 75.6983 169.392L73.7614 166.574L72.0663 169.178C71.8221 169.307 71.5778 169.751 71.3873 170.383C71.3336 170.554 71.2823 170.739 71.2334 170.937C71.1992 171.069 71.1675 171.208 71.1382 171.347C71.1211 171.418 71.1064 171.489 71.0917 171.562L71.0478 171.784V171.818C71.0185 171.969 70.9892 172.126 70.9623 172.284C70.9354 172.443 70.9037 172.626 70.8768 172.799C70.8573 172.911 70.8402 173.024 70.8255 173.136C70.7913 173.353 70.762 173.573 70.7327 173.79C70.7156 173.917 70.6985 174.034 70.6838 174.168L70.6252 174.656C70.7498 175.056 70.889 175.452 71.0331 175.84C71.1252 176.052 71.1789 176.28 71.1919 176.511C74.1891 177.367 77.3663 177.367 80.3635 176.511C80.3624 176.503 80.3624 176.495 80.3635 176.486C80.3184 176.267 80.2987 176.044 80.3049 175.82C80.3542 175.194 80.4357 174.571 80.5491 173.953C80.5852 173.649 80.6007 173.342 80.5955 173.036V172.926C80.5882 172.833 80.5858 172.745 80.5833 172.658ZM80.5833 172.658C80.5833 172.56 80.5833 172.462 80.5662 172.365C80.5491 172.267 80.5516 172.182 80.5394 172.089C80.5272 171.996 80.5174 171.903 80.5052 171.811C80.493 171.718 80.4759 171.625 80.4588 171.533C80.4417 171.44 80.4246 171.347 80.405 171.254C80.405 171.223 80.3928 171.193 80.3855 171.162C80.3586 171.04 80.3293 170.918 80.2976 170.793C80.2658 170.669 80.2463 170.595 80.217 170.498C80.217 170.454 80.1925 170.41 80.1779 170.368C80.1632 170.327 80.1364 170.227 80.1144 170.156L80.0704 170.019C80.0509 169.958 80.0313 169.897 80.0093 169.836C79.9727 169.727 79.9336 169.619 79.8945 169.509C79.8555 169.4 79.8139 169.292 79.7724 169.185C79.6894 168.965 79.599 168.748 79.5086 168.531C79.1545 167.687 78.7563 166.854 78.39 166.03C78.1931 165.597 78.0186 165.155 77.8673 164.704L77.8209 164.77C77.7466 164.883 77.6805 165 77.623 165.122C77.623 167.042 75.6983 169.392 75.6983 169.392L73.7614 166.574L72.0663 169.178C71.8221 169.307 71.5778 169.751 71.3873 170.383C71.3336 170.554 71.2823 170.739 71.2334 170.937C71.1992 171.069 71.1675 171.208 71.1382 171.347C71.1211 171.418 71.1064 171.489 71.0917 171.562L71.0478 171.784V171.818C71.0185 171.969 70.9892 172.126 70.9623 172.284C70.9354 172.443 70.9037 172.626 70.8768 172.799C70.8573 172.911 70.8402 173.024 70.8255 173.136C70.7913 173.353 70.762 173.573 70.7327 173.79C70.7156 173.917 70.6985 174.034 70.6838 174.168L70.6252 174.656C70.7498 175.056 70.889 175.452 71.0331 175.84C71.1252 176.052 71.1789 176.28 71.1919 176.511C74.1891 177.367 77.3663 177.367 80.3635 176.511C80.3624 176.503 80.3624 176.495 80.3635 176.486C80.3184 176.267 80.2987 176.044 80.3049 175.82C80.3542 175.194 80.4357 174.571 80.5491 173.953C80.5852 173.649 80.6007 173.342 80.5955 173.036V172.926C80.5882 172.833 80.5858 172.745 80.5833 172.658ZM80.5833 172.658C80.5833 172.56 80.5833 172.462 80.5662 172.365C80.5491 172.267 80.5516 172.182 80.5394 172.089C80.5272 171.996 80.5174 171.903 80.5052 171.811C80.493 171.718 80.4759 171.625 80.4588 171.533C80.4417 171.44 80.4246 171.347 80.405 171.254C80.405 171.223 80.3928 171.193 80.3855 171.162C80.3586 171.04 80.3293 170.918 80.2976 170.793C80.2658 170.669 80.2463 170.595 80.217 170.498C80.217 170.454 80.1925 170.41 80.1779 170.368C80.1632 170.327 80.1364 170.227 80.1144 170.156L80.0704 170.019C80.0509 169.958 80.0313 169.897 80.0093 169.836C79.9727 169.727 79.9336 169.619 79.8945 169.509C79.8555 169.4 79.8139 169.292 79.7724 169.185C79.6894 168.965 79.599 168.748 79.5086 168.531C79.1545 167.687 78.7563 166.854 78.39 166.03C78.1931 165.597 78.0186 165.155 77.8673 164.704L77.8209 164.77C77.7466 164.883 77.6805 165 77.623 165.122C77.623 167.042 75.6983 169.392 75.6983 169.392L73.7614 166.574L72.0663 169.178C71.8221 169.307 71.5778 169.751 71.3873 170.383C71.3336 170.554 71.2823 170.739 71.2334 170.937C71.1992 171.069 71.1675 171.208 71.1382 171.347C71.1211 171.418 71.1064 171.489 71.0917 171.562L71.0478 171.784V171.818C71.0185 171.969 70.9892 172.126 70.9623 172.284C70.9354 172.443 70.9037 172.626 70.8768 172.799C70.8573 172.911 70.8402 173.024 70.8255 173.136C70.7913 173.353 70.762 173.573 70.7327 173.79C70.7156 173.917 70.6985 174.034 70.6838 174.168L70.6252 174.656C70.7498 175.056 70.889 175.452 71.0331 175.84C71.1252 176.052 71.1789 176.28 71.1919 176.511C74.1891 177.367 77.3663 177.367 80.3635 176.511C80.3624 176.503 80.3624 176.495 80.3635 176.486C80.3184 176.267 80.2987 176.044 80.3049 175.82C80.3542 175.194 80.4357 174.571 80.5491 173.953C80.5852 173.649 80.6007 173.342 80.5955 173.036V172.926C80.5882 172.833 80.5858 172.745 80.5833 172.658ZM80.5833 172.658C80.5833 172.56 80.5833 172.462 80.5662 172.365C80.5491 172.267 80.5516 172.182 80.5394 172.089C80.5272 171.996 80.5174 171.903 80.5052 171.811C80.493 171.718 80.4759 171.625 80.4588 171.533C80.4417 171.44 80.4246 171.347 80.405 171.254C80.405 171.223 80.3928 171.193 80.3855 171.162C80.3586 171.04 80.3293 170.918 80.2976 170.793C80.2658 170.669 80.2463 170.595 80.217 170.498C80.217 170.454 80.1925 170.41 80.1779 170.368C80.1632 170.327 80.1364 170.227 80.1144 170.156L80.0704 170.019C80.0509 169.958 80.0313 169.897 80.0093 169.836C79.9727 169.727 79.9336 169.619 79.8945 169.509C79.8555 169.4 79.8139 169.292 79.7724 169.185C79.6894 168.965 79.599 168.748 79.5086 168.531C79.1545 167.687 78.7563 166.854 78.39 166.03C78.1931 165.597 78.0186 165.155 77.8673 164.704L77.8209 164.77C77.7466 164.883 77.6805 165 77.623 165.122C77.623 167.042 75.6983 169.392 75.6983 169.392L73.7614 166.574L72.0663 169.178C71.8221 169.307 71.5778 169.751 71.3873 170.383C71.3336 170.554 71.2823 170.739 71.2334 170.937C71.1992 171.069 71.1675 171.208 71.1382 171.347C71.1211 171.418 71.1064 171.489 71.0917 171.562L71.0478 171.784V171.818C71.0185 171.969 70.9892 172.126 70.9623 172.284C70.9354 172.443 70.9037 172.626 70.8768 172.799C70.8573 172.911 70.8402 173.024 70.8255 173.136C70.7913 173.353 70.762 173.573 70.7327 173.79C70.7156 173.917 70.6985 174.034 70.6838 174.168L70.6252 174.656C70.7498 175.056 70.889 175.452 71.0331 175.84C71.1252 176.052 71.1789 176.28 71.1919 176.511C74.1891 177.367 77.3663 177.367 80.3635 176.511C80.3624 176.503 80.3624 176.495 80.3635 176.486C80.3184 176.267 80.2987 176.044 80.3049 175.82C80.3542 175.194 80.4357 174.571 80.5491 173.953C80.5852 173.649 80.6007 173.342 80.5955 173.036V172.926C80.5882 172.833 80.5858 172.745 80.5833 172.658ZM80.5833 172.658C80.5833 172.56 80.5833 172.462 80.5662 172.365C80.5491 172.267 80.5516 172.182 80.5394 172.089C80.5272 171.996 80.5174 171.903 80.5052 171.811C80.493 171.718 80.4759 171.625 80.4588 171.533C80.4417 171.44 80.4246 171.347 80.405 171.254C80.405 171.223 80.3928 171.193 80.3855 171.162C80.3586 171.04 80.3293 170.918 80.2976 170.793C80.2658 170.669 80.2463 170.595 80.217 170.498C80.217 170.454 80.1925 170.41 80.1779 170.368C80.1632 170.327 80.1364 170.227 80.1144 170.156L80.0704 170.019C80.0509 169.958 80.0313 169.897 80.0093 169.836C79.9727 169.727 79.9336 169.619 79.8945 169.509C79.8555 169.4 79.8139 169.292 79.7724 169.185C79.6894 168.965 79.599 168.748 79.5086 168.531C79.1545 167.687 78.7563 166.854 78.39 166.03C78.1931 165.597 78.0186 165.155 77.8673 164.704L77.8209 164.77C77.7466 164.883 77.6805 165 77.623 165.122C77.623 167.042 75.6983 169.392 75.6983 169.392L73.7614 166.574L72.0663 169.178C71.8221 169.307 71.5778 169.751 71.3873 170.383C71.3336 170.554 71.2823 170.739 71.2334 170.937C71.1992 171.069 71.1675 171.208 71.1382 171.347C71.1211 171.418 71.1064 171.489 71.0917 171.562L71.0478 171.784V171.818C71.0185 171.969 70.9892 172.126 70.9623 172.284C70.9354 172.443 70.9037 172.626 70.8768 172.799C70.8573 172.911 70.8402 173.024 70.8255 173.136C70.7913 173.353 70.762 173.573 70.7327 173.79C70.7156 173.917 70.6985 174.034 70.6838 174.168L70.6252 174.656C70.7498 175.056 70.889 175.452 71.0331 175.84C71.1252 176.052 71.1789 176.28 71.1919 176.511C74.1891 177.367 77.3663 177.367 80.3635 176.511C80.3624 176.503 80.3624 176.495 80.3635 176.486C80.3184 176.267 80.2987 176.044 80.3049 175.82C80.3542 175.194 80.4357 174.571 80.5491 173.953C80.5852 173.649 80.6007 173.342 80.5955 173.036V172.926C80.5882 172.833 80.5858 172.745 80.5833 172.658ZM80.5833 172.658C80.5833 172.56 80.5833 172.462 80.5662 172.365C80.5491 172.267 80.5516 172.182 80.5394 172.089C80.5272 171.996 80.5174 171.903 80.5052 171.811C80.493 171.718 80.4759 171.625 80.4588 171.533C80.4417 171.44 80.4246 171.347 80.405 171.254C80.405 171.223 80.3928 171.193 80.3855 171.162C80.3586 171.04 80.3293 170.918 80.2976 170.793C80.2658 170.669 80.2463 170.595 80.217 170.498C80.217 170.454 80.1925 170.41 80.1779 170.368C80.1632 170.327 80.1364 170.227 80.1144 170.156L80.0704 170.019C80.0509 169.958 80.0313 169.897 80.0093 169.836C79.9727 169.727 79.9336 169.619 79.8945 169.509C79.8555 169.4 79.8139 169.292 79.7724 169.185C79.6894 168.965 79.599 168.748 79.5086 168.531C79.1545 167.687 78.7563 166.854 78.39 166.03C78.1931 165.597 78.0186 165.155 77.8673 164.704L77.8209 164.77C77.7466 164.883 77.6805 165 77.623 165.122C77.623 167.042 75.6983 169.392 75.6983 169.392L73.7614 166.574L72.0663 169.178C71.8221 169.307 71.5778 169.751 71.3873 170.383C71.3336 170.554 71.2823 170.739 71.2334 170.937C71.1992 171.069 71.1675 171.208 71.1382 171.347C71.1211 171.418 71.1064 171.489 71.0917 171.562L71.0478 171.784V171.818C71.0185 171.969 70.9892 172.126 70.9623 172.284C70.9354 172.443 70.9037 172.626 70.8768 172.799C70.8573 172.911 70.8402 173.024 70.8255 173.136C70.7913 173.353 70.762 173.573 70.7327 173.79C70.7156 173.917 70.6985 174.034 70.6838 174.168L70.6252 174.656C70.7498 175.056 70.889 175.452 71.0331 175.84C71.1252 176.052 71.1789 176.28 71.1919 176.511C74.1891 177.367 77.3663 177.367 80.3635 176.511C80.3624 176.503 80.3624 176.495 80.3635 176.486C80.3184 176.267 80.2987 176.044 80.3049 175.82C80.3542 175.194 80.4357 174.571 80.5491 173.953C80.5852 173.649 80.6007 173.342 80.5955 173.036V172.926C80.5882 172.833 80.5858 172.745 80.5833 172.658ZM80.5833 172.658C80.5833 172.56 80.5833 172.462 80.5662 172.365C80.5491 172.267 80.5516 172.182 80.5394 172.089C80.5272 171.996 80.5174 171.903 80.5052 171.811C80.493 171.718 80.4759 171.625 80.4588 171.533C80.4417 171.44 80.4246 171.347 80.405 171.254C80.405 171.223 80.3928 171.193 80.3855 171.162C80.3586 171.04 80.3293 170.918 80.2976 170.793C80.2658 170.669 80.2463 170.595 80.217 170.498C80.217 170.454 80.1925 170.41 80.1779 170.368C80.1632 170.327 80.1364 170.227 80.1144 170.156L80.0704 170.019C80.0509 169.958 80.0313 169.897 80.0093 169.836C79.9727 169.727 79.9336 169.619 79.8945 169.509C79.8555 169.4 79.8139 169.292 79.7724 169.185C79.6894 168.965 79.599 168.748 79.5086 168.531C79.1545 167.687 78.7563 166.854 78.39 166.03C78.1931 165.597 78.0186 165.155 77.8673 164.704L77.8209 164.77C77.7466 164.883 77.6805 165 77.623 165.122C77.623 167.042 75.6983 169.392 75.6983 169.392L73.7614 166.574L72.0663 169.178C71.8221 169.307 71.5778 169.751 71.3873 170.383C71.3336 170.554 71.2823 170.739 71.2334 170.937C71.1992 171.069 71.1675 171.208 71.1382 171.347C71.1211 171.418 71.1064 171.489 71.0917 171.562L71.0478 171.784V171.818C71.0185 171.969 70.9892 172.126 70.9623 172.284C70.9354 172.443 70.9037 172.626 70.8768 172.799C70.8573 172.911 70.8402 173.024 70.8255 173.136C70.7913 173.353 70.762 173.573 70.7327 173.79C70.7156 173.917 70.6985 174.034 70.6838 174.168L70.6252 174.656C70.7498 175.056 70.889 175.452 71.0331 175.84C71.1252 176.052 71.1789 176.28 71.1919 176.511C74.1891 177.367 77.3663 177.367 80.3635 176.511C80.3624 176.503 80.3624 176.495 80.3635 176.486C80.3184 176.267 80.2987 176.044 80.3049 175.82C80.3542 175.194 80.4357 174.571 80.5491 173.953C80.5852 173.649 80.6007 173.342 80.5955 173.036V172.926C80.5882 172.833 80.5858 172.745 80.5833 172.658ZM80.5833 172.658C80.5833 172.56 80.5833 172.462 80.5662 172.365C80.5491 172.267 80.5516 172.182 80.5394 172.089C80.5272 171.996 80.5174 171.903 80.5052 171.811C80.493 171.718 80.4759 171.625 80.4588 171.533C80.4417 171.44 80.4246 171.347 80.405 171.254C80.405 171.223 80.3928 171.193 80.3855 171.162C80.3586 171.04 80.3293 170.918 80.2976 170.793C80.2658 170.669 80.2463 170.595 80.217 170.498C80.217 170.454 80.1925 170.41 80.1779 170.368C80.1632 170.327 80.1364 170.227 80.1144 170.156L80.0704 170.019C80.0509 169.958 80.0313 169.897 80.0093 169.836C79.9727 169.727 79.9336 169.619 79.8945 169.509C79.8555 169.4 79.8139 169.292 79.7724 169.185C79.6894 168.965 79.599 168.748 79.5086 168.531C79.1545 167.687 78.7563 166.854 78.39 166.03C78.1931 165.597 78.0186 165.155 77.8673 164.704L77.8209 164.77C77.7466 164.883 77.6805 165 77.623 165.122C77.623 167.042 75.6983 169.392 75.6983 169.392L73.7614 166.574L72.0663 169.178C71.8221 169.307 71.5778 169.751 71.3873 170.383C71.3336 170.554 71.2823 170.739 71.2334 170.937C71.1992 171.069 71.1675 171.208 71.1382 171.347C71.1211 171.418 71.1064 171.489 71.0917 171.562L71.0478 171.784V171.818C71.0185 171.969 70.9892 172.126 70.9623 172.284C70.9354 172.443 70.9037 172.626 70.8768 172.799C70.8573 172.911 70.8402 173.024 70.8255 173.136C70.7913 173.353 70.762 173.573 70.7327 173.79C70.7156 173.917 70.6985 174.034 70.6838 174.168L70.6252 174.656C70.7498 175.056 70.889 175.452 71.0331 175.84C71.1252 176.052 71.1789 176.28 71.1919 176.511C74.1891 177.367 77.3663 177.367 80.3635 176.511C80.3624 176.503 80.3624 176.495 80.3635 176.486C80.3184 176.267 80.2987 176.044 80.3049 175.82C80.3542 175.194 80.4357 174.571 80.5491 173.953C80.5852 173.649 80.6007 173.342 80.5955 173.036V172.926C80.5882 172.833 80.5858 172.745 80.5833 172.658Z" fill="#444176"/>
<path opacity="0.1" d="M73.7953 166.41L73.6317 166.388C73.3846 166.355 73.1399 166.306 72.8989 166.242L72.8086 166.217C72.2126 166.049 71.5604 165.746 71.4139 165.214C71.3702 165.043 71.3753 164.863 71.4285 164.695C71.5105 164.404 71.6218 164.123 71.7607 163.855V163.84C71.7791 163.803 71.7995 163.766 71.8218 163.731C72.0233 163.337 72.3281 163.006 72.7035 162.772L72.4104 162.818L69.9288 163.221L66.0819 163.84C66.0819 163.84 65.398 163.704 64.4674 166.266C64.4674 166.298 64.4454 166.327 64.4356 166.361C64.2109 166.989 63.974 167.772 63.7298 168.75C63.5612 169.429 63.4073 170.095 63.2657 170.742C63.2242 170.937 63.1826 171.13 63.1436 171.32C63.5839 171.839 64.058 172.328 64.5627 172.784L64.6433 172.86C65.6317 173.754 66.724 174.527 67.8967 175.161L67.9431 175.186C68.6808 175.583 69.4484 175.923 70.239 176.201L70.4467 176.274C70.4906 175.823 70.5395 175.322 70.5981 174.81C70.5981 174.759 70.5981 174.707 70.6176 174.656L70.6762 174.168C70.6909 174.044 70.708 173.924 70.7251 173.79C70.7544 173.573 70.7837 173.353 70.8179 173.136C70.8326 173.024 70.8497 172.911 70.8692 172.799C70.8961 172.626 70.9254 172.452 70.9547 172.284C70.984 172.116 71.0109 171.969 71.0402 171.818V171.784L71.0841 171.562C71.0988 171.489 71.1135 171.418 71.1306 171.347C71.1599 171.208 71.1916 171.069 71.2258 170.937C71.2747 170.739 71.326 170.554 71.3797 170.383C71.5751 169.751 71.8022 169.307 72.0587 169.178L73.7538 166.574L73.8246 166.464L73.8564 166.415L73.7953 166.41Z" fill="black"/>
<path opacity="0.1" d="M74.2033 153.418C74.9654 153.288 75.7324 153.01 76.4895 153.174C77.1246 153.306 77.6546 153.728 78.2359 154.021C78.7972 154.303 79.4111 154.465 80.0385 154.496C80.2673 154.526 80.4997 154.481 80.7004 154.367C81.0033 154.157 81.0472 153.728 80.996 153.362C80.8494 152.322 80.1997 151.429 79.5304 150.619C79.2633 150.273 78.9549 149.96 78.6121 149.689C77.7352 149.042 76.575 148.932 75.4881 148.981C74.2473 149.037 72.987 149.276 71.9098 149.899C71.1771 150.318 69.4966 151.641 70.0804 152.598C70.6935 153.598 73.2434 153.581 74.2033 153.418Z" fill="black"/>
<path opacity="0.5" d="M74.2033 153.174C74.9654 153.044 75.7324 152.766 76.4895 152.93C77.1246 153.061 77.6546 153.484 78.2359 153.776C78.7972 154.059 79.4111 154.221 80.0385 154.252C80.2673 154.282 80.4997 154.237 80.7004 154.123C81.0033 153.913 81.0472 153.484 80.996 153.118C80.8494 152.078 80.1997 151.185 79.5304 150.375C79.2633 150.029 78.9549 149.716 78.6121 149.445C77.7352 148.798 76.575 148.688 75.4881 148.737C74.2473 148.793 72.987 149.032 71.9098 149.655C71.1771 150.074 69.4966 151.397 70.0804 152.354C70.6935 153.354 73.2434 153.337 74.2033 153.174Z" fill="#444176"/>
</g>
<path d="M141.277 141.223H141.314C141.367 142.858 141.6 144.337 142.047 144.747C143.111 145.723 147.528 143.771 147.225 142.59C147.164 142.346 147.061 141.946 146.932 141.44C148.123 141.292 149.142 140.952 149.547 140.254L150.314 142.617L150.368 142.785H150.383H150.427C150.932 147.573 152.078 157.515 152.994 158.848C154.215 160.612 155.62 168.258 155.62 168.258L158.245 183.942C158.245 183.942 159.256 192.971 159.862 193.947C160.038 194.134 160.273 194.255 160.527 194.291C160.172 195.35 159.664 196.588 159.061 197.278C157.84 198.65 156.233 201.395 154.818 201.2C153.404 201.005 153.001 203.945 155.627 204.336C157.08 204.553 159.398 204.289 161.179 204.011C161.179 204.797 161.726 205.7 163.101 205.905C165.727 206.298 171.181 205.122 171.181 205.122C171.181 205.122 175.822 203.169 176.029 201.788C176.176 200.787 175.465 196.771 175.069 194.665C175.802 193.491 175.02 183.361 175.02 183.361L173.606 163.953C173.606 163.953 174.415 153.171 173.606 151.209C173.101 149.989 172.912 144.376 172.842 140.362L173.819 140.425C173.874 140.358 173.925 140.287 173.97 140.213L174.214 140.23C174.214 140.23 175.436 138.859 174.417 136.701C173.667 135.098 173.809 127.86 173.929 124.256L174.073 122.547C174.126 122.495 174.167 122.432 174.192 122.362C176.087 122.106 177.928 121.549 179.646 120.712C180.165 120.497 180.648 120.204 181.078 119.843C182.089 118.867 181.481 112.981 179.461 104.159C177.441 95.3373 175.624 96.1207 175.624 96.1207C175.624 96.1207 170.775 95.7278 168.553 92.7871C166.33 89.8465 164.838 89.8856 164.838 89.8856C164.781 89.5 164.742 89.1364 164.715 88.7972C164.715 88.6703 164.696 88.5531 164.689 88.4262C165.444 87.7241 166.02 86.8513 166.369 85.8809C166.823 85.6369 167.383 85.5564 167.817 85.2489C167.928 85.1684 168.029 85.075 168.118 84.9707C168.554 84.5691 168.83 84.0242 168.897 83.4357C168.966 82.7931 168.936 82.1436 168.807 81.5103C168.653 80.5732 168.426 79.6141 167.878 78.8771C167.331 78.1401 166.513 77.696 165.724 77.2836C163.588 76.1626 161.446 75.0531 159.298 73.9549C158.878 73.6988 158.41 73.5326 157.923 73.4669C157.063 73.4181 156.291 74.0062 155.598 74.565C155.321 74.7826 155.056 75.0148 154.804 75.2605C154.589 75.4504 154.394 75.6604 154.22 75.8877C153.409 76.9736 153.065 79.0187 153.421 80.3755C153.534 80.805 153.775 80.9295 154.073 80.9246C153.631 81.8028 153.401 82.7723 153.402 83.7554C153.407 84.8317 153.682 85.8896 154.203 86.8316C154.724 87.7736 155.474 88.5695 156.384 89.1461C156.384 89.2828 156.384 89.417 156.396 89.5463C156.406 90.0471 156.39 90.5481 156.347 91.0472C156.347 91.0472 150.974 93.9487 150.371 95.3202C149.767 96.6917 147.542 97.6727 147.542 97.6727C147.542 97.6727 143.3 99.83 143.3 107.476L141.077 118.257L140.674 138.841C140.674 138.841 140.952 138.597 141.407 138.251C141.392 138.388 141.38 138.529 141.367 138.673C141.307 139.46 141.287 140.249 141.306 141.038L141.277 141.223ZM168.413 194.499C168.33 194.813 168.208 195.231 168.054 195.719C167.986 195.314 167.918 194.914 167.849 194.533C168.025 194.516 168.213 194.506 168.413 194.499Z" fill="url(#paint2_linear)"/>
<path d="M161.076 191.97C161.076 191.97 160.297 195.47 159.122 196.829C157.947 198.188 156.408 200.912 155.05 200.717C153.692 200.521 153.299 203.438 155.829 203.826C158.36 204.214 163.599 203.05 163.599 203.05C163.599 203.05 168.074 201.097 168.267 199.745C168.46 198.393 167.099 191.387 167.099 191.387L161.076 191.97Z" fill="#53526B"/>
<path opacity="0.05" d="M161.076 191.97C161.076 191.97 160.297 195.47 159.122 196.829C157.947 198.188 156.408 200.912 155.05 200.717C153.692 200.521 153.299 203.438 155.829 203.826C158.36 204.214 163.599 203.05 163.599 203.05C163.599 203.05 168.074 201.097 168.267 199.745C168.46 198.393 167.099 191.387 167.099 191.387L161.076 191.97Z" fill="black"/>
<path d="M168.274 193.525C168.274 193.525 167.495 197.024 166.32 198.384C165.145 199.743 163.599 202.466 162.244 202.271C160.888 202.076 160.492 204.992 163.023 205.38C165.553 205.768 170.805 204.602 170.805 204.602C170.805 204.602 175.279 202.649 175.472 201.297C175.665 199.945 174.305 192.939 174.305 192.939L168.274 193.525Z" fill="#53526B"/>
<path d="M150.571 140.274C150.571 140.274 152.127 156.988 153.294 158.738C154.462 160.487 155.822 168.067 155.822 168.067L158.35 183.615C158.35 183.615 159.327 192.556 159.906 193.527C160.485 194.499 167.705 194.081 167.705 194.081L163.216 142.604L150.571 140.274Z" fill="#5F5D7E"/>
<path opacity="0.05" d="M150.571 140.274C150.571 140.274 152.127 156.988 153.294 158.738C154.462 160.487 155.822 168.067 155.822 168.067L158.35 183.615C158.35 183.615 159.327 192.556 159.906 193.527C160.485 194.499 167.705 194.081 167.705 194.081L163.216 142.604L150.571 140.274Z" fill="black"/>
<path d="M147.459 132.301L147.967 133.914L150.715 142.629L150.769 142.795H150.783C151.152 142.878 158.939 144.666 160.619 145.216C160.71 145.244 160.799 145.277 160.885 145.316C161.665 145.704 162.637 159.697 162.637 159.697C162.637 159.697 163.22 172.914 163.614 173.885C164.007 174.856 165.568 194.872 166.533 194.291C167.497 193.71 174.507 194.291 174.507 194.291C175.286 193.513 174.507 183.019 174.507 183.019L173.125 163.782C173.125 163.782 173.904 153.093 173.125 151.148C172.346 149.203 172.346 136.184 172.346 136.184L156.423 133.697L154.884 133.453L147.459 132.301Z" fill="#5F5D7E"/>
<path opacity="0.02" d="M147.967 133.917L150.715 142.631L150.781 142.802C151.15 142.885 158.937 144.674 160.617 145.223H160.786L156.435 133.7L156.311 133.368L154.897 133.458L147.967 133.917Z" fill="black"/>
<path opacity="0.1" d="M166.134 93.4338C166.134 93.4338 158.936 101.209 154.462 94.7931L150.182 97.7093L150.962 102.18L148.431 135.996C148.431 135.996 155.045 135.801 159.713 137.355C161.013 137.816 162.418 137.896 163.762 137.586C165.106 137.276 166.333 136.589 167.3 135.606L166.53 105.872L168.281 96.7381L166.134 93.4338Z" fill="black"/>
<path d="M166.134 92.8506C166.134 92.8506 158.936 100.626 154.462 94.2099L150.182 97.1261L150.962 101.597L148.431 135.413C148.431 135.413 155.045 135.218 159.713 136.772C161.013 137.233 162.418 137.313 163.762 137.003C165.106 136.693 166.333 136.006 167.3 135.022L166.53 105.289L168.281 96.1548L166.134 92.8506Z" fill="#53526B"/>
<path d="M151.765 127.474V128.699H151.374V127.884H149.946V128.699H149.552V127.477L151.765 127.474Z" fill="#E82127"/>
<path d="M151.416 127.079H149.906C149.808 127.055 149.717 127.005 149.645 126.934C149.572 126.862 149.521 126.772 149.496 126.674H151.824C151.799 126.772 151.747 126.862 151.675 126.933C151.603 127.005 151.512 127.055 151.413 127.079" fill="#E82127"/>
<path d="M165.065 126.688C165.039 126.786 164.987 126.875 164.916 126.945C164.844 127.016 164.755 127.067 164.657 127.091H164.022L163.99 127.103V128.704H163.599V127.103L163.562 127.091H162.927C162.83 127.066 162.741 127.015 162.669 126.945C162.598 126.874 162.546 126.785 162.52 126.688H165.065Z" fill="#E82127"/>
<path d="M151.155 133.082C151.155 133.082 151.155 138.136 149.987 140.274C148.819 142.412 142.012 141.25 142.012 141.25L143.373 134.058L151.155 133.082Z" fill="#D6DBE6"/>
<path d="M142.752 144.747C143.778 145.723 148.03 143.771 147.737 142.609C147.532 141.787 146.814 138.844 146.406 137.175L146.123 136.001C146.123 136.001 143.631 135.222 142.752 136.001C142.432 136.284 142.208 137.399 142.102 138.746C141.922 141.087 142.105 144.127 142.752 144.747Z" fill="#FDC2CC"/>
<path d="M152.119 96.3476L158.926 101.594C158.926 101.594 169.041 101.011 166.513 96.1524C165.412 94.0154 164.748 91.6811 164.559 89.2852C164.477 88.4013 164.477 87.5116 164.559 86.6276C164.559 86.6276 155.221 78.0864 156.389 87.7941C156.481 88.5393 156.534 89.2886 156.55 90.0393C156.689 97.3262 152.119 96.3476 152.119 96.3476Z" fill="#FDC2CC"/>
<path opacity="0.1" d="M156.408 87.7966C156.5 88.5417 156.554 89.2911 156.569 90.0417C157.617 90.7351 158.847 91.1036 160.104 91.1008C161.845 91.1008 163.128 89.4072 164.285 88.2822C164.156 86.6691 164.576 86.6301 164.576 86.6301C164.576 86.6301 155.241 78.0791 156.408 87.7966Z" fill="black"/>
<path d="M160.104 90.7128C163.649 90.7128 166.523 87.8415 166.523 84.2995C166.523 80.7576 163.649 77.8863 160.104 77.8863C156.559 77.8863 153.685 80.7576 153.685 84.2995C153.685 87.8415 156.559 90.7128 160.104 90.7128Z" fill="#FDC2CC"/>
<path opacity="0.1" d="M164.674 90.42C164.674 90.42 165.744 90.5176 167.883 93.4314C170.023 96.3452 174.691 96.7356 174.691 96.7356C174.691 96.7356 176.442 95.9571 178.386 104.703C180.33 113.45 180.914 119.28 179.942 120.251C178.97 121.222 175.079 122.586 173.125 122.586C173.125 122.586 172.541 134.83 173.513 136.967C174.485 139.105 173.318 140.467 173.318 140.467L164.769 139.884C164.769 139.884 161.85 136.191 161.266 129.778C160.683 123.365 158.738 105.094 159.711 102.956C160.683 100.818 164.962 95.3763 164.769 94.7931C164.576 94.2098 164.674 90.42 164.674 90.42Z" fill="black"/>
<path d="M164.696 90.3614C164.696 90.3614 166.134 90.3224 168.274 93.2386C170.413 96.1548 175.079 96.5428 175.079 96.5428C175.079 96.5428 176.83 95.7644 178.774 104.511C180.718 113.257 181.302 119.087 180.33 120.058C179.358 121.029 175.467 122.391 173.523 122.391C173.523 122.391 172.939 134.634 173.911 136.772C174.883 138.91 173.716 140.271 173.716 140.271L165.167 139.688C165.167 139.688 162.248 135.996 161.664 129.583C161.081 123.17 159.132 104.901 160.104 102.773C161.076 100.645 165.355 95.1933 165.162 94.6101C164.969 94.0268 164.696 90.3614 164.696 90.3614Z" fill="#D6DBE6"/>
<path opacity="0.1" d="M142.105 138.744C143.036 138.034 144.792 136.928 146.409 137.172L146.125 135.998C146.125 135.998 143.634 135.22 142.755 135.998C142.43 136.282 142.208 137.394 142.105 138.744Z" fill="black"/>
<path opacity="0.1" d="M156.516 91.5864C156.516 91.5864 151.555 94.7931 150.971 96.1548C150.388 97.5165 148.248 98.4878 148.248 98.4878C148.248 98.4878 144.164 100.626 144.164 108.205L142.024 118.894L151.75 132.499C151.75 132.499 152.918 118.894 153.502 115.59C154.086 112.286 154.862 106.072 154.862 106.072C154.862 106.072 157.781 102.38 157.39 101.409C156.999 100.438 156.516 91.5864 156.516 91.5864Z" fill="black"/>
<path d="M156.516 91.5279C156.516 91.5279 151.342 94.405 150.761 95.7643C150.18 97.1236 148.038 98.0973 148.038 98.0973C148.038 98.0973 143.954 100.235 143.954 107.815L141.814 118.504L141.426 138.91C141.426 138.91 144.928 135.606 147.456 137.16C149.984 138.715 151.54 132.106 151.54 132.106C151.54 132.106 152.708 118.501 153.292 115.197C153.875 111.893 154.652 105.679 154.652 105.679C154.652 105.679 157.571 101.987 157.18 101.016C156.789 100.045 156.516 91.5279 156.516 91.5279Z" fill="#D6DBE6"/>
<path opacity="0.1" d="M154.469 76.4978C154.798 76.0792 155.179 75.7037 155.602 75.3801C156.271 74.8237 157.012 74.2429 157.842 74.2917C158.312 74.3542 158.763 74.5156 159.166 74.7651C161.234 75.8535 163.296 76.9533 165.353 78.0645C166.112 78.4745 166.896 78.9089 167.426 79.6458C167.956 80.3828 168.171 81.3297 168.32 82.257C168.445 82.8852 168.475 83.5284 168.408 84.1654C168.348 84.7898 168.044 85.3655 167.563 85.7687C167.009 86.1714 166.249 86.1738 165.785 86.7009C165.516 87.006 165.399 87.433 165.209 87.8039C165.018 88.1749 164.688 88.5361 164.312 88.4702C163.936 88.4043 163.709 88.0065 163.655 87.6038C163.631 87.1957 163.655 86.7863 163.726 86.3837C163.799 85.6516 163.706 84.8755 163.281 84.3313C162.988 83.9604 162.568 83.7359 162.285 83.3552C161.606 82.4376 161.916 80.9148 161.171 80.0534C160.955 79.8282 160.683 79.6644 160.382 79.5787C160.082 79.4929 159.764 79.4883 159.461 79.5653C158.858 79.6922 158.306 80.0192 157.752 80.2974C157.003 80.6749 156.218 80.9774 155.409 81.2004C154.73 81.3858 153.944 81.83 153.712 80.927C153.358 79.6019 153.687 77.574 154.469 76.4978Z" fill="black"/>
<path d="M154.664 76.305C154.994 75.8864 155.374 75.5109 155.798 75.1873C156.467 74.6309 157.207 74.0501 158.037 74.0989C158.507 74.1614 158.958 74.3228 159.361 74.5724C161.428 75.6608 163.145 74.6309 165.548 77.8717C166.061 78.5648 167.092 78.7161 167.622 79.4531C168.152 80.1901 168.367 81.1369 168.516 82.0643C168.64 82.6924 168.67 83.3357 168.604 83.9726C168.543 84.597 168.24 85.1728 167.759 85.5759C167.204 85.9786 166.444 85.981 165.98 86.5081C165.712 86.8132 165.594 87.2402 165.404 87.6112C165.213 87.9821 164.884 88.3433 164.508 88.2774C164.131 88.2115 163.904 87.8137 163.851 87.4111C163.827 87.003 163.85 86.5935 163.921 86.1909C163.995 85.4588 163.902 84.6828 163.477 84.1386C163.184 83.7676 162.764 83.5431 162.48 83.1624C161.801 82.2448 162.111 80.7221 161.366 79.8606C161.15 79.6354 160.878 79.4716 160.578 79.3859C160.277 79.3001 159.959 79.2955 159.657 79.3725C159.053 79.4994 158.501 79.8264 157.947 80.1046C157.198 80.4822 156.413 80.7846 155.605 81.0076C154.926 81.193 154.139 81.6372 153.907 80.7343C153.55 79.4092 153.883 77.3788 154.664 76.305Z" fill="#865A61"/>
<path opacity="0.1" d="M172.197 105.967C172.197 105.967 174.791 112.576 172.844 115.297L168.565 114.321C168.565 114.321 172.456 115.487 171.872 113.154C171.288 110.821 172.197 105.967 172.197 105.967Z" fill="black"/>
<path opacity="0.1" d="M173.614 122.296C173.614 122.296 167.971 122.684 166.416 121.517C168.464 123.08 170.884 124.085 173.438 124.434L173.614 122.296Z" fill="black"/>
<path opacity="0.1" d="M149.308 109.85C149.308 109.85 146.389 118.791 146.585 120.151C146.78 121.51 147.168 136.477 147.168 136.477L147.752 136.281L147.557 119.955L149.308 109.85Z" fill="black"/>
<path d="M174.3 120.778L107.619 67.0902C107.231 66.7026 106.771 66.3953 106.263 66.1859C105.756 65.9766 105.213 65.8692 104.664 65.87H101.831C107.493 58.6206 110.174 49.4865 109.328 40.3301C108.482 31.1737 104.172 22.6845 97.2769 16.5935C90.3821 10.5025 81.4216 7.26839 72.2225 7.55056C63.0233 7.83272 54.2783 11.6099 47.7705 18.112C41.2626 24.6141 37.4821 33.3515 37.1997 42.5425C36.9172 51.7335 40.1542 60.6861 46.2506 67.5748C52.347 74.4635 60.8436 78.7696 70.0081 79.615C79.1726 80.4605 88.3148 77.7816 95.5706 72.1246V74.953C95.5698 75.5013 95.6772 76.0443 95.8868 76.551C96.0963 77.0577 96.4039 77.5181 96.7918 77.9058L163.472 131.594C163.858 131.982 164.318 132.291 164.824 132.502C165.329 132.712 165.872 132.821 166.42 132.821C166.969 132.821 167.511 132.712 168.017 132.502C168.523 132.291 168.982 131.982 169.368 131.594L174.283 126.689C175.067 125.906 175.509 124.844 175.512 123.737C175.515 122.629 175.079 121.565 174.3 120.778ZM73.3096 65.87C68.9068 65.87 64.6028 64.5656 60.942 62.1217C57.2812 59.6777 54.428 56.2041 52.7431 52.14C51.0582 48.076 50.6173 43.604 51.4763 39.2895C52.3352 34.9751 54.4554 31.0121 57.5687 27.9016C60.6819 24.7911 64.6484 22.6728 68.9667 21.8146C73.2849 20.9564 77.7608 21.3969 81.8285 23.0803C85.8962 24.7637 89.3728 27.6144 91.8189 31.272C94.265 34.9296 95.5706 39.2297 95.5706 43.6286C95.5728 46.5503 94.9986 49.4437 93.8807 52.1434C92.7629 54.8432 91.1233 57.2963 89.0558 59.3624C86.9883 61.4285 84.5334 63.0672 81.8315 64.1847C79.1296 65.3021 76.2338 65.8765 73.3096 65.8749V65.87Z" fill="url(#paint3_linear)"/>
<path d="M174.788 120.29L108.108 66.6021C107.72 66.2145 107.259 65.9072 106.752 65.6979C106.245 65.4885 105.701 65.3811 105.152 65.3819H102.319C107.981 58.1326 110.662 48.9985 109.816 39.842C108.97 30.6856 104.66 22.1965 97.7652 16.1055C90.8704 10.0145 81.9099 6.78032 72.7108 7.06249C63.5116 7.34465 54.7666 11.1219 48.2587 17.624C41.7509 24.1261 37.9704 32.8634 37.6879 42.0544C37.4055 51.2455 40.6425 60.198 46.7389 67.0868C52.8353 73.9755 61.3319 78.2815 70.4964 79.127C79.6609 79.9724 88.8031 77.2935 96.0588 71.6366V74.4649C96.058 75.0132 96.1655 75.5562 96.3751 76.0629C96.5846 76.5696 96.8922 77.03 97.2801 77.4178L163.961 131.106C164.347 131.494 164.806 131.803 165.312 132.014C165.818 132.224 166.36 132.333 166.909 132.333C167.457 132.333 168 132.224 168.506 132.014C169.011 131.803 169.471 131.494 169.857 131.106L174.771 126.2C175.555 125.418 175.997 124.356 176 123.249C176.004 122.141 175.568 121.077 174.788 120.29ZM73.7978 65.3819C69.395 65.3819 65.0911 64.0775 61.4303 61.6336C57.7695 59.1897 54.9162 55.716 53.2314 51.652C51.5465 47.5879 51.1056 43.1159 51.9646 38.8015C52.8235 34.4871 54.9437 30.524 58.0569 27.4135C61.1702 24.303 65.1367 22.1847 69.4549 21.3265C73.7732 20.4684 78.2491 20.9088 82.3168 22.5922C86.3844 24.2756 89.8611 27.1263 92.3072 30.7839C94.7533 34.4415 96.0588 38.7416 96.0588 43.1406C96.0611 46.0622 95.4869 48.9556 94.369 51.6554C93.2511 54.3551 91.6116 56.8082 89.5441 58.8743C87.4766 60.9405 85.0217 62.5791 82.3198 63.6966C79.6179 64.8141 76.7221 65.3884 73.7978 65.3868V65.3819Z" fill="#6C63FF"/>
<path d="M169.83 115.395C169.83 115.395 160.096 104.242 161.464 111.895C162.441 117.337 166.132 120.253 167.883 120.836C169.634 121.42 169.83 115.395 169.83 115.395Z" fill="#FDC2CC"/>
<path d="M172.165 105.094C172.165 105.094 172.36 112.286 173.333 113.257C174.305 114.228 172.749 115.395 172.749 115.395L168.858 114.419C168.858 114.419 169.835 120.832 165.746 120.056C165.746 120.056 168.47 122.581 171.193 122.972C173.916 123.362 173.721 122.389 173.721 122.389L177.805 117.53L172.165 105.094Z" fill="#D6DBE6"/>
<path d="M173.242 122.494L177.189 121.627L176.662 119.809L174.219 118.833L171.044 120.297L173.242 122.494Z" fill="#D6DBE6"/>
<path d="M76.2329 52.3578L81.4868 48.3092C81.4868 48.3092 77.9671 49.0633 78.0673 43.4432C78.066 43.4245 78.066 43.4057 78.0673 43.387C78.0673 42.8794 78.1161 42.323 78.1894 41.7105C79.0907 34.2113 71.8853 40.81 71.8853 40.81C71.9473 41.474 71.9473 42.1423 71.8853 42.8062C71.8853 42.8233 71.8853 42.8428 71.8853 42.8599C71.7428 44.708 71.2329 46.5091 70.3856 48.1579C68.4291 51.9063 76.2329 52.3578 76.2329 52.3578Z" fill="#FDC2CC"/>
<path opacity="0.1" d="M72.557 41.7642C73.4485 42.6305 73.9931 44.2046 75.3341 44.2046C76.3043 44.2067 77.2535 43.9223 78.0624 43.387C78.0624 42.8794 78.1112 42.323 78.1845 41.7105C79.0858 34.2113 71.8804 40.81 71.8804 40.81C71.8804 40.81 72.6522 40.544 72.557 41.7642Z" fill="black"/>
<path d="M75.3343 43.9606C78.07 43.9606 80.2877 41.7448 80.2877 39.0115C80.2877 36.2782 78.07 34.0625 75.3343 34.0625C72.5986 34.0625 70.3809 36.2782 70.3809 39.0115C70.3809 41.7448 72.5986 43.9606 75.3343 43.9606Z" fill="#FDC2CC"/>
<path opacity="0.1" d="M80.0851 32.6739C79.8011 32.3152 79.4728 31.9938 79.1081 31.7173C78.5366 31.2414 77.9015 30.7411 77.1907 30.7851C76.7886 30.8385 76.4023 30.9766 76.0574 31.1902C74.2866 32.1224 72.8187 31.2414 70.7596 34.0137C70.32 34.6067 69.4382 34.7458 68.9839 35.3681C68.5296 35.9903 68.3464 36.8079 68.217 37.6034C68.11 38.1416 68.0844 38.6927 68.1413 39.2385C68.1955 39.7741 68.4588 40.2668 68.874 40.6099C69.3479 40.954 70 40.9565 70.3981 41.4079C70.5983 41.702 70.7623 42.0191 70.8866 42.3523C71.0478 42.6696 71.3312 42.9698 71.6536 42.9234C71.976 42.877 72.1689 42.528 72.2154 42.1913C72.2355 41.8427 72.215 41.493 72.1543 41.1492C72.0932 40.5318 72.1714 39.8583 72.5353 39.3922C72.7796 39.0725 73.146 38.8822 73.3878 38.5576C73.9691 37.7742 73.7053 36.4589 74.3428 35.7317C74.5292 35.5404 74.7631 35.4019 75.0205 35.3303C75.2779 35.2587 75.5498 35.2566 75.8083 35.3241C76.3217 35.4705 76.8142 35.6821 77.2738 35.9537C77.915 36.2771 78.5867 36.5363 79.2791 36.7273C79.8604 36.886 80.5345 37.2666 80.7324 36.4833C81.0426 35.3314 80.7519 33.5939 80.0851 32.6739Z" fill="black"/>
<path d="M80.0851 32.4299C79.8011 32.0712 79.4728 31.7497 79.1081 31.4732C78.5366 30.9974 77.9015 30.4971 77.1907 30.541C76.7886 30.5945 76.4023 30.7326 76.0574 30.9461C74.2866 31.8783 72.8187 30.9974 70.7596 33.7696C70.32 34.3626 69.4382 34.5017 68.9839 35.124C68.5296 35.7463 68.3464 36.5638 68.217 37.3594C68.11 37.8975 68.0844 38.4487 68.1413 38.9944C68.1955 39.53 68.4588 40.0228 68.874 40.3659C69.3479 40.71 70 40.7124 70.3981 41.1639C70.5983 41.458 70.7623 41.775 70.8866 42.1083C71.0478 42.4256 71.3312 42.7257 71.6536 42.6793C71.976 42.633 72.1689 42.284 72.2154 41.9472C72.2355 41.5987 72.215 41.249 72.1543 40.9052C72.0932 40.2878 72.1714 39.6143 72.5353 39.1482C72.7796 38.8285 73.146 38.6381 73.3878 38.3136C73.9691 37.5302 73.7053 36.2149 74.3428 35.4876C74.5292 35.2964 74.7631 35.1579 75.0205 35.0863C75.2779 35.0147 75.5498 35.0126 75.8083 35.0801C76.3217 35.2265 76.8142 35.4381 77.2738 35.7097C77.915 36.0331 78.5867 36.2922 79.2791 36.4833C79.8604 36.6419 80.5345 37.0226 80.7324 36.2393C81.0426 35.0874 80.7519 33.3499 80.0851 32.4299Z" fill="#865A61"/>
<path opacity="0.1" d="M70.381 54.9616L70.2833 58.7076C71.7027 59.093 73.1673 59.2875 74.6383 59.2859C74.8825 59.2859 75.139 59.2859 75.3881 59.2688C76.6925 59.2127 77.9856 59.0013 79.24 58.6392H79.2644C79.4964 58.5709 79.726 58.5001 79.9532 58.422H79.9776L80.1852 58.3488C80.9758 58.0706 81.7435 57.7312 82.4812 57.3336L82.5276 57.3092C82.6082 57.2653 82.6888 57.2214 82.7718 57.175L82.3932 52.1259L82.9965 48.6631L79.6943 46.4155C79.5089 46.683 79.3014 46.9344 79.0739 47.1671C78.7479 47.5073 78.3663 47.7895 77.9454 48.0017C75.5762 49.1682 72.8797 47.3135 71.5387 46.1666L71.2334 45.8957C70.8866 45.5809 70.6887 45.3661 70.6887 45.3661L69.0376 47.9139L70.381 54.9616Z" fill="black"/>
<path d="M70.381 55.2057L70.2833 58.9516C71.7027 59.337 73.1673 59.5315 74.6383 59.53C74.8825 59.53 75.139 59.53 75.3881 59.5129C76.6925 59.4567 77.9856 59.2454 79.24 58.8833H79.2644C79.4964 58.8149 79.726 58.7442 79.9532 58.6661H79.9776L80.1852 58.5929C80.9758 58.3147 81.7435 57.9752 82.4812 57.5777L82.5276 57.5533C82.6082 57.5093 82.6888 57.4654 82.7718 57.419L82.3932 52.37L82.9965 48.9071L79.6943 46.6595C79.5089 46.927 79.3014 47.1784 79.0739 47.4112C78.7479 47.7513 78.3663 48.0336 77.9454 48.2458C75.5762 49.4123 72.8797 47.5576 71.5387 46.4106L71.2334 46.1397C70.8866 45.8249 70.6887 45.6102 70.6887 45.6102L69.0376 48.1579L70.381 55.2057Z" fill="#53526B"/>
<path d="M79.5351 55.5058C79.5351 55.5058 79.7159 56.9432 79.9528 58.6612H79.9772L80.1848 58.588C80.9754 58.3098 81.7431 57.9704 82.4808 57.5728L82.5272 57.5484C82.6078 57.5045 82.6884 57.4606 82.7714 57.4142C83.8542 56.807 84.8653 56.0801 85.7855 55.2471L85.8661 55.1715C86.3707 54.7151 86.8448 54.2259 87.2852 53.7073L87.3365 53.6463C86.4645 50.6227 84.6497 49.6709 84.6497 49.6709C84.6497 49.6709 82.9986 48.9193 82.5467 47.87C82.0949 46.8206 78.1063 44.6023 78.1063 44.6023V44.6194C78.1063 44.8073 78.0427 46.5278 77.9475 48.258C77.8864 49.383 77.8107 50.5129 77.7228 51.2303C77.7037 51.4634 77.6612 51.694 77.5958 51.9185C77.2856 52.6579 79.5351 55.5058 79.5351 55.5058Z" fill="#555388"/>
</g>
<defs>
<linearGradient id="paint0_linear" x1="125.613" y1="193.91" x2="125.613" y2="9.58812" gradientUnits="userSpaceOnUse">
<stop stop-color="#808080" stop-opacity="0.25"/>
<stop offset="0.54" stop-color="#808080" stop-opacity="0.12"/>
<stop offset="1" stop-color="#808080" stop-opacity="0.1"/>
</linearGradient>
<linearGradient id="paint1_linear" x1="9135.78" y1="15118" x2="9135.78" y2="11543.8" gradientUnits="userSpaceOnUse">
<stop stop-color="#808080" stop-opacity="0.25"/>
<stop offset="0.54" stop-color="#808080" stop-opacity="0.12"/>
<stop offset="1" stop-color="#808080" stop-opacity="0.1"/>
</linearGradient>
<linearGradient id="paint2_linear" x1="-42709.4" y1="115102" x2="-42709.4" y2="43142.8" gradientUnits="userSpaceOnUse">
<stop stop-color="#808080" stop-opacity="0.25"/>
<stop offset="0.54" stop-color="#808080" stop-opacity="0.12"/>
<stop offset="1" stop-color="#808080" stop-opacity="0.1"/>
</linearGradient>
<linearGradient id="paint3_linear" x1="66229.2" y1="71189.5" x2="66229.2" y2="6844.46" gradientUnits="userSpaceOnUse">
<stop stop-color="#808080" stop-opacity="0.25"/>
<stop offset="0.54" stop-color="#808080" stop-opacity="0.12"/>
<stop offset="1" stop-color="#808080" stop-opacity="0.1"/>
</linearGradient>
<clipPath id="clip0">
<rect width="272" height="206" fill="white"/>
</clipPath>
</defs>
</svg>
