<svg width="24" height="24" viewBox="0 0 24 24" fill="none" xmlns="http://www.w3.org/2000/svg">
<path d="M12 22C9.34784 22 6.8043 20.9464 4.92893 19.0711C3.05357 17.1957 2 14.6522 2 12C2 9.34784 3.05357 6.8043 4.92893 4.92893C6.8043 3.05357 9.34784 2 12 2C14.6522 2 17.1957 3.05357 19.0711 4.92893C20.9464 6.8043 22 9.34784 22 12C22 14.6522 20.9464 17.1957 19.0711 19.0711C17.1957 20.9464 14.6522 22 12 22V22ZM12 20C14.1217 20 16.1566 19.1571 17.6569 17.6569C19.1571 16.1566 20 14.1217 20 12C20 9.87827 19.1571 7.84344 17.6569 6.34315C16.1566 4.84285 14.1217 4 12 4C9.87827 4 7.84344 4.84285 6.34315 6.34315C4.84285 7.84344 4 9.87827 4 12C4 14.1217 4.84285 16.1566 6.34315 17.6569C7.84344 19.1571 9.87827 20 12 20V20ZM10.59 8.59C10.4968 8.68324 10.3861 8.7572 10.2642 8.80766C10.1424 8.85812 10.0119 8.88409 9.88 8.88409C9.74814 8.88409 9.61757 8.85812 9.49575 8.80766C9.37393 8.7572 9.26324 8.68324 9.17 8.59C9.07676 8.49676 9.0028 8.38607 8.95234 8.26425C8.90188 8.14243 8.87591 8.01186 8.87591 7.88C8.87591 7.74814 8.90188 7.61757 8.95234 7.49575C9.0028 7.37393 9.07676 7.26324 9.17 7.17C9.92056 6.41944 10.9385 5.99778 12 5.99778C13.0615 5.99778 14.0794 6.41944 14.83 7.17C15.5806 7.92056 16.0022 8.93854 16.0022 10C16.0022 11.0615 15.5806 12.0794 14.83 12.83L12.71 14.95C12.6168 15.0432 12.5061 15.1172 12.3842 15.1677C12.2624 15.2181 12.1319 15.2441 12 15.2441C11.8681 15.2441 11.7376 15.2181 11.6158 15.1677C11.4939 15.1172 11.3832 15.0432 11.29 14.95C11.1968 14.8568 11.1228 14.7461 11.0723 14.6242C11.0219 14.5024 10.9959 14.3719 10.9959 14.24C10.9959 14.1081 11.0219 13.9776 11.0723 13.8558C11.1228 13.7339 11.1968 13.6232 11.29 13.53L13.41 11.41C13.7153 11.0255 13.8686 10.5422 13.8406 10.052C13.8126 9.56185 13.6052 9.09912 13.258 8.75195C12.9109 8.40479 12.4481 8.19745 11.958 8.16943C11.4678 8.14141 10.9845 8.29466 10.6 8.6L10.59 8.59ZM12 18C11.7348 18 11.4804 17.8946 11.2929 17.7071C11.1054 17.5196 11 17.2652 11 17C11 16.7348 11.1054 16.4804 11.2929 16.2929C11.4804 16.1054 11.7348 16 12 16C12.2652 16 12.5196 16.1054 12.7071 16.2929C12.8946 16.4804 13 16.7348 13 17C13 17.2652 12.8946 17.5196 12.7071 17.7071C12.5196 17.8946 12.2652 18 12 18Z" fill="#6E7A8A"/>
</svg>
