<svg width="24" height="24" viewBox="0 0 24 24" fill="none" xmlns="http://www.w3.org/2000/svg">
<path d="M16.32 14.9L21.71 20.3C21.8725 20.4924 21.9565 20.7392 21.945 20.9908C21.9335 21.2425 21.8275 21.4805 21.6481 21.6574C21.4687 21.8343 21.2292 21.9369 20.9774 21.9448C20.7256 21.9527 20.4801 21.8653 20.29 21.7L14.91 16.32C13.3027 17.5686 11.2799 18.1576 9.25358 17.9671C7.22725 17.7767 5.34968 16.8211 4.00319 15.2949C2.65671 13.7687 1.94254 11.7867 2.0061 9.75238C2.06967 7.71811 2.9062 5.78454 4.34535 4.34539C5.7845 2.90624 7.71806 2.06972 9.75234 2.00615C11.7866 1.94258 13.7686 2.65675 15.2948 4.00324C16.821 5.34973 17.7766 7.22729 17.9671 9.25363C18.1576 11.28 17.5685 13.3027 16.32 14.91V14.9ZM9.99995 16C11.5913 16 13.1174 15.3679 14.2426 14.2426C15.3678 13.1174 16 11.5913 16 10C16 8.4087 15.3678 6.88258 14.2426 5.75736C13.1174 4.63214 11.5913 4 9.99995 4C8.40865 4 6.88253 4.63214 5.75731 5.75736C4.63209 6.88258 3.99995 8.4087 3.99995 10C3.99995 11.5913 4.63209 13.1174 5.75731 14.2426C6.88253 15.3679 8.40865 16 9.99995 16Z" fill="#6E7A8A"/>
</svg>
