<svg width="1081" height="749" viewBox="0 0 1081 749" fill="none" xmlns="http://www.w3.org/2000/svg">
<g clip-path="url(#clip0)">
<path d="M772.232 511.469C772.232 579.162 731.99 602.798 682.348 602.798C632.707 602.798 592.464 579.162 592.464 511.469C592.464 443.776 682.348 357.66 682.348 357.66C682.348 357.66 772.232 443.776 772.232 511.469Z" fill="#6C63FF"/>
<path d="M679.994 535.79L718.305 465.702L680.138 526.903L680.552 501.43L706.956 450.722L680.662 494.688L681.406 448.873L709.68 408.504L681.523 441.669L681.988 357.66L679.191 464.109L650.56 420.284L678.845 473.092L676.166 524.259L676.087 522.901L642.948 476.597L675.986 527.699L675.651 534.098L675.591 534.195L675.619 534.72L668.823 603H677.902L678.992 597.484L711.949 546.507L679.074 592.443L679.994 535.79Z" fill="#3F3D56"/>
<path d="M1080.05 293.814C1080.05 423.124 1003.18 468.275 908.348 468.275C813.52 468.275 736.647 423.124 736.647 293.814C736.647 164.503 908.348 0 908.348 0C908.348 0 1080.05 164.503 1080.05 293.814Z" fill="#F2F2F2"/>
<path d="M902.093 448.494L903.851 340.273L977.035 206.388L904.127 323.296L904.918 274.635L955.355 177.771L905.127 261.758V261.759L906.549 174.24L960.558 97.124L906.772 160.478L907.661 0L902.078 212.444L902.537 203.68L847.625 119.628L901.656 220.503L896.54 318.246L896.387 315.652L833.084 227.2L896.196 324.817L895.556 337.041L895.441 337.225L895.494 338.228L882.513 586.21H899.856L901.937 458.123L964.894 360.745L902.093 448.494Z" fill="#3F3D56"/>
<path d="M1073 564.558C1073 603.154 822.631 748.002 529.948 748.002C237.266 748.002 0 673.037 0 634.442C0 595.846 231.442 641.721 524.125 641.721C816.807 641.721 1073 525.963 1073 564.558Z" fill="#3F3D56"/>
<path opacity="0.1" d="M1073 564.558C1073 603.154 822.631 748.002 529.948 748.002C237.266 748.002 0 673.037 0 634.442C0 595.846 231.442 641.721 524.125 641.721C816.807 641.721 1073 525.963 1073 564.558Z" fill="black"/>
<path d="M1073 564.559C1073 603.154 822.631 704.325 529.948 704.325C237.266 704.325 0 673.037 0 634.442C0 595.846 231.442 598.044 524.125 598.044C816.807 598.044 1073 525.963 1073 564.559Z" fill="#3F3D56"/>
<path opacity="0.1" d="M535.878 659.181C660.167 659.181 760.922 651.387 760.922 641.774C760.922 632.16 660.167 624.367 535.878 624.367C411.59 624.367 310.834 632.16 310.834 641.774C310.834 651.387 411.59 659.181 535.878 659.181Z" fill="black"/>
<path d="M357.598 292.966C357.598 292.966 423.482 294.186 411.281 305.776C399.08 317.367 353.328 305.776 353.328 305.776L357.598 292.966Z" fill="#A0616A"/>
<path d="M220.328 152.183C220.328 152.183 246.929 147.433 256.178 168.906C265.427 190.38 284.422 251.622 284.422 251.622C284.422 251.622 335.255 285.27 344.501 284.165C353.747 283.059 369.553 285.315 366.653 295.402C363.754 305.489 365.041 316.927 358.366 318.329C351.691 319.73 341.076 306.349 332.951 312.794C324.827 319.24 252.421 295.698 247.773 290.82C243.124 285.942 204.494 180.319 204.494 180.319C204.494 180.319 206.039 151.839 220.328 152.183Z" fill="#6C63FF"/>
<path d="M277.379 605.607L280.429 631.228L254.808 637.939L240.167 631.228V608.657L277.379 605.607Z" fill="#A0616A"/>
<path d="M208.445 622.078L211.495 647.699L185.874 654.41L171.233 647.699V625.128L208.445 622.078Z" fill="#A0616A"/>
<path d="M279.819 325.602L291.41 367.695L308.49 453.099C308.49 453.099 313.371 473.84 303.61 498.852C293.85 523.863 276.159 605.607 279.819 610.487C283.479 615.368 238.337 619.028 238.947 614.147C239.557 609.267 245.657 542.164 245.657 542.164C245.657 542.164 254.198 482.991 258.468 475.67C262.738 468.35 238.947 450.049 238.947 450.049C238.947 450.049 232.847 520.203 223.696 526.303C214.546 532.403 215.766 626.958 211.495 628.178C207.225 629.398 176.114 634.279 172.453 628.178C168.793 622.078 172.453 520.203 172.453 520.203C172.453 520.203 193.194 442.729 188.924 431.748C184.654 420.767 187.094 373.795 187.094 373.795C187.094 373.795 171.233 337.803 179.774 318.892L279.819 325.602Z" fill="#2F2E41"/>
<path d="M277.989 91.3501C277.989 91.3501 252.367 123.072 253.588 137.103C254.808 151.133 213.325 111.481 213.325 111.481C213.325 111.481 243.217 71.2191 243.217 62.6786C243.217 54.1382 277.989 91.3501 277.989 91.3501Z" fill="#A0616A"/>
<path d="M277.684 103.246C299.92 103.246 317.946 85.2198 317.946 62.9837C317.946 40.7475 299.92 22.7216 277.684 22.7216C255.448 22.7216 237.422 40.7475 237.422 62.9837C237.422 85.2198 255.448 103.246 277.684 103.246Z" fill="#A0616A"/>
<path d="M176.217 302.781C174.393 309.577 172.13 317.282 172.453 323.772C172.661 327.975 183.818 330.733 199.246 332.538C213.551 334.216 231.529 335.07 247.872 335.509C265.032 335.973 280.374 335.973 287.749 335.973C309.711 335.973 292.02 321.942 283.479 315.232C274.939 308.522 276.769 213.357 277.379 201.156C277.989 188.955 271.889 153.573 271.889 146.863C271.889 140.153 257.535 122.639 257.535 122.639C257.535 122.639 254.198 132.222 240.777 119.412C227.356 106.601 209.665 102.941 209.665 102.941C196.245 107.821 173.673 161.504 172.453 170.654C171.959 174.369 172.368 193.396 173.198 215.12C174.399 246.872 176.498 284.407 177.944 288.39C179.084 291.532 177.822 296.803 176.217 302.781Z" fill="#6C63FF"/>
<path d="M241.387 338.413L245.657 353.664L229.186 370.745L223.696 346.953L241.387 338.413Z" fill="#A0616A"/>
<path d="M246.877 624.518C246.877 624.518 259.688 639.159 269.448 629.398C279.209 619.638 278.599 613.537 280.429 613.537C282.259 613.537 309.711 637.939 309.711 637.939C309.711 637.939 356.683 648.919 331.062 656.85C305.44 664.78 232.847 659.29 232.847 656.85C232.847 654.41 231.016 622.078 237.727 622.078L246.877 624.518Z" fill="#2F2E41"/>
<path d="M177.944 640.989C177.944 640.989 190.754 655.63 200.515 645.869C210.275 636.109 209.665 630.008 211.495 630.008C213.326 630.008 240.777 654.41 240.777 654.41C240.777 654.41 287.749 665.39 262.128 673.321C236.507 681.251 163.913 675.761 163.913 673.321C163.913 670.88 162.083 638.549 168.793 638.549L177.944 640.989Z" fill="#2F2E41"/>
<path d="M232.481 95.1228C231.18 95.9631 229.487 96.8146 228.184 95.9769C223.343 83.9014 219.724 71.371 217.381 58.5736C216.559 54.0784 215.988 49.0812 218.486 45.2542C219.471 43.7448 220.888 42.5105 221.61 40.8588C222.702 38.3576 221.983 35.4624 222.346 32.7572C223.107 27.0898 228.464 23.137 233.851 21.2199C239.239 19.3028 245.09 18.7082 250.225 16.1926C255.101 13.804 259.006 9.84258 263.527 6.83647C268.049 3.83036 273.84 1.77498 278.875 3.8063C283.33 5.6033 286.104 10.1436 290.315 12.4554C293.172 14.0242 296.487 14.4608 299.676 15.1342C308.54 17.0148 316.862 20.8811 324.016 26.4423C325.757 27.6839 327.258 29.2311 328.446 31.0087C333.849 39.904 324.175 51.9975 328.443 61.4898L319.216 54.2093C316.752 52.0541 313.974 50.288 310.976 48.9723C307.92 47.8146 304.3 47.6748 301.524 49.3992C297.628 51.8192 296.572 56.875 295.21 61.2549C293.849 65.6348 290.84 70.4917 286.255 70.3795C280.019 70.2269 277.839 61.5248 272.243 58.7697C268.595 56.9737 264.003 58.1564 260.893 60.7759C257.784 63.3951 255.918 67.1956 254.549 71.0241C253.694 73.4167 252.891 76.1137 251.372 78.1876C249.697 80.4749 247.554 80.6589 245.765 82.367C241.107 86.8133 238.243 91.4003 232.481 95.1228Z" fill="#2F2E41"/>
<path opacity="0.1" d="M176.217 302.781C183.8 313.78 192.346 325.127 199.246 332.538C213.551 334.216 231.529 335.07 247.872 335.509C244.952 331.551 241.301 328.188 237.117 325.602C229.186 320.722 210.275 262.769 210.275 262.769C210.275 262.769 233.457 202.986 239.557 180.415C245.657 157.844 221.866 145.033 221.866 145.033C210.885 135.882 191.974 157.234 191.974 157.234C191.974 157.234 182.324 186.344 173.198 215.119C174.399 246.872 176.498 284.407 177.944 288.39C179.084 291.532 177.822 296.803 176.217 302.781Z" fill="black"/>
<path d="M220.036 140.153C220.036 140.153 243.827 152.963 237.727 175.534C231.626 198.106 208.445 257.889 208.445 257.889C208.445 257.889 227.356 315.842 235.287 320.722C243.217 325.602 254.198 337.193 245.657 343.293C237.117 349.394 231.016 359.154 224.916 356.104C218.816 353.054 218.816 335.973 208.445 335.973C198.075 335.973 155.982 272.53 155.372 265.819C154.762 259.109 190.144 152.353 190.144 152.353C190.144 152.353 209.055 131.002 220.036 140.153Z" fill="#6C63FF"/>
<path d="M714.746 306.892L707.883 300.029C703.88 296.026 698.451 293.777 692.79 293.777C687.129 293.777 681.7 296.026 677.697 300.029L544.582 433.144L411.466 300.029C407.464 296.026 402.034 293.777 396.373 293.777C390.712 293.777 385.283 296.026 381.28 300.029L374.418 306.892C372.435 308.874 370.863 311.227 369.791 313.817C368.718 316.406 368.166 319.182 368.166 321.985C368.166 324.788 368.718 327.564 369.791 330.153C370.863 332.743 372.435 335.096 374.418 337.078L507.533 470.193L374.418 603.309C372.435 605.291 370.863 607.644 369.791 610.233C368.718 612.823 368.166 615.599 368.166 618.402C368.166 621.205 368.718 623.98 369.791 626.57C370.863 629.16 372.435 631.513 374.418 633.495L381.28 640.358C385.283 644.36 390.712 646.609 396.373 646.609C402.034 646.609 407.464 644.36 411.466 640.358L544.582 507.242L677.697 640.358C681.7 644.36 687.129 646.609 692.79 646.609C698.451 646.609 703.88 644.36 707.883 640.358L714.746 633.495C718.749 629.492 720.998 624.063 720.998 618.402C720.998 612.741 718.749 607.311 714.746 603.309L581.631 470.193L714.746 337.078C718.749 333.075 720.998 327.646 720.998 321.985C720.998 316.324 718.749 310.895 714.746 306.892Z" fill="#FF6584"/>
<path opacity="0.1" d="M369.667 610.546L498.829 481.383L497.586 480.14L374.417 603.309C372.354 605.37 370.737 607.833 369.667 610.546Z" fill="black"/>
<path opacity="0.1" d="M372.577 311.219C376.58 307.216 382.009 304.967 387.67 304.967C393.331 304.967 398.76 307.216 402.763 311.219L535.878 444.334L668.993 311.219C672.996 307.216 678.426 304.967 684.087 304.967C689.748 304.967 695.177 307.216 699.18 311.219L706.042 318.082C708.987 321.027 711.005 324.769 711.849 328.846C712.693 332.924 712.326 337.159 710.793 341.031L714.746 337.078C716.728 335.096 718.3 332.743 719.373 330.153C720.445 327.564 720.998 324.788 720.998 321.985C720.998 319.182 720.445 316.406 719.373 313.817C718.3 311.227 716.728 308.874 714.746 306.892L707.883 300.029C703.88 296.026 698.451 293.777 692.79 293.777C687.129 293.777 681.7 296.026 677.697 300.029L544.582 433.144L411.466 300.029C407.464 296.026 402.034 293.777 396.373 293.777C390.712 293.777 385.283 296.026 381.28 300.029L374.417 306.892C372.354 308.953 370.737 311.417 369.667 314.129L372.577 311.219Z" fill="black"/>
<path opacity="0.1" d="M582.874 471.437L572.927 481.383L706.042 614.499C708.987 617.443 711.005 621.185 711.849 625.263C712.693 629.341 712.326 633.576 710.793 637.448L714.746 633.495C716.728 631.513 718.3 629.16 719.373 626.57C720.446 623.98 720.998 621.205 720.998 618.402C720.998 615.599 720.446 612.823 719.373 610.233C718.3 607.644 716.728 605.291 714.746 603.309L582.874 471.437Z" fill="black"/>
<path d="M155 560.192C155 616.414 121.577 636.044 80.348 636.044C39.1189 636.044 5.69604 616.414 5.69604 560.192C5.69604 503.971 80.348 432.448 80.348 432.448C80.348 432.448 155 503.971 155 560.192Z" fill="#6C63FF"/>
<path d="M78.393 580.392L110.212 522.181L78.513 573.011L78.857 551.854L100.786 509.739L78.948 546.255L79.566 508.204L103.048 474.675L79.663 502.221L80.049 432.448L77.726 520.858L53.947 484.46L77.438 528.318L75.214 570.815L75.148 569.687L47.625 531.23L75.064 573.672L74.786 578.987L74.736 579.067L74.759 579.503L69.115 636.212H76.656L77.561 631.631L104.933 589.293L77.629 627.444L78.393 580.392Z" fill="#3F3D56"/>
</g>
<defs>
<clipPath id="clip0">
<rect width="1080.05" height="748.002" fill="white"/>
</clipPath>
</defs>
</svg>
