<svg width="1114" height="845" viewBox="0 0 1114 845" fill="none" xmlns="http://www.w3.org/2000/svg">
<g clip-path="url(#clip0)">
<path opacity="0.1" d="M1047 458.22C1007.85 511.94 1020.77 588.62 1043.4 649.71C1050.98 670.16 1059.59 691.79 1055.66 714.04C1050.86 741.24 1028.3 761.62 1004.85 772.72C962.1 792.95 911.6 789.72 873.36 764.23C840.36 742.23 817.13 705.67 783.49 684.72C727.19 649.67 654.1 665.33 591.44 692.09C547.11 711.02 498.55 735.4 455.35 717.92C424.95 705.62 404.48 674.31 393.71 640.84C388.51 624.68 384.87 607.14 374.51 594.49C368.35 586.97 360.21 581.73 351.84 577.35C275.45 537.35 177.19 562.35 103.13 517.72C53.13 487.58 22.01 429.09 9.08001 367.6C-3.84999 306.11 -0.649993 241.2 4.50001 177.4C8.16001 132.06 13.95 83.61 41.21 47.98C70.04 10.31 118.36 -4.66002 161.57 1.23998C204.78 7.13998 243.52 31.14 277.41 59.79C319.8 95.53 358.8 140.4 411.52 153.97C447.43 163.21 485.58 156.67 522.91 153.78C585.31 148.96 647.49 154.51 709.29 160.78C768.45 166.78 828.02 173.48 884.05 193.15C923.7 207.07 955.13 233.38 992.46 251.36C1016.79 263.08 1043.56 265.8 1066.46 280.94C1094.72 299.59 1120.26 332.63 1111.97 372.28C1104.14 409.97 1067.8 429.71 1047 458.22Z" fill="#6C63FF"/>
<g opacity="0.5">
<path opacity="0.5" d="M854.99 703.24C854.99 703.24 858.29 605.48 911.18 550.24C933.38 527.06 947.96 497.62 951.82 465.76C953.624 450.64 954.039 435.386 953.06 420.19" stroke="#535461" stroke-width="2" stroke-miterlimit="10"/>
<path opacity="0.5" d="M986.19 385.2C982.57 396.12 952.31 421.2 952.31 421.2C952.31 421.2 943.04 382.99 946.66 372.08C947.521 369.484 948.884 367.084 950.673 365.015C952.462 362.947 954.64 361.251 957.084 360.024C959.528 358.797 962.19 358.064 964.917 357.866C967.645 357.668 970.384 358.009 972.98 358.87C975.576 359.731 977.976 361.094 980.045 362.883C982.113 364.672 983.809 366.85 985.036 369.294C986.263 371.738 986.996 374.4 987.194 377.127C987.392 379.855 987.051 382.594 986.19 385.19V385.2Z" fill="#6C63FF"/>
<path opacity="0.5" d="M998.8 456.5C989.8 463.7 950.8 468.32 950.8 468.32C950.8 468.32 963.8 431.21 972.8 424.02C974.917 422.178 977.384 420.782 980.054 419.917C982.724 419.053 985.541 418.737 988.336 418.988C991.131 419.24 993.846 420.054 996.318 421.381C998.791 422.709 1000.97 424.522 1002.72 426.713C1004.48 428.904 1005.77 431.427 1006.52 434.13C1007.28 436.833 1007.48 439.661 1007.11 442.443C1006.74 445.225 1005.82 447.905 1004.39 450.32C1002.96 452.736 1001.06 454.838 998.8 456.5Z" fill="#6C63FF"/>
<path opacity="0.5" d="M963.12 559.34C951.74 561.02 915.71 545.34 915.71 545.34C915.71 545.34 945.65 519.86 957.03 518.18C959.735 517.78 962.493 517.917 965.145 518.583C967.797 519.249 970.293 520.43 972.488 522.06C974.684 523.691 976.537 525.737 977.942 528.083C979.346 530.43 980.275 533.03 980.675 535.735C981.075 538.44 980.938 541.198 980.272 543.85C979.606 546.502 978.425 548.998 976.795 551.193C975.164 553.389 973.118 555.242 970.771 556.647C968.425 558.051 965.825 558.98 963.12 559.38V559.34Z" fill="#6C63FF"/>
<path opacity="0.5" d="M918.59 631.08C907.66 634.66 869.49 625.26 869.49 625.26C869.49 625.26 894.7 595.09 905.63 591.51C910.877 589.786 916.595 590.217 921.524 592.709C926.453 595.2 930.191 599.548 931.915 604.795C933.639 610.042 933.208 615.76 930.716 620.689C928.225 625.618 923.877 629.356 918.63 631.08H918.59Z" fill="#6C63FF"/>
<path opacity="0.5" d="M908.59 456.67C913.9 466.87 947.8 486.84 947.8 486.84C947.8 486.84 950.88 447.65 945.57 437.44C944.308 435.014 942.581 432.861 940.486 431.103C938.392 429.345 935.972 428.017 933.365 427.194C930.757 426.372 928.013 426.071 925.29 426.308C922.566 426.546 919.915 427.318 917.49 428.58C915.064 429.842 912.911 431.569 911.153 433.664C909.395 435.758 908.067 438.178 907.244 440.785C906.422 443.392 906.121 446.136 906.358 448.86C906.596 451.584 907.368 454.234 908.63 456.66L908.59 456.67Z" fill="#6C63FF"/>
<path opacity="0.5" d="M857.58 541.22C865.7 549.37 903.98 558.29 903.98 558.29C903.98 558.29 895.19 519.97 887.08 511.82C883.183 507.908 877.891 505.705 872.369 505.694C866.847 505.684 861.547 507.868 857.635 511.765C853.723 515.662 851.52 520.954 851.509 526.476C851.499 531.998 853.683 537.298 857.58 541.21V541.22Z" fill="#6C63FF"/>
<path opacity="0.5" d="M819.28 630.21C825.9 639.61 862.13 654.88 862.13 654.88C862.13 654.88 859.95 615.63 853.32 606.22C851.786 603.887 849.799 601.887 847.476 600.337C845.153 598.788 842.542 597.722 839.799 597.202C837.056 596.683 834.236 596.72 831.508 597.312C828.78 597.904 826.198 599.039 823.917 600.649C821.636 602.259 819.702 604.312 818.231 606.684C816.759 609.057 815.78 611.701 815.351 614.46C814.922 617.219 815.052 620.036 815.734 622.743C816.416 625.451 817.635 627.993 819.32 630.22L819.28 630.21Z" fill="#6C63FF"/>
<path opacity="0.5" d="M866.61 662.78C866.61 662.78 836.61 619.14 841.87 578.08C844.188 560.872 840.861 543.377 832.39 528.22C828.311 521.056 823.585 514.281 818.27 507.98" stroke="#535461" stroke-width="2" stroke-miterlimit="10"/>
<path opacity="0.5" d="M821.44 482.08C823.37 488 818.27 508.66 818.27 508.66C818.27 508.66 801.94 495 800.01 489.09C799.082 486.248 799.32 483.154 800.673 480.488C802.027 477.822 804.383 475.803 807.225 474.875C810.067 473.947 813.161 474.185 815.827 475.538C818.493 476.892 820.512 479.248 821.44 482.09V482.08Z" fill="#6C63FF"/>
<path opacity="0.5" d="M849.87 509.07C848.28 515.07 832.76 529.66 832.76 529.66C832.76 529.66 826.48 509.32 828.07 503.3C828.835 500.409 830.717 497.941 833.303 496.438C835.888 494.934 838.964 494.52 841.855 495.285C844.746 496.05 847.214 497.932 848.717 500.518C850.221 503.103 850.635 506.179 849.87 509.07Z" fill="#6C63FF"/>
<path opacity="0.5" d="M867.41 565.33C863 569.72 842.25 574.47 842.25 574.47C842.25 574.47 847.09 553.74 851.51 549.35C852.561 548.306 853.807 547.479 855.177 546.917C856.547 546.354 858.014 546.067 859.495 546.072C860.976 546.076 862.442 546.373 863.809 546.944C865.175 547.515 866.416 548.349 867.46 549.4C868.504 550.451 869.331 551.696 869.893 553.067C870.456 554.437 870.743 555.904 870.738 557.385C870.734 558.866 870.437 560.332 869.866 561.699C869.295 563.065 868.461 564.306 867.41 565.35V565.33Z" fill="#6C63FF"/>
<path opacity="0.5" d="M871.1 610.9C867.49 615.97 847.8 624.14 847.8 624.14C847.8 624.14 849.07 602.89 852.68 597.82C853.538 596.613 854.624 595.587 855.878 594.8C857.133 594.013 858.529 593.481 859.989 593.234C861.449 592.987 862.943 593.03 864.386 593.361C865.829 593.691 867.193 594.302 868.4 595.16C869.607 596.017 870.633 597.104 871.42 598.358C872.207 599.612 872.739 601.009 872.986 602.469C873.233 603.929 873.19 605.423 872.859 606.866C872.529 608.309 871.918 609.673 871.06 610.88L871.1 610.9Z" fill="#6C63FF"/>
<path opacity="0.5" d="M810.64 538.14C816.23 540.88 837.4 538.68 837.4 538.68C837.4 538.68 826.13 520.62 820.54 517.89C817.855 516.577 814.758 516.385 811.931 517.355C809.104 518.326 806.778 520.38 805.465 523.065C804.152 525.75 803.96 528.847 804.93 531.674C805.901 534.502 807.955 536.827 810.64 538.14Z" fill="#6C63FF"/>
<path opacity="0.5" d="M815.63 591.39C821.79 592.33 841.33 583.9 841.33 583.9C841.33 583.9 825.17 570.04 819.02 569.14C816.064 568.69 813.051 569.433 810.643 571.206C808.235 572.978 806.63 575.634 806.18 578.59C805.73 581.546 806.473 584.559 808.246 586.967C810.018 589.375 812.674 590.98 815.63 591.43V591.39Z" fill="#6C63FF"/>
<path opacity="0.5" d="M827.57 642.46C833.48 644.46 854.17 639.46 854.17 639.46C854.17 639.46 840.59 623.07 834.68 621.1C831.842 620.157 828.746 620.38 826.073 621.72C823.399 623.06 821.368 625.407 820.425 628.245C819.482 631.083 819.705 634.179 821.045 636.852C822.385 639.526 824.732 641.557 827.57 642.5V642.46Z" fill="#6C63FF"/>
<path opacity="0.5" d="M821.44 482.08C823.37 488 818.27 508.66 818.27 508.66C818.27 508.66 801.94 495 800.01 489.09C799.082 486.248 799.32 483.154 800.673 480.488C802.027 477.822 804.383 475.803 807.225 474.875C810.067 473.947 813.161 474.185 815.827 475.538C818.493 476.892 820.512 479.248 821.44 482.09V482.08Z" fill="white"/>
<path opacity="0.5" d="M849.87 509.07C848.28 515.07 832.76 529.66 832.76 529.66C832.76 529.66 826.48 509.32 828.07 503.3C828.835 500.409 830.717 497.941 833.303 496.438C835.888 494.934 838.964 494.52 841.855 495.285C844.746 496.05 847.214 497.932 848.717 500.518C850.221 503.103 850.635 506.179 849.87 509.07Z" fill="white"/>
<path opacity="0.5" d="M867.41 565.33C863 569.72 842.25 574.47 842.25 574.47C842.25 574.47 847.09 553.74 851.51 549.35C852.561 548.306 853.807 547.479 855.177 546.917C856.547 546.354 858.014 546.067 859.495 546.072C860.976 546.076 862.442 546.373 863.809 546.944C865.175 547.515 866.416 548.349 867.46 549.4C868.504 550.451 869.331 551.696 869.893 553.067C870.456 554.437 870.743 555.904 870.738 557.385C870.734 558.866 870.437 560.332 869.866 561.699C869.295 563.065 868.461 564.306 867.41 565.35V565.33Z" fill="white"/>
<path opacity="0.5" d="M871.1 610.9C867.49 615.97 847.8 624.14 847.8 624.14C847.8 624.14 849.07 602.89 852.68 597.82C853.538 596.613 854.624 595.587 855.878 594.8C857.133 594.013 858.529 593.481 859.989 593.234C861.449 592.987 862.943 593.03 864.386 593.361C865.829 593.691 867.193 594.302 868.4 595.16C869.607 596.017 870.633 597.104 871.42 598.358C872.207 599.612 872.739 601.009 872.986 602.469C873.233 603.929 873.19 605.423 872.859 606.866C872.529 608.309 871.918 609.673 871.06 610.88L871.1 610.9Z" fill="white"/>
<path opacity="0.5" d="M810.64 538.14C816.23 540.88 837.4 538.68 837.4 538.68C837.4 538.68 826.13 520.62 820.54 517.89C817.855 516.577 814.758 516.385 811.931 517.355C809.104 518.326 806.778 520.38 805.465 523.065C804.152 525.75 803.96 528.847 804.93 531.674C805.901 534.502 807.955 536.827 810.64 538.14Z" fill="white"/>
<path opacity="0.5" d="M815.63 591.39C821.79 592.33 841.33 583.9 841.33 583.9C841.33 583.9 825.17 570.04 819.02 569.14C816.064 568.69 813.051 569.433 810.643 571.206C808.235 572.978 806.63 575.634 806.18 578.59C805.73 581.546 806.473 584.559 808.246 586.967C810.018 589.375 812.674 590.98 815.63 591.43V591.39Z" fill="white"/>
<path opacity="0.5" d="M827.57 642.46C833.48 644.46 854.17 639.46 854.17 639.46C854.17 639.46 840.59 623.07 834.68 621.1C831.842 620.157 828.746 620.38 826.073 621.72C823.399 623.06 821.368 625.407 820.425 628.245C819.482 631.083 819.705 634.179 821.045 636.852C822.385 639.526 824.732 641.557 827.57 642.5V642.46Z" fill="white"/>
<path opacity="0.5" d="M811.1 781.11H896.43L917.77 650.98H789.77L811.1 781.11Z" fill="#474059"/>
<path opacity="0.1" d="M806.1 650.98L826.03 772.58H897.83L896.43 781.11H811.1L789.77 650.98H806.1Z" fill="black"/>
</g>
<path d="M827.28 39.29H201.28V794.59H827.28V39.29Z" fill="url(#paint0_linear)"/>
<path d="M819.28 48.95H209.28V784.95H819.28V48.95Z" fill="white"/>
<path d="M692.28 131.95H446.28V143.95H692.28V131.95Z" fill="#C0BCCF"/>
<path d="M692.28 169.95H446.28V181.95H692.28V169.95Z" fill="#C0BCCF"/>
<path d="M633.28 207.95H505.28V219.95H633.28V207.95Z" fill="#6C63FF"/>
<path opacity="0.5" d="M692.28 372.95H446.28V384.95H692.28V372.95Z" fill="#C0BCCF"/>
<path opacity="0.5" d="M692.28 410.95H446.28V422.95H692.28V410.95Z" fill="#C0BCCF"/>
<path opacity="0.5" d="M633.28 448.95H505.28V460.95H633.28V448.95Z" fill="#6C63FF"/>
<path opacity="0.5" d="M692.28 613.95H446.28V625.95H692.28V613.95Z" fill="#C0BCCF"/>
<path opacity="0.5" d="M692.28 651.95H446.28V663.95H692.28V651.95Z" fill="#C0BCCF"/>
<path opacity="0.5" d="M633.28 689.95H505.28V701.95H633.28V689.95Z" fill="#6C63FF"/>
<g opacity="0.5">
<path opacity="0.5" d="M359.67 439.88L354.51 437.56C354.589 436.776 354.622 435.988 354.61 435.2C354.646 434.534 354.646 433.866 354.61 433.2C354.1 427.94 350.75 423.36 348.38 418.55C346.21 414.159 344.832 409.42 344.31 404.55C343.68 398.55 344.31 392.33 342.11 386.69C340.32 382.14 336.78 378.34 332.99 374.98C328.736 370.988 323.765 367.836 318.34 365.69C312.8 363.69 306.43 363.18 300.89 365.22C295.89 367.06 292.04 370.73 288.32 374.3C285.619 376.68 283.233 379.395 281.22 382.38C278.95 386.1 277.98 390.38 277.22 394.6C276.026 401.356 275.205 408.173 274.76 415.02C274.37 420.73 273.76 427.21 268.88 430.71C266.5 432.42 263.15 433.38 262.06 435.97C261.751 436.748 261.628 437.586 261.7 438.42C261.67 439.114 261.72 439.808 261.85 440.49C261.92 440.89 262 441.28 262.1 441.68C260.699 445.161 259.524 448.728 258.58 452.36C257.85 455.06 257.18 457.71 256.58 460.28H258.2H259.06L268.38 460.5H268.51L278.51 460.73H278.56L287.88 460.95H288.11L290.8 461.14H291.68L328.95 462H329.15L331.63 462.06H332.5L339.96 462.23L350.96 462.48H351.04L359.32 462.68H360.2H361.9L361.46 454C363.28 440.71 359.67 439.88 359.67 439.88ZM317.8 438.82C317.8 446.18 309.92 455.19 309.92 455.19L301.99 444.39L302.28 443.97L309.92 454.37C309.92 454.37 317.8 445.37 317.8 438C317.984 437.625 318.194 437.264 318.43 436.92L318.61 437.48C318.307 437.906 318.037 438.354 317.8 438.82ZM329.92 467.7C329.92 467.33 329.92 466.95 329.85 466.58C329.78 466.21 329.79 465.88 329.74 465.52C329.69 465.16 329.65 464.81 329.6 464.45C329.55 464.09 329.48 463.74 329.41 463.38C329.34 463.02 329.27 462.67 329.19 462.31C329.19 462.19 329.14 462.08 329.11 461.95C329 461.48 328.88 461.01 328.75 460.54C328.62 460.07 328.54 459.78 328.42 459.41C328.42 459.24 328.32 459.07 328.26 458.91C328.2 458.75 328.09 458.37 328 458.1L327.82 457.58C327.74 457.35 327.66 457.11 327.57 456.88C327.42 456.46 327.26 456.05 327.1 455.63C326.94 455.21 326.77 454.8 326.6 454.39C326.26 453.55 325.89 452.72 325.52 451.88C324.07 448.64 322.44 445.45 320.94 442.29C320.136 440.637 319.421 438.941 318.8 437.21L318.61 437.46C318.307 437.889 318.036 438.341 317.8 438.81C317.8 446.17 309.92 455.18 309.92 455.18L301.99 444.38L295.05 454.38C294.05 454.88 293.05 456.58 292.27 459C292.05 459.65 291.84 460.37 291.64 461.12C291.5 461.63 291.37 462.12 291.25 462.69C291.18 462.96 291.12 463.23 291.06 463.51L290.88 464.36V464.49C290.76 465.07 290.64 465.67 290.53 466.28C290.42 466.89 290.29 467.59 290.18 468.28C290.1 468.713 290.03 469.143 289.97 469.57C289.83 470.4 289.71 471.24 289.59 472.08C289.52 472.57 289.45 473.08 289.39 473.53L289.15 475.39C289.66 476.92 290.23 478.39 290.82 479.93C291.195 480.739 291.416 481.61 291.47 482.5C303.772 485.78 316.718 485.78 329.02 482.5C329.016 482.47 329.016 482.44 329.02 482.41C328.836 481.573 328.755 480.717 328.78 479.86C328.982 477.457 329.316 475.067 329.78 472.7C329.928 471.533 329.991 470.356 329.97 469.18V468.76C329.94 468.38 329.93 468.04 329.92 467.71V467.7ZM329.92 467.7C329.92 467.33 329.92 466.95 329.85 466.58C329.78 466.21 329.79 465.88 329.74 465.52C329.69 465.16 329.65 464.81 329.6 464.45C329.55 464.09 329.48 463.74 329.41 463.38C329.34 463.02 329.27 462.67 329.19 462.31C329.19 462.19 329.14 462.08 329.11 461.95C329 461.48 328.88 461.01 328.75 460.54C328.62 460.07 328.54 459.78 328.42 459.41C328.42 459.24 328.32 459.07 328.26 458.91C328.2 458.75 328.09 458.37 328 458.1L327.82 457.58C327.74 457.35 327.66 457.11 327.57 456.88C327.42 456.46 327.26 456.05 327.1 455.63C326.94 455.21 326.77 454.8 326.6 454.39C326.26 453.55 325.89 452.72 325.52 451.88C324.07 448.64 322.44 445.45 320.94 442.29C320.136 440.637 319.421 438.941 318.8 437.21L318.61 437.46C318.307 437.889 318.036 438.341 317.8 438.81C317.8 446.17 309.92 455.18 309.92 455.18L301.99 444.38L295.05 454.38C294.05 454.88 293.05 456.58 292.27 459C292.05 459.65 291.84 460.37 291.64 461.12C291.5 461.63 291.37 462.12 291.25 462.69C291.18 462.96 291.12 463.23 291.06 463.51L290.88 464.36V464.49C290.76 465.07 290.64 465.67 290.53 466.28C290.42 466.89 290.29 467.59 290.18 468.28C290.1 468.713 290.03 469.143 289.97 469.57C289.83 470.4 289.71 471.24 289.59 472.08C289.52 472.57 289.45 473.08 289.39 473.53L289.15 475.39C289.66 476.92 290.23 478.39 290.82 479.93C291.195 480.739 291.416 481.61 291.47 482.5C303.772 485.78 316.718 485.78 329.02 482.5C329.016 482.47 329.016 482.44 329.02 482.41C328.836 481.573 328.755 480.717 328.78 479.86C328.982 477.457 329.316 475.067 329.78 472.7C329.928 471.533 329.991 470.356 329.97 469.18V468.76C329.94 468.38 329.93 468.04 329.92 467.71V467.7ZM329.92 467.7C329.92 467.33 329.92 466.95 329.85 466.58C329.78 466.21 329.79 465.88 329.74 465.52C329.69 465.16 329.65 464.81 329.6 464.45C329.55 464.09 329.48 463.74 329.41 463.38C329.34 463.02 329.27 462.67 329.19 462.31C329.19 462.19 329.14 462.08 329.11 461.95C329 461.48 328.88 461.01 328.75 460.54C328.62 460.07 328.54 459.78 328.42 459.41C328.42 459.24 328.32 459.07 328.26 458.91C328.2 458.75 328.09 458.37 328 458.1L327.82 457.58C327.74 457.35 327.66 457.11 327.57 456.88C327.42 456.46 327.26 456.05 327.1 455.63C326.94 455.21 326.77 454.8 326.6 454.39C326.26 453.55 325.89 452.72 325.52 451.88C324.07 448.64 322.44 445.45 320.94 442.29C320.136 440.637 319.421 438.941 318.8 437.21L318.61 437.46C318.307 437.889 318.036 438.341 317.8 438.81C317.8 446.17 309.92 455.18 309.92 455.18L301.99 444.38L295.05 454.38C294.05 454.88 293.05 456.58 292.27 459C292.05 459.65 291.84 460.37 291.64 461.12C291.5 461.63 291.37 462.12 291.25 462.69C291.18 462.96 291.12 463.23 291.06 463.51L290.88 464.36V464.49C290.76 465.07 290.64 465.67 290.53 466.28C290.42 466.89 290.29 467.59 290.18 468.28C290.1 468.713 290.03 469.143 289.97 469.57C289.83 470.4 289.71 471.24 289.59 472.08C289.52 472.57 289.45 473.08 289.39 473.53L289.15 475.39C289.66 476.92 290.23 478.39 290.82 479.93C291.195 480.739 291.416 481.61 291.47 482.5C303.772 485.78 316.718 485.78 329.02 482.5C329.016 482.47 329.016 482.44 329.02 482.41C328.836 481.573 328.755 480.717 328.78 479.86C328.982 477.457 329.316 475.067 329.78 472.7C329.928 471.533 329.991 470.356 329.97 469.18V468.76C329.94 468.38 329.93 468.04 329.92 467.71V467.7ZM329.92 467.7C329.92 467.33 329.92 466.95 329.85 466.58C329.78 466.21 329.79 465.88 329.74 465.52C329.69 465.16 329.65 464.81 329.6 464.45C329.55 464.09 329.48 463.74 329.41 463.38C329.34 463.02 329.27 462.67 329.19 462.31C329.19 462.19 329.14 462.08 329.11 461.95C329 461.48 328.88 461.01 328.75 460.54C328.62 460.07 328.54 459.78 328.42 459.41C328.42 459.24 328.32 459.07 328.26 458.91C328.2 458.75 328.09 458.37 328 458.1L327.82 457.58C327.74 457.35 327.66 457.11 327.57 456.88C327.42 456.46 327.26 456.05 327.1 455.63C326.94 455.21 326.77 454.8 326.6 454.39C326.26 453.55 325.89 452.72 325.52 451.88C324.07 448.64 322.44 445.45 320.94 442.29C320.136 440.637 319.421 438.941 318.8 437.21L318.61 437.46C318.307 437.889 318.036 438.341 317.8 438.81C317.8 446.17 309.92 455.18 309.92 455.18L301.99 444.38L295.05 454.38C294.05 454.88 293.05 456.58 292.27 459C292.05 459.65 291.84 460.37 291.64 461.12C291.5 461.63 291.37 462.12 291.25 462.69C291.18 462.96 291.12 463.23 291.06 463.51L290.88 464.36V464.49C290.76 465.07 290.64 465.67 290.53 466.28C290.42 466.89 290.29 467.59 290.18 468.28C290.1 468.713 290.03 469.143 289.97 469.57C289.83 470.4 289.71 471.24 289.59 472.08C289.52 472.57 289.45 473.08 289.39 473.53L289.15 475.39C289.66 476.92 290.23 478.39 290.82 479.93C291.195 480.739 291.416 481.61 291.47 482.5C303.772 485.78 316.718 485.78 329.02 482.5C329.016 482.47 329.016 482.44 329.02 482.41C328.836 481.573 328.755 480.717 328.78 479.86C328.982 477.457 329.316 475.067 329.78 472.7C329.928 471.533 329.991 470.356 329.97 469.18V468.76C329.94 468.38 329.93 468.04 329.92 467.71V467.7Z" fill="url(#paint1_linear)"/>
<path opacity="0.5" d="M330.28 397.95H284.28V428.95H330.28V397.95Z" fill="#493545"/>
<path opacity="0.5" d="M337.92 432.14L318.67 459.26L298.55 457.51C298.55 457.51 272.3 459.25 289.8 439.14C298.21 429.47 300.96 421.41 301.55 415.66C302.19 409.44 300.3 405.9 300.3 405.9L322.17 403.28C321.183 406.227 321.058 409.394 321.81 412.41C324.55 423.77 337.92 432.14 337.92 432.14Z" fill="#C77485"/>
<path opacity="0.1" d="M321.8 412.38C318.948 414.54 315.609 415.967 312.076 416.535C308.544 417.103 304.926 416.796 301.54 415.64C302.18 409.42 300.29 405.88 300.29 405.88L322.16 403.26C321.175 406.204 321.05 409.368 321.8 412.38Z" fill="black"/>
<path opacity="0.5" d="M308.61 415.94C320.688 415.94 330.48 406.149 330.48 394.07C330.48 381.992 320.688 372.2 308.61 372.2C296.532 372.2 286.74 381.992 286.74 394.07C286.74 406.149 296.532 415.94 308.61 415.94Z" fill="#C77485"/>
<path opacity="0.1" d="M337.12 433.26L336.61 431.26L336.17 429.5L335.52 426.9L335.4 426.42L335.3 426.02C335.3 426.02 335.82 424.45 332.39 424.96L331.75 425.07C331.21 425.18 330.58 425.33 329.86 425.53L329.21 425.73L328.35 426C325.627 426.887 323.144 428.385 321.09 430.38C320.168 431.262 319.352 432.249 318.66 433.32C318.59 433.42 318.54 433.51 318.48 433.59C318.243 433.962 318.033 434.349 317.85 434.75C317.85 442.63 309.97 452.25 309.97 452.25L302.28 441.14L302.13 440.92L300.3 438.26L299.65 437.4L299.43 437.1L295.43 431.73L294.43 430.39L294.1 429.94L293.61 429.29L292.46 427.76L287.96 430.39L281.96 433.89L278.46 456.64V457.27L278.57 459.15L279.3 471.51V471.68L278.02 476.8L278.21 476.9C281.23 478.529 284.373 479.92 287.61 481.06L288.46 481.36C289.46 481.69 290.4 481.99 291.38 482.28C291.416 482.428 291.443 482.578 291.46 482.73C291.46 482.59 291.46 482.44 291.46 482.3C303.731 485.807 316.739 485.807 329.01 482.3L329.24 482.23C329.81 482.07 330.39 481.9 330.95 481.71L331.86 481.42C334.328 480.595 336.745 479.626 339.1 478.52L339.94 460.62L340.54 447.71V446.97L337.12 433.26Z" fill="black"/>
<path opacity="0.5" d="M329.92 466.51C329.92 466.11 329.92 465.71 329.85 465.31C329.78 464.91 329.79 464.56 329.74 464.18C329.69 463.8 329.65 463.42 329.6 463.04C329.55 462.66 329.48 462.28 329.41 461.9C329.34 461.52 329.27 461.14 329.19 460.76C329.19 460.63 329.14 460.51 329.11 460.38C329 459.88 328.88 459.38 328.75 458.87C328.62 458.36 328.54 458.06 328.42 457.66C328.42 457.48 328.32 457.3 328.26 457.13C328.2 456.96 328.09 456.55 328 456.26L327.82 455.7C327.74 455.45 327.66 455.2 327.57 454.95C327.42 454.5 327.26 454.06 327.1 453.61C326.94 453.16 326.77 452.72 326.6 452.28C326.26 451.38 325.89 450.49 325.52 449.6C324.07 446.14 322.44 442.73 320.94 439.35C320.134 437.578 319.42 435.766 318.8 433.92L318.61 434.19C318.306 434.65 318.035 435.131 317.8 435.63C317.8 443.5 309.92 453.13 309.92 453.13L301.99 441.58L295.05 452.25C294.05 452.78 293.05 454.6 292.27 457.19C292.05 457.89 291.84 458.65 291.64 459.46C291.5 460 291.37 460.57 291.25 461.14C291.18 461.43 291.12 461.72 291.06 462.02L290.88 462.93V463.07C290.76 463.69 290.64 464.33 290.53 464.98C290.42 465.63 290.29 466.38 290.18 467.09C290.1 467.55 290.03 468.01 289.97 468.47C289.83 469.36 289.71 470.26 289.59 471.15C289.52 471.67 289.45 472.15 289.39 472.7L289.15 474.7C289.66 476.34 290.23 477.96 290.82 479.55C291.197 480.421 291.417 481.352 291.47 482.3C303.741 485.807 316.749 485.807 329.02 482.3C329.016 482.267 329.016 482.233 329.02 482.2C328.835 481.302 328.755 480.386 328.78 479.47C328.982 476.904 329.316 474.351 329.78 471.82C329.928 470.572 329.991 469.316 329.97 468.06V467.61C329.94 467.23 329.93 466.87 329.92 466.51ZM329.92 466.51C329.92 466.11 329.92 465.71 329.85 465.31C329.78 464.91 329.79 464.56 329.74 464.18C329.69 463.8 329.65 463.42 329.6 463.04C329.55 462.66 329.48 462.28 329.41 461.9C329.34 461.52 329.27 461.14 329.19 460.76C329.19 460.63 329.14 460.51 329.11 460.38C329 459.88 328.88 459.38 328.75 458.87C328.62 458.36 328.54 458.06 328.42 457.66C328.42 457.48 328.32 457.3 328.26 457.13C328.2 456.96 328.09 456.55 328 456.26L327.82 455.7C327.74 455.45 327.66 455.2 327.57 454.95C327.42 454.5 327.26 454.06 327.1 453.61C326.94 453.16 326.77 452.72 326.6 452.28C326.26 451.38 325.89 450.49 325.52 449.6C324.07 446.14 322.44 442.73 320.94 439.35C320.134 437.578 319.42 435.766 318.8 433.92L318.61 434.19C318.306 434.65 318.035 435.131 317.8 435.63C317.8 443.5 309.92 453.13 309.92 453.13L301.99 441.58L295.05 452.25C294.05 452.78 293.05 454.6 292.27 457.19C292.05 457.89 291.84 458.65 291.64 459.46C291.5 460 291.37 460.57 291.25 461.14C291.18 461.43 291.12 461.72 291.06 462.02L290.88 462.93V463.07C290.76 463.69 290.64 464.33 290.53 464.98C290.42 465.63 290.29 466.38 290.18 467.09C290.1 467.55 290.03 468.01 289.97 468.47C289.83 469.36 289.71 470.26 289.59 471.15C289.52 471.67 289.45 472.15 289.39 472.7L289.15 474.7C289.66 476.34 290.23 477.96 290.82 479.55C291.197 480.421 291.417 481.352 291.47 482.3C303.741 485.807 316.749 485.807 329.02 482.3C329.016 482.267 329.016 482.233 329.02 482.2C328.835 481.302 328.755 480.386 328.78 479.47C328.982 476.904 329.316 474.351 329.78 471.82C329.928 470.572 329.991 469.316 329.97 468.06V467.61C329.94 467.23 329.93 466.87 329.92 466.51ZM329.92 466.51C329.92 466.11 329.92 465.71 329.85 465.31C329.78 464.91 329.79 464.56 329.74 464.18C329.69 463.8 329.65 463.42 329.6 463.04C329.55 462.66 329.48 462.28 329.41 461.9C329.34 461.52 329.27 461.14 329.19 460.76C329.19 460.63 329.14 460.51 329.11 460.38C329 459.88 328.88 459.38 328.75 458.87C328.62 458.36 328.54 458.06 328.42 457.66C328.42 457.48 328.32 457.3 328.26 457.13C328.2 456.96 328.09 456.55 328 456.26L327.82 455.7C327.74 455.45 327.66 455.2 327.57 454.95C327.42 454.5 327.26 454.06 327.1 453.61C326.94 453.16 326.77 452.72 326.6 452.28C326.26 451.38 325.89 450.49 325.52 449.6C324.07 446.14 322.44 442.73 320.94 439.35C320.134 437.578 319.42 435.766 318.8 433.92L318.61 434.19C318.306 434.65 318.035 435.131 317.8 435.63C317.8 443.5 309.92 453.13 309.92 453.13L301.99 441.58L295.05 452.25C294.05 452.78 293.05 454.6 292.27 457.19C292.05 457.89 291.84 458.65 291.64 459.46C291.5 460 291.37 460.57 291.25 461.14C291.18 461.43 291.12 461.72 291.06 462.02L290.88 462.93V463.07C290.76 463.69 290.64 464.33 290.53 464.98C290.42 465.63 290.29 466.38 290.18 467.09C290.1 467.55 290.03 468.01 289.97 468.47C289.83 469.36 289.71 470.26 289.59 471.15C289.52 471.67 289.45 472.15 289.39 472.7L289.15 474.7C289.66 476.34 290.23 477.96 290.82 479.55C291.197 480.421 291.417 481.352 291.47 482.3C303.741 485.807 316.749 485.807 329.02 482.3C329.016 482.267 329.016 482.233 329.02 482.2C328.835 481.302 328.755 480.386 328.78 479.47C328.982 476.904 329.316 474.351 329.78 471.82C329.928 470.572 329.991 469.316 329.97 468.06V467.61C329.94 467.23 329.93 466.87 329.92 466.51ZM340.52 447.74L336.95 433.49L336.34 431.05L336.17 430.38L335.3 426.9C335.302 426.87 335.302 426.84 335.3 426.81C335.321 426.656 335.296 426.5 335.23 426.36C335.1 426.1 334.77 425.83 334 425.76C333.707 425.739 333.413 425.739 333.12 425.76C332.251 425.846 331.391 426.007 330.55 426.24C330.14 426.35 329.7 426.47 329.23 426.62L328.37 426.89H328.29C325.987 427.646 323.849 428.834 321.99 430.39C320.762 431.414 319.685 432.605 318.79 433.93L318.6 434.2C318.296 434.66 318.025 435.141 317.79 435.64C317.79 443.51 309.91 453.14 309.91 453.14L301.98 441.59L301.53 440.94L301.45 440.83L300.3 439.14L299.43 437.98L299.2 437.68L295.1 432.21L293.8 430.44V430.38L293.35 429.77L292.49 428.63L289.49 430.38L281.99 434.75L278.53 457.26V457.5L278.63 459.14L279.37 471.67V472.38L278.24 476.89C281.26 478.519 284.403 479.91 287.64 481.05L288.49 481.35C289.49 481.68 290.43 481.98 291.41 482.27C291.446 482.418 291.473 482.568 291.49 482.72C291.49 482.58 291.49 482.43 291.49 482.29C303.761 485.797 316.769 485.797 329.04 482.29L329.27 482.22C329.84 482.06 330.42 481.89 330.98 481.7L331.89 481.41C334.358 480.585 336.775 479.616 339.13 478.51L339.96 460.63L340.56 447.86L340.52 447.74ZM291.34 482.27C291.376 482.418 291.403 482.568 291.42 482.72C291.42 482.58 291.42 482.43 291.42 482.29L291.34 482.27ZM329.92 466.51C329.92 466.11 329.92 465.71 329.85 465.31C329.78 464.91 329.79 464.56 329.74 464.18C329.69 463.8 329.65 463.42 329.6 463.04C329.55 462.66 329.48 462.28 329.41 461.9C329.34 461.52 329.27 461.14 329.19 460.76C329.19 460.63 329.14 460.51 329.11 460.38C329 459.88 328.88 459.38 328.75 458.87C328.62 458.36 328.54 458.06 328.42 457.66C328.42 457.48 328.32 457.3 328.26 457.13C328.2 456.96 328.09 456.55 328 456.26L327.82 455.7C327.74 455.45 327.66 455.2 327.57 454.95C327.42 454.5 327.26 454.06 327.1 453.61C326.94 453.16 326.77 452.72 326.6 452.28C326.26 451.38 325.89 450.49 325.52 449.6C324.07 446.14 322.44 442.73 320.94 439.35C320.134 437.578 319.42 435.766 318.8 433.92L318.61 434.19C318.306 434.65 318.035 435.131 317.8 435.63C317.8 443.5 309.92 453.13 309.92 453.13L301.99 441.58L295.05 452.25C294.05 452.78 293.05 454.6 292.27 457.19C292.05 457.89 291.84 458.65 291.64 459.46C291.5 460 291.37 460.57 291.25 461.14C291.18 461.43 291.12 461.72 291.06 462.02L290.88 462.93V463.07C290.76 463.69 290.64 464.33 290.53 464.98C290.42 465.63 290.29 466.38 290.18 467.09C290.1 467.55 290.03 468.01 289.97 468.47C289.83 469.36 289.71 470.26 289.59 471.15C289.52 471.67 289.45 472.15 289.39 472.7L289.15 474.7C289.66 476.34 290.23 477.96 290.82 479.55C291.197 480.421 291.417 481.352 291.47 482.3C303.741 485.807 316.749 485.807 329.02 482.3C329.016 482.267 329.016 482.233 329.02 482.2C328.835 481.302 328.755 480.386 328.78 479.47C328.982 476.904 329.316 474.351 329.78 471.82C329.928 470.572 329.991 469.316 329.97 468.06V467.61C329.94 467.23 329.93 466.87 329.92 466.51ZM329.92 466.51C329.92 466.11 329.92 465.71 329.85 465.31C329.78 464.91 329.79 464.56 329.74 464.18C329.69 463.8 329.65 463.42 329.6 463.04C329.55 462.66 329.48 462.28 329.41 461.9C329.34 461.52 329.27 461.14 329.19 460.76C329.19 460.63 329.14 460.51 329.11 460.38C329 459.88 328.88 459.38 328.75 458.87C328.62 458.36 328.54 458.06 328.42 457.66C328.42 457.48 328.32 457.3 328.26 457.13C328.2 456.96 328.09 456.55 328 456.26L327.82 455.7C327.74 455.45 327.66 455.2 327.57 454.95C327.42 454.5 327.26 454.06 327.1 453.61C326.94 453.16 326.77 452.72 326.6 452.28C326.26 451.38 325.89 450.49 325.52 449.6C324.07 446.14 322.44 442.73 320.94 439.35C320.134 437.578 319.42 435.766 318.8 433.92L318.61 434.19C318.306 434.65 318.035 435.131 317.8 435.63C317.8 443.5 309.92 453.13 309.92 453.13L301.99 441.58L295.05 452.25C294.05 452.78 293.05 454.6 292.27 457.19C292.05 457.89 291.84 458.65 291.64 459.46C291.5 460 291.37 460.57 291.25 461.14C291.18 461.43 291.12 461.72 291.06 462.02L290.88 462.93V463.07C290.76 463.69 290.64 464.33 290.53 464.98C290.42 465.63 290.29 466.38 290.18 467.09C290.1 467.55 290.03 468.01 289.97 468.47C289.83 469.36 289.71 470.26 289.59 471.15C289.52 471.67 289.45 472.15 289.39 472.7L289.15 474.7C289.66 476.34 290.23 477.96 290.82 479.55C291.197 480.421 291.417 481.352 291.47 482.3C303.741 485.807 316.749 485.807 329.02 482.3C329.016 482.267 329.016 482.233 329.02 482.2C328.835 481.302 328.755 480.386 328.78 479.47C328.982 476.904 329.316 474.351 329.78 471.82C329.928 470.572 329.991 469.316 329.97 468.06V467.61C329.94 467.23 329.93 466.87 329.92 466.51ZM329.92 466.51C329.92 466.11 329.92 465.71 329.85 465.31C329.78 464.91 329.79 464.56 329.74 464.18C329.69 463.8 329.65 463.42 329.6 463.04C329.55 462.66 329.48 462.28 329.41 461.9C329.34 461.52 329.27 461.14 329.19 460.76C329.19 460.63 329.14 460.51 329.11 460.38C329 459.88 328.88 459.38 328.75 458.87C328.62 458.36 328.54 458.06 328.42 457.66C328.42 457.48 328.32 457.3 328.26 457.13C328.2 456.96 328.09 456.55 328 456.26L327.82 455.7C327.74 455.45 327.66 455.2 327.57 454.95C327.42 454.5 327.26 454.06 327.1 453.61C326.94 453.16 326.77 452.72 326.6 452.28C326.26 451.38 325.89 450.49 325.52 449.6C324.07 446.14 322.44 442.73 320.94 439.35C320.134 437.578 319.42 435.766 318.8 433.92L318.61 434.19C318.306 434.65 318.035 435.131 317.8 435.63C317.8 443.5 309.92 453.13 309.92 453.13L301.99 441.58L295.05 452.25C294.05 452.78 293.05 454.6 292.27 457.19C292.05 457.89 291.84 458.65 291.64 459.46C291.5 460 291.37 460.57 291.25 461.14C291.18 461.43 291.12 461.72 291.06 462.02L290.88 462.93V463.07C290.76 463.69 290.64 464.33 290.53 464.98C290.42 465.63 290.29 466.38 290.18 467.09C290.1 467.55 290.03 468.01 289.97 468.47C289.83 469.36 289.71 470.26 289.59 471.15C289.52 471.67 289.45 472.15 289.39 472.7L289.15 474.7C289.66 476.34 290.23 477.96 290.82 479.55C291.197 480.421 291.417 481.352 291.47 482.3C303.741 485.807 316.749 485.807 329.02 482.3C329.016 482.267 329.016 482.233 329.02 482.2C328.835 481.302 328.755 480.386 328.78 479.47C328.982 476.904 329.316 474.351 329.78 471.82C329.928 470.572 329.991 469.316 329.97 468.06V467.61C329.94 467.23 329.93 466.87 329.92 466.51ZM329.92 466.51C329.92 466.11 329.92 465.71 329.85 465.31C329.78 464.91 329.79 464.56 329.74 464.18C329.69 463.8 329.65 463.42 329.6 463.04C329.55 462.66 329.48 462.28 329.41 461.9C329.34 461.52 329.27 461.14 329.19 460.76C329.19 460.63 329.14 460.51 329.11 460.38C329 459.88 328.88 459.38 328.75 458.87C328.62 458.36 328.54 458.06 328.42 457.66C328.42 457.48 328.32 457.3 328.26 457.13C328.2 456.96 328.09 456.55 328 456.26L327.82 455.7C327.74 455.45 327.66 455.2 327.57 454.95C327.42 454.5 327.26 454.06 327.1 453.61C326.94 453.16 326.77 452.72 326.6 452.28C326.26 451.38 325.89 450.49 325.52 449.6C324.07 446.14 322.44 442.73 320.94 439.35C320.134 437.578 319.42 435.766 318.8 433.92L318.61 434.19C318.306 434.65 318.035 435.131 317.8 435.63C317.8 443.5 309.92 453.13 309.92 453.13L301.99 441.58L295.05 452.25C294.05 452.78 293.05 454.6 292.27 457.19C292.05 457.89 291.84 458.65 291.64 459.46C291.5 460 291.37 460.57 291.25 461.14C291.18 461.43 291.12 461.72 291.06 462.02L290.88 462.93V463.07C290.76 463.69 290.64 464.33 290.53 464.98C290.42 465.63 290.29 466.38 290.18 467.09C290.1 467.55 290.03 468.01 289.97 468.47C289.83 469.36 289.71 470.26 289.59 471.15C289.52 471.67 289.45 472.15 289.39 472.7L289.15 474.7C289.66 476.34 290.23 477.96 290.82 479.55C291.197 480.421 291.417 481.352 291.47 482.3C303.741 485.807 316.749 485.807 329.02 482.3C329.016 482.267 329.016 482.233 329.02 482.2C328.835 481.302 328.755 480.386 328.78 479.47C328.982 476.904 329.316 474.351 329.78 471.82C329.928 470.572 329.991 469.316 329.97 468.06V467.61C329.94 467.23 329.93 466.87 329.92 466.51ZM329.92 466.51C329.92 466.11 329.92 465.71 329.85 465.31C329.78 464.91 329.79 464.56 329.74 464.18C329.69 463.8 329.65 463.42 329.6 463.04C329.55 462.66 329.48 462.28 329.41 461.9C329.34 461.52 329.27 461.14 329.19 460.76C329.19 460.63 329.14 460.51 329.11 460.38C329 459.88 328.88 459.38 328.75 458.87C328.62 458.36 328.54 458.06 328.42 457.66C328.42 457.48 328.32 457.3 328.26 457.13C328.2 456.96 328.09 456.55 328 456.26L327.82 455.7C327.74 455.45 327.66 455.2 327.57 454.95C327.42 454.5 327.26 454.06 327.1 453.61C326.94 453.16 326.77 452.72 326.6 452.28C326.26 451.38 325.89 450.49 325.52 449.6C324.07 446.14 322.44 442.73 320.94 439.35C320.134 437.578 319.42 435.766 318.8 433.92L318.61 434.19C318.306 434.65 318.035 435.131 317.8 435.63C317.8 443.5 309.92 453.13 309.92 453.13L301.99 441.58L295.05 452.25C294.05 452.78 293.05 454.6 292.27 457.19C292.05 457.89 291.84 458.65 291.64 459.46C291.5 460 291.37 460.57 291.25 461.14C291.18 461.43 291.12 461.72 291.06 462.02L290.88 462.93V463.07C290.76 463.69 290.64 464.33 290.53 464.98C290.42 465.63 290.29 466.38 290.18 467.09C290.1 467.55 290.03 468.01 289.97 468.47C289.83 469.36 289.71 470.26 289.59 471.15C289.52 471.67 289.45 472.15 289.39 472.7L289.15 474.7C289.66 476.34 290.23 477.96 290.82 479.55C291.197 480.421 291.417 481.352 291.47 482.3C303.741 485.807 316.749 485.807 329.02 482.3C329.016 482.267 329.016 482.233 329.02 482.2C328.835 481.302 328.755 480.386 328.78 479.47C328.982 476.904 329.316 474.351 329.78 471.82C329.928 470.572 329.991 469.316 329.97 468.06V467.61C329.94 467.23 329.93 466.87 329.92 466.51ZM329.92 466.51C329.92 466.11 329.92 465.71 329.85 465.31C329.78 464.91 329.79 464.56 329.74 464.18C329.69 463.8 329.65 463.42 329.6 463.04C329.55 462.66 329.48 462.28 329.41 461.9C329.34 461.52 329.27 461.14 329.19 460.76C329.19 460.63 329.14 460.51 329.11 460.38C329 459.88 328.88 459.38 328.75 458.87C328.62 458.36 328.54 458.06 328.42 457.66C328.42 457.48 328.32 457.3 328.26 457.13C328.2 456.96 328.09 456.55 328 456.26L327.82 455.7C327.74 455.45 327.66 455.2 327.57 454.95C327.42 454.5 327.26 454.06 327.1 453.61C326.94 453.16 326.77 452.72 326.6 452.28C326.26 451.38 325.89 450.49 325.52 449.6C324.07 446.14 322.44 442.73 320.94 439.35C320.134 437.578 319.42 435.766 318.8 433.92L318.61 434.19C318.306 434.65 318.035 435.131 317.8 435.63C317.8 443.5 309.92 453.13 309.92 453.13L301.99 441.58L295.05 452.25C294.05 452.78 293.05 454.6 292.27 457.19C292.05 457.89 291.84 458.65 291.64 459.46C291.5 460 291.37 460.57 291.25 461.14C291.18 461.43 291.12 461.72 291.06 462.02L290.88 462.93V463.07C290.76 463.69 290.64 464.33 290.53 464.98C290.42 465.63 290.29 466.38 290.18 467.09C290.1 467.55 290.03 468.01 289.97 468.47C289.83 469.36 289.71 470.26 289.59 471.15C289.52 471.67 289.45 472.15 289.39 472.7L289.15 474.7C289.66 476.34 290.23 477.96 290.82 479.55C291.197 480.421 291.417 481.352 291.47 482.3C303.741 485.807 316.749 485.807 329.02 482.3C329.016 482.267 329.016 482.233 329.02 482.2C328.835 481.302 328.755 480.386 328.78 479.47C328.982 476.904 329.316 474.351 329.78 471.82C329.928 470.572 329.991 469.316 329.97 468.06V467.61C329.94 467.23 329.93 466.87 329.92 466.51ZM329.92 466.51C329.92 466.11 329.92 465.71 329.85 465.31C329.78 464.91 329.79 464.56 329.74 464.18C329.69 463.8 329.65 463.42 329.6 463.04C329.55 462.66 329.48 462.28 329.41 461.9C329.34 461.52 329.27 461.14 329.19 460.76C329.19 460.63 329.14 460.51 329.11 460.38C329 459.88 328.88 459.38 328.75 458.87C328.62 458.36 328.54 458.06 328.42 457.66C328.42 457.48 328.32 457.3 328.26 457.13C328.2 456.96 328.09 456.55 328 456.26L327.82 455.7C327.74 455.45 327.66 455.2 327.57 454.95C327.42 454.5 327.26 454.06 327.1 453.61C326.94 453.16 326.77 452.72 326.6 452.28C326.26 451.38 325.89 450.49 325.52 449.6C324.07 446.14 322.44 442.73 320.94 439.35C320.134 437.578 319.42 435.766 318.8 433.92L318.61 434.19C318.306 434.65 318.035 435.131 317.8 435.63C317.8 443.5 309.92 453.13 309.92 453.13L301.99 441.58L295.05 452.25C294.05 452.78 293.05 454.6 292.27 457.19C292.05 457.89 291.84 458.65 291.64 459.46C291.5 460 291.37 460.57 291.25 461.14C291.18 461.43 291.12 461.72 291.06 462.02L290.88 462.93V463.07C290.76 463.69 290.64 464.33 290.53 464.98C290.42 465.63 290.29 466.38 290.18 467.09C290.1 467.55 290.03 468.01 289.97 468.47C289.83 469.36 289.71 470.26 289.59 471.15C289.52 471.67 289.45 472.15 289.39 472.7L289.15 474.7C289.66 476.34 290.23 477.96 290.82 479.55C291.197 480.421 291.417 481.352 291.47 482.3C303.741 485.807 316.749 485.807 329.02 482.3C329.016 482.267 329.016 482.233 329.02 482.2C328.835 481.302 328.755 480.386 328.78 479.47C328.982 476.904 329.316 474.351 329.78 471.82C329.928 470.572 329.991 469.316 329.97 468.06V467.61C329.94 467.23 329.93 466.87 329.92 466.51ZM329.92 466.51C329.92 466.11 329.92 465.71 329.85 465.31C329.78 464.91 329.79 464.56 329.74 464.18C329.69 463.8 329.65 463.42 329.6 463.04C329.55 462.66 329.48 462.28 329.41 461.9C329.34 461.52 329.27 461.14 329.19 460.76C329.19 460.63 329.14 460.51 329.11 460.38C329 459.88 328.88 459.38 328.75 458.87C328.62 458.36 328.54 458.06 328.42 457.66C328.42 457.48 328.32 457.3 328.26 457.13C328.2 456.96 328.09 456.55 328 456.26L327.82 455.7C327.74 455.45 327.66 455.2 327.57 454.95C327.42 454.5 327.26 454.06 327.1 453.61C326.94 453.16 326.77 452.72 326.6 452.28C326.26 451.38 325.89 450.49 325.52 449.6C324.07 446.14 322.44 442.73 320.94 439.35C320.134 437.578 319.42 435.766 318.8 433.92L318.61 434.19C318.306 434.65 318.035 435.131 317.8 435.63C317.8 443.5 309.92 453.13 309.92 453.13L301.99 441.58L295.05 452.25C294.05 452.78 293.05 454.6 292.27 457.19C292.05 457.89 291.84 458.65 291.64 459.46C291.5 460 291.37 460.57 291.25 461.14C291.18 461.43 291.12 461.72 291.06 462.02L290.88 462.93V463.07C290.76 463.69 290.64 464.33 290.53 464.98C290.42 465.63 290.29 466.38 290.18 467.09C290.1 467.55 290.03 468.01 289.97 468.47C289.83 469.36 289.71 470.26 289.59 471.15C289.52 471.67 289.45 472.15 289.39 472.7L289.15 474.7C289.66 476.34 290.23 477.96 290.82 479.55C291.197 480.421 291.417 481.352 291.47 482.3C303.741 485.807 316.749 485.807 329.02 482.3C329.016 482.267 329.016 482.233 329.02 482.2C328.835 481.302 328.755 480.386 328.78 479.47C328.982 476.904 329.316 474.351 329.78 471.82C329.928 470.572 329.991 469.316 329.97 468.06V467.61C329.94 467.23 329.93 466.87 329.92 466.51Z" fill="white"/>
<path opacity="0.1" d="M302.13 440.91L301.46 440.82C300.448 440.683 299.446 440.483 298.46 440.22L298.09 440.12C295.65 439.43 292.98 438.19 292.38 436.01C292.201 435.308 292.222 434.571 292.44 433.88C292.776 432.69 293.231 431.538 293.8 430.44V430.38C293.875 430.226 293.959 430.075 294.05 429.93C294.875 428.317 296.123 426.959 297.66 426L296.46 426.19L286.3 427.84L270.55 430.38C270.55 430.38 267.75 429.82 263.94 440.32C263.94 440.45 263.85 440.57 263.81 440.71C262.89 443.28 261.92 446.49 260.92 450.5C260.23 453.28 259.6 456.01 259.02 458.66C258.85 459.46 258.68 460.25 258.52 461.03C260.323 463.155 262.264 465.16 264.33 467.03L264.66 467.34C268.707 471.005 273.179 474.171 277.98 476.77L278.17 476.87C281.19 478.499 284.333 479.89 287.57 481.03L288.42 481.33C288.6 479.48 288.8 477.43 289.04 475.33C289.04 475.12 289.04 474.91 289.12 474.7L289.36 472.7C289.42 472.19 289.49 471.7 289.56 471.15C289.68 470.26 289.8 469.36 289.94 468.47C290 468.01 290.07 467.55 290.15 467.09C290.26 466.38 290.38 465.67 290.5 464.98C290.62 464.29 290.73 463.69 290.85 463.07V462.93L291.03 462.02C291.09 461.72 291.15 461.43 291.22 461.14C291.34 460.57 291.47 460 291.61 459.46C291.81 458.65 292.02 457.89 292.24 457.19C293.04 454.6 293.97 452.78 295.02 452.25L301.96 441.58L302.25 441.13L302.38 440.93L302.13 440.91Z" fill="black"/>
<path opacity="0.1" d="M289.5 370.08C288.5 371.46 288.58 373.36 288.13 375.08C287.06 378.99 282.82 381.44 281.85 385.38C281.28 387.68 281.94 390.12 281.55 392.46C280.84 396.77 276.9 399.69 274.7 403.46C273.585 405.402 272.924 407.572 272.766 409.806C272.608 412.04 272.958 414.281 273.79 416.36C274.305 417.409 274.73 418.499 275.06 419.62C275.312 421.29 275.207 422.994 274.75 424.62C274 428.18 273.23 432.1 274.95 435.31C276.4 438.02 279.41 439.61 282.44 440.11C285.5 440.456 288.595 440.314 291.61 439.69C294.92 439.18 298.31 438.59 301.19 436.89L290.36 410.75C289.27 408.11 288.15 405.38 288.16 402.52C288.248 400.41 288.705 398.332 289.51 396.38C291.607 390.724 294.65 385.466 298.51 380.83C300.08 382.65 299.96 385.42 301.27 387.44C302.428 388.934 303.969 390.085 305.73 390.77C310.861 393.273 316.134 395.477 321.52 397.37C321.858 397.412 322.18 397.538 322.458 397.734C322.736 397.931 322.961 398.194 323.114 398.498C323.266 398.803 323.341 399.14 323.331 399.481C323.322 399.821 323.229 400.154 323.06 400.45L318.98 417.29C318.08 421 317.29 425.29 319.6 428.29C321.91 431.29 327.12 432.71 327.15 436.58C327.107 437.193 327.107 437.807 327.15 438.42C327.42 440.23 329.57 441.1 331.4 441.19C334.404 441.249 337.332 440.239 339.66 438.34C341.988 436.44 343.565 433.775 344.11 430.82C345.11 424.2 340.73 418.1 338.9 411.65C335.82 400.8 339.9 388.07 333.85 378.54C328.95 370.81 320.02 368.71 311.54 367.75C305.59 367.05 293.69 364.55 289.5 370.08Z" fill="black"/>
<path opacity="0.5" d="M289.5 369.08C288.5 370.46 288.58 372.36 288.13 374.08C287.06 377.99 282.82 380.44 281.85 384.38C281.28 386.68 281.94 389.12 281.55 391.46C280.84 395.77 276.9 398.69 274.7 402.46C273.585 404.402 272.924 406.572 272.766 408.806C272.608 411.04 272.958 413.281 273.79 415.36C274.305 416.409 274.73 417.499 275.06 418.62C275.312 420.29 275.207 421.994 274.75 423.62C274 427.18 273.23 431.1 274.95 434.31C276.4 437.02 279.41 438.61 282.44 439.11C285.5 439.456 288.595 439.314 291.61 438.69C294.92 438.18 298.31 437.59 301.19 435.89L290.36 409.75C289.27 407.11 288.15 404.38 288.16 401.52C288.248 399.41 288.705 397.332 289.51 395.38C291.607 389.724 294.65 384.466 298.51 379.83C300.08 381.65 299.96 384.42 301.27 386.44C302.428 387.934 303.969 389.085 305.73 389.77C310.861 392.273 316.134 394.477 321.52 396.37C321.858 396.412 322.18 396.538 322.458 396.734C322.736 396.931 322.961 397.194 323.114 397.498C323.266 397.803 323.341 398.14 323.331 398.481C323.322 398.821 323.229 399.154 323.06 399.45L318.98 416.29C318.08 420 317.29 424.29 319.6 427.29C321.91 430.29 327.12 431.71 327.15 435.58C327.107 436.193 327.107 436.807 327.15 437.42C327.42 439.23 329.57 440.1 331.4 440.19C334.404 440.249 337.332 439.239 339.66 437.34C341.988 435.44 343.565 432.775 344.11 429.82C345.11 423.2 340.73 417.1 338.9 410.65C335.82 399.8 339.9 387.07 333.85 377.54C328.95 369.81 320.02 367.71 311.54 366.75C305.59 366.05 293.69 363.55 289.5 369.08Z" fill="#493545"/>
</g>
<g opacity="0.5">
<path opacity="0.5" d="M283.35 636.93C283.44 640.28 281.16 643.14 279.35 645.93C277.54 648.72 276.2 652.53 278.06 655.32C278.67 656.24 279.59 656.95 280.14 657.91C282.07 661.26 278.86 665.11 277.69 668.79C276.34 673.04 277.91 677.79 280.75 681.24C283.59 684.69 287.51 687.02 291.47 689.07C299.796 693.507 308.733 696.688 317.99 698.51C322.83 699.4 327.99 699.8 332.53 697.86C335.68 696.415 338.253 693.953 339.836 690.871C341.419 687.788 341.921 684.262 341.26 680.86C340.11 675.6 336.26 671.37 334.26 666.4C333.793 665.424 333.567 664.351 333.6 663.27C333.77 661.38 335.22 659.9 336.35 658.37C339.184 654.204 340.341 649.122 339.59 644.14C338.8 639.158 336.893 634.419 334.01 630.28C332.98 628.564 331.62 627.069 330.01 625.88C327.83 624.41 325.13 623.99 322.53 623.62C311.67 622.1 300.42 620.44 289.47 619.88C286.01 619.7 283.47 620.38 281.76 623.62C279.15 628.45 283.22 632.08 283.35 636.93Z" fill="#444176"/>
<path opacity="0.5" d="M339.28 670.94L318.67 700.25L298.55 698.5C298.55 698.5 297.89 705.5 289.8 680.13C285.28 665.94 294.47 670.87 296.28 666.94C298.09 663.01 301.28 659.54 301.55 656.64C302.19 650.42 300.3 646.88 300.3 646.88L322.17 644.26C321.183 647.207 321.058 650.374 321.81 653.39C324.55 664.77 339.28 670.94 339.28 670.94Z" fill="#C77485"/>
<path opacity="0.5" d="M308.28 645.95C322.639 645.95 334.28 636.772 334.28 625.45C334.28 614.128 322.639 604.95 308.28 604.95C293.921 604.95 282.28 614.128 282.28 625.45C282.28 636.772 293.921 645.95 308.28 645.95Z" fill="#444176"/>
<path opacity="0.1" d="M321.8 653.38C318.948 655.54 315.609 656.967 312.076 657.535C308.544 658.103 304.926 657.796 301.54 656.64C302.18 650.42 300.29 646.88 300.29 646.88L322.16 644.26C321.175 647.204 321.05 650.368 321.8 653.38Z" fill="black"/>
<path opacity="0.5" d="M308.61 656.94C320.688 656.94 330.48 647.148 330.48 635.07C330.48 622.991 320.688 613.2 308.61 613.2C296.532 613.2 286.74 622.991 286.74 635.07C286.74 647.148 296.532 656.94 308.61 656.94Z" fill="#C77485"/>
<path opacity="0.1" d="M337.12 674.26L336.61 672.26L336.17 670.5L335.52 667.9L335.4 667.42L335.3 667.02C335.3 667.02 335.82 665.45 332.39 665.96L331.75 666.07C331.21 666.18 330.58 666.33 329.86 666.53L329.21 666.73L328.35 667C325.627 667.886 323.144 669.385 321.09 671.38C320.168 672.262 319.352 673.248 318.66 674.32C318.59 674.42 318.54 674.51 318.48 674.59C318.243 674.961 318.033 675.349 317.85 675.75C317.85 683.63 309.97 693.25 309.97 693.25L302.28 682.14L302.13 681.92L300.3 679.26L299.65 678.4L299.43 678.1L295.43 672.73L294.43 671.39L294.1 670.94L293.61 670.29L292.46 668.76L287.96 671.39L281.96 674.89L278.46 697.64V698.27L278.57 700.15L279.3 712.51V712.68L278.02 717.8L278.21 717.9C281.23 719.529 284.373 720.92 287.61 722.06L288.46 722.36C289.46 722.69 290.4 722.99 291.38 723.28C291.416 723.428 291.443 723.578 291.46 723.73C291.46 723.59 291.46 723.44 291.46 723.3C303.731 726.806 316.739 726.806 329.01 723.3L329.24 723.23C329.81 723.07 330.39 722.9 330.95 722.71L331.86 722.42C334.328 721.595 336.745 720.626 339.1 719.52L339.94 701.62L340.54 688.71V687.97L337.12 674.26Z" fill="black"/>
<path opacity="0.5" d="M329.92 707.51C329.92 707.11 329.92 706.71 329.85 706.31C329.78 705.91 329.79 705.56 329.74 705.18C329.69 704.8 329.65 704.42 329.6 704.04C329.55 703.66 329.48 703.28 329.41 702.9C329.34 702.52 329.27 702.14 329.19 701.76C329.19 701.63 329.14 701.51 329.11 701.38C329 700.88 328.88 700.38 328.75 699.87C328.62 699.36 328.54 699.06 328.42 698.66C328.42 698.48 328.32 698.3 328.26 698.13C328.2 697.96 328.09 697.55 328 697.26L327.82 696.7C327.74 696.45 327.66 696.2 327.57 695.95C327.42 695.5 327.26 695.06 327.1 694.61C326.94 694.16 326.77 693.72 326.6 693.28C326.26 692.38 325.89 691.49 325.52 690.6C324.07 687.14 322.44 683.73 320.94 680.35C320.134 678.578 319.42 676.766 318.8 674.92L318.61 675.19C318.306 675.65 318.035 676.131 317.8 676.63C317.8 684.5 309.92 694.13 309.92 694.13L301.99 682.58L295.05 693.25C294.05 693.78 293.05 695.6 292.27 698.19C292.05 698.89 291.84 699.65 291.64 700.46C291.5 701 291.37 701.57 291.25 702.14C291.18 702.43 291.12 702.72 291.06 703.02L290.88 703.93V704.07C290.76 704.69 290.64 705.33 290.53 705.98C290.42 706.63 290.29 707.38 290.18 708.09C290.1 708.55 290.03 709.01 289.97 709.47C289.83 710.36 289.71 711.26 289.59 712.15C289.52 712.67 289.45 713.15 289.39 713.7L289.15 715.7C289.66 717.34 290.23 718.96 290.82 720.55C291.197 721.421 291.417 722.352 291.47 723.3C303.741 726.807 316.749 726.807 329.02 723.3C329.016 723.267 329.016 723.233 329.02 723.2C328.835 722.302 328.755 721.386 328.78 720.47C328.982 717.905 329.316 715.351 329.78 712.82C329.928 711.572 329.991 710.316 329.97 709.06V708.61C329.94 708.23 329.93 707.87 329.92 707.51ZM329.92 707.51C329.92 707.11 329.92 706.71 329.85 706.31C329.78 705.91 329.79 705.56 329.74 705.18C329.69 704.8 329.65 704.42 329.6 704.04C329.55 703.66 329.48 703.28 329.41 702.9C329.34 702.52 329.27 702.14 329.19 701.76C329.19 701.63 329.14 701.51 329.11 701.38C329 700.88 328.88 700.38 328.75 699.87C328.62 699.36 328.54 699.06 328.42 698.66C328.42 698.48 328.32 698.3 328.26 698.13C328.2 697.96 328.09 697.55 328 697.26L327.82 696.7C327.74 696.45 327.66 696.2 327.57 695.95C327.42 695.5 327.26 695.06 327.1 694.61C326.94 694.16 326.77 693.72 326.6 693.28C326.26 692.38 325.89 691.49 325.52 690.6C324.07 687.14 322.44 683.73 320.94 680.35C320.134 678.578 319.42 676.766 318.8 674.92L318.61 675.19C318.306 675.65 318.035 676.131 317.8 676.63C317.8 684.5 309.92 694.13 309.92 694.13L301.99 682.58L295.05 693.25C294.05 693.78 293.05 695.6 292.27 698.19C292.05 698.89 291.84 699.65 291.64 700.46C291.5 701 291.37 701.57 291.25 702.14C291.18 702.43 291.12 702.72 291.06 703.02L290.88 703.93V704.07C290.76 704.69 290.64 705.33 290.53 705.98C290.42 706.63 290.29 707.38 290.18 708.09C290.1 708.55 290.03 709.01 289.97 709.47C289.83 710.36 289.71 711.26 289.59 712.15C289.52 712.67 289.45 713.15 289.39 713.7L289.15 715.7C289.66 717.34 290.23 718.96 290.82 720.55C291.197 721.421 291.417 722.352 291.47 723.3C303.741 726.807 316.749 726.807 329.02 723.3C329.016 723.267 329.016 723.233 329.02 723.2C328.835 722.302 328.755 721.386 328.78 720.47C328.982 717.905 329.316 715.351 329.78 712.82C329.928 711.572 329.991 710.316 329.97 709.06V708.61C329.94 708.23 329.93 707.87 329.92 707.51ZM329.92 707.51C329.92 707.11 329.92 706.71 329.85 706.31C329.78 705.91 329.79 705.56 329.74 705.18C329.69 704.8 329.65 704.42 329.6 704.04C329.55 703.66 329.48 703.28 329.41 702.9C329.34 702.52 329.27 702.14 329.19 701.76C329.19 701.63 329.14 701.51 329.11 701.38C329 700.88 328.88 700.38 328.75 699.87C328.62 699.36 328.54 699.06 328.42 698.66C328.42 698.48 328.32 698.3 328.26 698.13C328.2 697.96 328.09 697.55 328 697.26L327.82 696.7C327.74 696.45 327.66 696.2 327.57 695.95C327.42 695.5 327.26 695.06 327.1 694.61C326.94 694.16 326.77 693.72 326.6 693.28C326.26 692.38 325.89 691.49 325.52 690.6C324.07 687.14 322.44 683.73 320.94 680.35C320.134 678.578 319.42 676.766 318.8 674.92L318.61 675.19C318.306 675.65 318.035 676.131 317.8 676.63C317.8 684.5 309.92 694.13 309.92 694.13L301.99 682.58L295.05 693.25C294.05 693.78 293.05 695.6 292.27 698.19C292.05 698.89 291.84 699.65 291.64 700.46C291.5 701 291.37 701.57 291.25 702.14C291.18 702.43 291.12 702.72 291.06 703.02L290.88 703.93V704.07C290.76 704.69 290.64 705.33 290.53 705.98C290.42 706.63 290.29 707.38 290.18 708.09C290.1 708.55 290.03 709.01 289.97 709.47C289.83 710.36 289.71 711.26 289.59 712.15C289.52 712.67 289.45 713.15 289.39 713.7L289.15 715.7C289.66 717.34 290.23 718.96 290.82 720.55C291.197 721.421 291.417 722.352 291.47 723.3C303.741 726.807 316.749 726.807 329.02 723.3C329.016 723.267 329.016 723.233 329.02 723.2C328.835 722.302 328.755 721.386 328.78 720.47C328.982 717.905 329.316 715.351 329.78 712.82C329.928 711.572 329.991 710.316 329.97 709.06V708.61C329.94 708.23 329.93 707.87 329.92 707.51ZM340.52 688.74L336.95 674.49L336.34 672.05L336.17 671.38L335.3 667.9C335.302 667.87 335.302 667.84 335.3 667.81C335.321 667.656 335.296 667.5 335.23 667.36C335.1 667.1 334.77 666.83 334 666.76C333.707 666.739 333.413 666.739 333.12 666.76C332.251 666.846 331.391 667.007 330.55 667.24C330.14 667.35 329.7 667.47 329.23 667.62L328.37 667.89H328.29C325.987 668.646 323.849 669.834 321.99 671.39C320.762 672.414 319.685 673.605 318.79 674.93L318.6 675.2C318.296 675.66 318.025 676.141 317.79 676.64C317.79 684.51 309.91 694.14 309.91 694.14L301.98 682.59L301.53 681.94L301.45 681.83L300.3 680.14L299.43 678.98L299.2 678.68L295.1 673.21L293.8 671.44V671.38L293.35 670.77L292.49 669.63L289.49 671.38L281.99 675.75L278.53 698.26V698.5L278.63 700.14L279.37 712.67V713.38L278.24 717.89C281.26 719.519 284.403 720.91 287.64 722.05L288.49 722.35C289.49 722.68 290.43 722.98 291.41 723.27C291.446 723.418 291.473 723.568 291.49 723.72C291.49 723.58 291.49 723.43 291.49 723.29C303.761 726.797 316.769 726.797 329.04 723.29L329.27 723.22C329.84 723.06 330.42 722.89 330.98 722.7L331.89 722.41C334.358 721.585 336.775 720.616 339.13 719.51L339.96 701.63L340.56 688.86L340.52 688.74ZM291.34 723.27C291.376 723.418 291.403 723.568 291.42 723.72C291.42 723.58 291.42 723.43 291.42 723.29L291.34 723.27ZM329.92 707.51C329.92 707.11 329.92 706.71 329.85 706.31C329.78 705.91 329.79 705.56 329.74 705.18C329.69 704.8 329.65 704.42 329.6 704.04C329.55 703.66 329.48 703.28 329.41 702.9C329.34 702.52 329.27 702.14 329.19 701.76C329.19 701.63 329.14 701.51 329.11 701.38C329 700.88 328.88 700.38 328.75 699.87C328.62 699.36 328.54 699.06 328.42 698.66C328.42 698.48 328.32 698.3 328.26 698.13C328.2 697.96 328.09 697.55 328 697.26L327.82 696.7C327.74 696.45 327.66 696.2 327.57 695.95C327.42 695.5 327.26 695.06 327.1 694.61C326.94 694.16 326.77 693.72 326.6 693.28C326.26 692.38 325.89 691.49 325.52 690.6C324.07 687.14 322.44 683.73 320.94 680.35C320.134 678.578 319.42 676.766 318.8 674.92L318.61 675.19C318.306 675.65 318.035 676.131 317.8 676.63C317.8 684.5 309.92 694.13 309.92 694.13L301.99 682.58L295.05 693.25C294.05 693.78 293.05 695.6 292.27 698.19C292.05 698.89 291.84 699.65 291.64 700.46C291.5 701 291.37 701.57 291.25 702.14C291.18 702.43 291.12 702.72 291.06 703.02L290.88 703.93V704.07C290.76 704.69 290.64 705.33 290.53 705.98C290.42 706.63 290.29 707.38 290.18 708.09C290.1 708.55 290.03 709.01 289.97 709.47C289.83 710.36 289.71 711.26 289.59 712.15C289.52 712.67 289.45 713.15 289.39 713.7L289.15 715.7C289.66 717.34 290.23 718.96 290.82 720.55C291.197 721.421 291.417 722.352 291.47 723.3C303.741 726.807 316.749 726.807 329.02 723.3C329.016 723.267 329.016 723.233 329.02 723.2C328.835 722.302 328.755 721.386 328.78 720.47C328.982 717.905 329.316 715.351 329.78 712.82C329.928 711.572 329.991 710.316 329.97 709.06V708.61C329.94 708.23 329.93 707.87 329.92 707.51ZM329.92 707.51C329.92 707.11 329.92 706.71 329.85 706.31C329.78 705.91 329.79 705.56 329.74 705.18C329.69 704.8 329.65 704.42 329.6 704.04C329.55 703.66 329.48 703.28 329.41 702.9C329.34 702.52 329.27 702.14 329.19 701.76C329.19 701.63 329.14 701.51 329.11 701.38C329 700.88 328.88 700.38 328.75 699.87C328.62 699.36 328.54 699.06 328.42 698.66C328.42 698.48 328.32 698.3 328.26 698.13C328.2 697.96 328.09 697.55 328 697.26L327.82 696.7C327.74 696.45 327.66 696.2 327.57 695.95C327.42 695.5 327.26 695.06 327.1 694.61C326.94 694.16 326.77 693.72 326.6 693.28C326.26 692.38 325.89 691.49 325.52 690.6C324.07 687.14 322.44 683.73 320.94 680.35C320.134 678.578 319.42 676.766 318.8 674.92L318.61 675.19C318.306 675.65 318.035 676.131 317.8 676.63C317.8 684.5 309.92 694.13 309.92 694.13L301.99 682.58L295.05 693.25C294.05 693.78 293.05 695.6 292.27 698.19C292.05 698.89 291.84 699.65 291.64 700.46C291.5 701 291.37 701.57 291.25 702.14C291.18 702.43 291.12 702.72 291.06 703.02L290.88 703.93V704.07C290.76 704.69 290.64 705.33 290.53 705.98C290.42 706.63 290.29 707.38 290.18 708.09C290.1 708.55 290.03 709.01 289.97 709.47C289.83 710.36 289.71 711.26 289.59 712.15C289.52 712.67 289.45 713.15 289.39 713.7L289.15 715.7C289.66 717.34 290.23 718.96 290.82 720.55C291.197 721.421 291.417 722.352 291.47 723.3C303.741 726.807 316.749 726.807 329.02 723.3C329.016 723.267 329.016 723.233 329.02 723.2C328.835 722.302 328.755 721.386 328.78 720.47C328.982 717.905 329.316 715.351 329.78 712.82C329.928 711.572 329.991 710.316 329.97 709.06V708.61C329.94 708.23 329.93 707.87 329.92 707.51ZM329.92 707.51C329.92 707.11 329.92 706.71 329.85 706.31C329.78 705.91 329.79 705.56 329.74 705.18C329.69 704.8 329.65 704.42 329.6 704.04C329.55 703.66 329.48 703.28 329.41 702.9C329.34 702.52 329.27 702.14 329.19 701.76C329.19 701.63 329.14 701.51 329.11 701.38C329 700.88 328.88 700.38 328.75 699.87C328.62 699.36 328.54 699.06 328.42 698.66C328.42 698.48 328.32 698.3 328.26 698.13C328.2 697.96 328.09 697.55 328 697.26L327.82 696.7C327.74 696.45 327.66 696.2 327.57 695.95C327.42 695.5 327.26 695.06 327.1 694.61C326.94 694.16 326.77 693.72 326.6 693.28C326.26 692.38 325.89 691.49 325.52 690.6C324.07 687.14 322.44 683.73 320.94 680.35C320.134 678.578 319.42 676.766 318.8 674.92L318.61 675.19C318.306 675.65 318.035 676.131 317.8 676.63C317.8 684.5 309.92 694.13 309.92 694.13L301.99 682.58L295.05 693.25C294.05 693.78 293.05 695.6 292.27 698.19C292.05 698.89 291.84 699.65 291.64 700.46C291.5 701 291.37 701.57 291.25 702.14C291.18 702.43 291.12 702.72 291.06 703.02L290.88 703.93V704.07C290.76 704.69 290.64 705.33 290.53 705.98C290.42 706.63 290.29 707.38 290.18 708.09C290.1 708.55 290.03 709.01 289.97 709.47C289.83 710.36 289.71 711.26 289.59 712.15C289.52 712.67 289.45 713.15 289.39 713.7L289.15 715.7C289.66 717.34 290.23 718.96 290.82 720.55C291.197 721.421 291.417 722.352 291.47 723.3C303.741 726.807 316.749 726.807 329.02 723.3C329.016 723.267 329.016 723.233 329.02 723.2C328.835 722.302 328.755 721.386 328.78 720.47C328.982 717.905 329.316 715.351 329.78 712.82C329.928 711.572 329.991 710.316 329.97 709.06V708.61C329.94 708.23 329.93 707.87 329.92 707.51ZM329.92 707.51C329.92 707.11 329.92 706.71 329.85 706.31C329.78 705.91 329.79 705.56 329.74 705.18C329.69 704.8 329.65 704.42 329.6 704.04C329.55 703.66 329.48 703.28 329.41 702.9C329.34 702.52 329.27 702.14 329.19 701.76C329.19 701.63 329.14 701.51 329.11 701.38C329 700.88 328.88 700.38 328.75 699.87C328.62 699.36 328.54 699.06 328.42 698.66C328.42 698.48 328.32 698.3 328.26 698.13C328.2 697.96 328.09 697.55 328 697.26L327.82 696.7C327.74 696.45 327.66 696.2 327.57 695.95C327.42 695.5 327.26 695.06 327.1 694.61C326.94 694.16 326.77 693.72 326.6 693.28C326.26 692.38 325.89 691.49 325.52 690.6C324.07 687.14 322.44 683.73 320.94 680.35C320.134 678.578 319.42 676.766 318.8 674.92L318.61 675.19C318.306 675.65 318.035 676.131 317.8 676.63C317.8 684.5 309.92 694.13 309.92 694.13L301.99 682.58L295.05 693.25C294.05 693.78 293.05 695.6 292.27 698.19C292.05 698.89 291.84 699.65 291.64 700.46C291.5 701 291.37 701.57 291.25 702.14C291.18 702.43 291.12 702.72 291.06 703.02L290.88 703.93V704.07C290.76 704.69 290.64 705.33 290.53 705.98C290.42 706.63 290.29 707.38 290.18 708.09C290.1 708.55 290.03 709.01 289.97 709.47C289.83 710.36 289.71 711.26 289.59 712.15C289.52 712.67 289.45 713.15 289.39 713.7L289.15 715.7C289.66 717.34 290.23 718.96 290.82 720.55C291.197 721.421 291.417 722.352 291.47 723.3C303.741 726.807 316.749 726.807 329.02 723.3C329.016 723.267 329.016 723.233 329.02 723.2C328.835 722.302 328.755 721.386 328.78 720.47C328.982 717.905 329.316 715.351 329.78 712.82C329.928 711.572 329.991 710.316 329.97 709.06V708.61C329.94 708.23 329.93 707.87 329.92 707.51ZM329.92 707.51C329.92 707.11 329.92 706.71 329.85 706.31C329.78 705.91 329.79 705.56 329.74 705.18C329.69 704.8 329.65 704.42 329.6 704.04C329.55 703.66 329.48 703.28 329.41 702.9C329.34 702.52 329.27 702.14 329.19 701.76C329.19 701.63 329.14 701.51 329.11 701.38C329 700.88 328.88 700.38 328.75 699.87C328.62 699.36 328.54 699.06 328.42 698.66C328.42 698.48 328.32 698.3 328.26 698.13C328.2 697.96 328.09 697.55 328 697.26L327.82 696.7C327.74 696.45 327.66 696.2 327.57 695.95C327.42 695.5 327.26 695.06 327.1 694.61C326.94 694.16 326.77 693.72 326.6 693.28C326.26 692.38 325.89 691.49 325.52 690.6C324.07 687.14 322.44 683.73 320.94 680.35C320.134 678.578 319.42 676.766 318.8 674.92L318.61 675.19C318.306 675.65 318.035 676.131 317.8 676.63C317.8 684.5 309.92 694.13 309.92 694.13L301.99 682.58L295.05 693.25C294.05 693.78 293.05 695.6 292.27 698.19C292.05 698.89 291.84 699.65 291.64 700.46C291.5 701 291.37 701.57 291.25 702.14C291.18 702.43 291.12 702.72 291.06 703.02L290.88 703.93V704.07C290.76 704.69 290.64 705.33 290.53 705.98C290.42 706.63 290.29 707.38 290.18 708.09C290.1 708.55 290.03 709.01 289.97 709.47C289.83 710.36 289.71 711.26 289.59 712.15C289.52 712.67 289.45 713.15 289.39 713.7L289.15 715.7C289.66 717.34 290.23 718.96 290.82 720.55C291.197 721.421 291.417 722.352 291.47 723.3C303.741 726.807 316.749 726.807 329.02 723.3C329.016 723.267 329.016 723.233 329.02 723.2C328.835 722.302 328.755 721.386 328.78 720.47C328.982 717.905 329.316 715.351 329.78 712.82C329.928 711.572 329.991 710.316 329.97 709.06V708.61C329.94 708.23 329.93 707.87 329.92 707.51ZM329.92 707.51C329.92 707.11 329.92 706.71 329.85 706.31C329.78 705.91 329.79 705.56 329.74 705.18C329.69 704.8 329.65 704.42 329.6 704.04C329.55 703.66 329.48 703.28 329.41 702.9C329.34 702.52 329.27 702.14 329.19 701.76C329.19 701.63 329.14 701.51 329.11 701.38C329 700.88 328.88 700.38 328.75 699.87C328.62 699.36 328.54 699.06 328.42 698.66C328.42 698.48 328.32 698.3 328.26 698.13C328.2 697.96 328.09 697.55 328 697.26L327.82 696.7C327.74 696.45 327.66 696.2 327.57 695.95C327.42 695.5 327.26 695.06 327.1 694.61C326.94 694.16 326.77 693.72 326.6 693.28C326.26 692.38 325.89 691.49 325.52 690.6C324.07 687.14 322.44 683.73 320.94 680.35C320.134 678.578 319.42 676.766 318.8 674.92L318.61 675.19C318.306 675.65 318.035 676.131 317.8 676.63C317.8 684.5 309.92 694.13 309.92 694.13L301.99 682.58L295.05 693.25C294.05 693.78 293.05 695.6 292.27 698.19C292.05 698.89 291.84 699.65 291.64 700.46C291.5 701 291.37 701.57 291.25 702.14C291.18 702.43 291.12 702.72 291.06 703.02L290.88 703.93V704.07C290.76 704.69 290.64 705.33 290.53 705.98C290.42 706.63 290.29 707.38 290.18 708.09C290.1 708.55 290.03 709.01 289.97 709.47C289.83 710.36 289.71 711.26 289.59 712.15C289.52 712.67 289.45 713.15 289.39 713.7L289.15 715.7C289.66 717.34 290.23 718.96 290.82 720.55C291.197 721.421 291.417 722.352 291.47 723.3C303.741 726.807 316.749 726.807 329.02 723.3C329.016 723.267 329.016 723.233 329.02 723.2C328.835 722.302 328.755 721.386 328.78 720.47C328.982 717.905 329.316 715.351 329.78 712.82C329.928 711.572 329.991 710.316 329.97 709.06V708.61C329.94 708.23 329.93 707.87 329.92 707.51ZM329.92 707.51C329.92 707.11 329.92 706.71 329.85 706.31C329.78 705.91 329.79 705.56 329.74 705.18C329.69 704.8 329.65 704.42 329.6 704.04C329.55 703.66 329.48 703.28 329.41 702.9C329.34 702.52 329.27 702.14 329.19 701.76C329.19 701.63 329.14 701.51 329.11 701.38C329 700.88 328.88 700.38 328.75 699.87C328.62 699.36 328.54 699.06 328.42 698.66C328.42 698.48 328.32 698.3 328.26 698.13C328.2 697.96 328.09 697.55 328 697.26L327.82 696.7C327.74 696.45 327.66 696.2 327.57 695.95C327.42 695.5 327.26 695.06 327.1 694.61C326.94 694.16 326.77 693.72 326.6 693.28C326.26 692.38 325.89 691.49 325.52 690.6C324.07 687.14 322.44 683.73 320.94 680.35C320.134 678.578 319.42 676.766 318.8 674.92L318.61 675.19C318.306 675.65 318.035 676.131 317.8 676.63C317.8 684.5 309.92 694.13 309.92 694.13L301.99 682.58L295.05 693.25C294.05 693.78 293.05 695.6 292.27 698.19C292.05 698.89 291.84 699.65 291.64 700.46C291.5 701 291.37 701.57 291.25 702.14C291.18 702.43 291.12 702.72 291.06 703.02L290.88 703.93V704.07C290.76 704.69 290.64 705.33 290.53 705.98C290.42 706.63 290.29 707.38 290.18 708.09C290.1 708.55 290.03 709.01 289.97 709.47C289.83 710.36 289.71 711.26 289.59 712.15C289.52 712.67 289.45 713.15 289.39 713.7L289.15 715.7C289.66 717.34 290.23 718.96 290.82 720.55C291.197 721.421 291.417 722.352 291.47 723.3C303.741 726.807 316.749 726.807 329.02 723.3C329.016 723.267 329.016 723.233 329.02 723.2C328.835 722.302 328.755 721.386 328.78 720.47C328.982 717.905 329.316 715.351 329.78 712.82C329.928 711.572 329.991 710.316 329.97 709.06V708.61C329.94 708.23 329.93 707.87 329.92 707.51ZM329.92 707.51C329.92 707.11 329.92 706.71 329.85 706.31C329.78 705.91 329.79 705.56 329.74 705.18C329.69 704.8 329.65 704.42 329.6 704.04C329.55 703.66 329.48 703.28 329.41 702.9C329.34 702.52 329.27 702.14 329.19 701.76C329.19 701.63 329.14 701.51 329.11 701.38C329 700.88 328.88 700.38 328.75 699.87C328.62 699.36 328.54 699.06 328.42 698.66C328.42 698.48 328.32 698.3 328.26 698.13C328.2 697.96 328.09 697.55 328 697.26L327.82 696.7C327.74 696.45 327.66 696.2 327.57 695.95C327.42 695.5 327.26 695.06 327.1 694.61C326.94 694.16 326.77 693.72 326.6 693.28C326.26 692.38 325.89 691.49 325.52 690.6C324.07 687.14 322.44 683.73 320.94 680.35C320.134 678.578 319.42 676.766 318.8 674.92L318.61 675.19C318.306 675.65 318.035 676.131 317.8 676.63C317.8 684.5 309.92 694.13 309.92 694.13L301.99 682.58L295.05 693.25C294.05 693.78 293.05 695.6 292.27 698.19C292.05 698.89 291.84 699.65 291.64 700.46C291.5 701 291.37 701.57 291.25 702.14C291.18 702.43 291.12 702.72 291.06 703.02L290.88 703.93V704.07C290.76 704.69 290.64 705.33 290.53 705.98C290.42 706.63 290.29 707.38 290.18 708.09C290.1 708.55 290.03 709.01 289.97 709.47C289.83 710.36 289.71 711.26 289.59 712.15C289.52 712.67 289.45 713.15 289.39 713.7L289.15 715.7C289.66 717.34 290.23 718.96 290.82 720.55C291.197 721.421 291.417 722.352 291.47 723.3C303.741 726.807 316.749 726.807 329.02 723.3C329.016 723.267 329.016 723.233 329.02 723.2C328.835 722.302 328.755 721.386 328.78 720.47C328.982 717.905 329.316 715.351 329.78 712.82C329.928 711.572 329.991 710.316 329.97 709.06V708.61C329.94 708.23 329.93 707.87 329.92 707.51Z" fill="#444176"/>
<path opacity="0.1" d="M302.13 681.91L301.46 681.82C300.448 681.683 299.446 681.483 298.46 681.22L298.09 681.12C295.65 680.43 292.98 679.19 292.38 677.01C292.201 676.308 292.222 675.571 292.44 674.88C292.776 673.69 293.231 672.538 293.8 671.44V671.38C293.875 671.226 293.959 671.075 294.05 670.93C294.875 669.317 296.123 667.959 297.66 667L296.46 667.19L286.3 668.84L270.55 671.38C270.55 671.38 267.75 670.82 263.94 681.32C263.94 681.45 263.85 681.57 263.81 681.71C262.89 684.28 261.92 687.49 260.92 691.5C260.23 694.28 259.6 697.01 259.02 699.66C258.85 700.46 258.68 701.25 258.52 702.03C260.323 704.155 262.264 706.16 264.33 708.03L264.66 708.34C268.707 712.005 273.179 715.171 277.98 717.77L278.17 717.87C281.19 719.499 284.333 720.89 287.57 722.03L288.42 722.33C288.6 720.48 288.8 718.43 289.04 716.33C289.04 716.12 289.04 715.91 289.12 715.7L289.36 713.7C289.42 713.19 289.49 712.7 289.56 712.15C289.68 711.26 289.8 710.36 289.94 709.47C290 709.01 290.07 708.55 290.15 708.09C290.26 707.38 290.38 706.67 290.5 705.98C290.62 705.29 290.73 704.69 290.85 704.07V703.93L291.03 703.02C291.09 702.72 291.15 702.43 291.22 702.14C291.34 701.57 291.47 701 291.61 700.46C291.81 699.65 292.02 698.89 292.24 698.19C293.04 695.6 293.97 693.78 295.02 693.25L301.96 682.58L302.25 682.13L302.38 681.93L302.13 681.91Z" fill="black"/>
<path opacity="0.1" d="M303.8 628.67C306.92 628.14 310.06 627 313.16 627.67C315.76 628.21 317.93 629.94 320.31 631.14C322.608 632.296 325.121 632.96 327.69 633.09C328.627 633.213 329.578 633.027 330.4 632.56C331.64 631.7 331.82 629.94 331.61 628.44C331.01 624.18 328.35 620.52 325.61 617.2C324.516 615.782 323.254 614.502 321.85 613.39C318.26 610.74 313.51 610.29 309.06 610.49C303.98 610.72 298.82 611.7 294.41 614.25C291.41 615.97 284.53 621.39 286.92 625.31C289.43 629.41 299.87 629.34 303.8 628.67Z" fill="black"/>
<path opacity="0.5" d="M303.8 627.67C306.92 627.14 310.06 626 313.16 626.67C315.76 627.21 317.93 628.94 320.31 630.14C322.608 631.296 325.121 631.96 327.69 632.09C328.627 632.213 329.578 632.027 330.4 631.56C331.64 630.7 331.82 628.94 331.61 627.44C331.01 623.18 328.35 619.52 325.61 616.2C324.516 614.782 323.254 613.502 321.85 612.39C318.26 609.74 313.51 609.29 309.06 609.49C303.98 609.72 298.82 610.7 294.41 613.25C291.41 614.97 284.53 620.39 286.92 624.31C289.43 628.41 299.87 628.34 303.8 627.67Z" fill="#444176"/>
</g>
<path d="M578.41 578.7H578.56C578.78 585.4 579.73 591.46 581.56 593.14C585.92 597.14 604 589.14 602.76 584.3C602.51 583.3 602.09 581.66 601.56 579.59C606.44 578.98 610.61 577.59 612.27 574.73L615.41 584.41L615.63 585.1H615.69H615.87C617.94 604.72 622.63 645.46 626.38 650.92C631.38 658.15 637.13 689.48 637.13 689.48L647.88 753.75C647.88 753.75 652.02 790.75 654.5 794.75C655.221 795.514 656.18 796.011 657.22 796.16C655.77 800.5 653.69 805.57 651.22 808.4C646.22 814.02 639.64 825.27 633.85 824.47C628.06 823.67 626.41 835.72 637.16 837.32C643.11 838.21 652.6 837.13 659.89 835.99C659.89 839.21 662.13 842.91 667.76 843.75C678.51 845.36 700.84 840.54 700.84 840.54C700.84 840.54 719.84 832.54 720.69 826.88C721.29 822.78 718.38 806.32 716.76 797.69C719.76 792.88 716.56 751.37 716.56 751.37L710.77 671.84C710.77 671.84 714.08 627.66 710.77 619.62C708.7 614.62 707.93 591.62 707.64 575.17L711.64 575.43C711.867 575.155 712.075 574.865 712.26 574.56L713.26 574.63C713.26 574.63 718.26 569.01 714.09 560.17C711.02 553.6 711.6 523.94 712.09 509.17L712.68 502.17C712.899 501.957 713.067 501.697 713.17 501.41C720.926 500.362 728.465 498.08 735.5 494.65C737.623 493.767 739.599 492.567 741.36 491.09C745.5 487.09 743.01 462.97 734.74 426.82C726.47 390.67 719.03 393.88 719.03 393.88C719.03 393.88 699.18 392.27 690.08 380.22C680.98 368.17 674.87 368.33 674.87 368.33C674.64 366.75 674.48 365.26 674.37 363.87C674.37 363.35 674.29 362.87 674.26 362.35C677.354 359.473 679.713 355.896 681.14 351.92C683 350.92 685.29 350.59 687.07 349.33C687.524 349 687.937 348.617 688.3 348.19C690.084 346.544 691.216 344.312 691.49 341.9C691.774 339.267 691.649 336.605 691.12 334.01C690.49 330.17 689.56 326.24 687.32 323.22C685.08 320.2 681.73 318.38 678.5 316.69C669.753 312.097 660.983 307.55 652.19 303.05C650.472 302 648.555 301.319 646.56 301.05C643.04 300.85 639.88 303.26 637.04 305.55C635.907 306.442 634.822 307.393 633.79 308.4C632.913 309.178 632.112 310.039 631.4 310.97C628.08 315.42 626.67 323.8 628.13 329.36C628.59 331.12 629.58 331.63 630.8 331.61C628.99 335.209 628.048 339.182 628.05 343.21C628.07 347.621 629.198 351.955 631.332 355.815C633.466 359.676 636.536 362.937 640.26 365.3C640.26 365.86 640.26 366.41 640.31 366.94C640.351 368.992 640.284 371.045 640.11 373.09C640.11 373.09 618.11 384.98 615.64 390.6C613.17 396.22 604.06 400.24 604.06 400.24C604.06 400.24 586.69 409.08 586.69 440.41L577.59 484.59L575.94 568.94C575.94 568.94 577.08 567.94 578.94 566.52C578.88 567.08 578.83 567.66 578.78 568.25C578.532 571.474 578.449 574.708 578.53 577.94L578.41 578.7ZM689.51 797.01C689.17 798.3 688.67 800.01 688.04 802.01C687.76 800.35 687.48 798.71 687.2 797.15C687.92 797.08 688.69 797.04 689.51 797.01Z" fill="url(#paint2_linear)"/>
<path d="M659.47 786.65C659.47 786.65 656.28 800.99 651.47 806.56C646.66 812.13 640.36 823.29 634.8 822.49C629.24 821.69 627.63 833.64 637.99 835.23C648.35 836.82 669.8 832.05 669.8 832.05C669.8 832.05 688.12 824.05 688.91 818.51C689.7 812.97 684.13 784.26 684.13 784.26L659.47 786.65Z" fill="#53526B"/>
<path opacity="0.05" d="M659.47 786.65C659.47 786.65 656.28 800.99 651.47 806.56C646.66 812.13 640.36 823.29 634.8 822.49C629.24 821.69 627.63 833.64 637.99 835.23C648.35 836.82 669.8 832.05 669.8 832.05C669.8 832.05 688.12 824.05 688.91 818.51C689.7 812.97 684.13 784.26 684.13 784.26L659.47 786.65Z" fill="black"/>
<path d="M688.94 793.02C688.94 793.02 685.75 807.36 680.94 812.93C676.13 818.5 669.8 829.66 664.25 828.86C658.7 828.06 657.08 840.01 667.44 841.6C677.8 843.19 699.3 838.41 699.3 838.41C699.3 838.41 717.62 830.41 718.41 824.87C719.2 819.33 713.63 790.62 713.63 790.62L688.94 793.02Z" fill="#53526B"/>
<path d="M616.46 574.81C616.46 574.81 622.83 643.3 627.61 650.47C632.39 657.64 637.96 688.7 637.96 688.7L648.31 752.41C648.31 752.41 652.31 789.05 654.68 793.03C657.05 797.01 686.61 795.3 686.61 795.3L668.23 584.36L616.46 574.81Z" fill="#5F5D7E"/>
<path opacity="0.05" d="M616.46 574.81C616.46 574.81 622.83 643.3 627.61 650.47C632.39 657.64 637.96 688.7 637.96 688.7L648.31 752.41C648.31 752.41 652.31 789.05 654.68 793.03C657.05 797.01 686.61 795.3 686.61 795.3L668.23 584.36L616.46 574.81Z" fill="black"/>
<path d="M603.72 542.14L605.8 548.75L617.05 584.46L617.27 585.14H617.33C618.84 585.48 650.72 592.81 657.6 595.06C657.971 595.175 658.335 595.312 658.69 595.47C661.88 597.06 665.86 654.4 665.86 654.4C665.86 654.4 668.25 708.56 669.86 712.54C671.47 716.52 677.86 798.54 681.81 796.16C685.76 793.78 714.46 796.16 714.46 796.16C717.65 792.97 714.46 749.97 714.46 749.97L708.8 671.14C708.8 671.14 711.99 627.34 708.8 619.37C705.61 611.4 705.61 558.05 705.61 558.05L640.42 547.86L634.12 546.86L603.72 542.14Z" fill="#5F5D7E"/>
<path opacity="0.02" d="M605.8 548.76L617.05 584.47L617.32 585.17C618.83 585.51 650.71 592.84 657.59 595.09H658.28L640.47 547.87L639.96 546.51L634.17 546.88L605.8 548.76Z" fill="black"/>
<path opacity="0.1" d="M680.18 382.87C680.18 382.87 650.71 414.73 632.39 388.44L614.87 400.39L618.06 418.71L607.7 557.28C607.7 557.28 634.78 556.48 653.89 562.85C659.212 564.738 664.963 565.066 670.466 563.796C675.969 562.526 680.994 559.71 684.95 555.68L681.8 433.84L688.97 396.41L680.18 382.87Z" fill="black"/>
<path d="M680.18 380.48C680.18 380.48 650.71 412.34 632.39 386.05L614.87 398L618.06 416.32L607.7 554.89C607.7 554.89 634.78 554.09 653.89 560.46C659.212 562.348 664.963 562.676 670.466 561.406C675.969 560.136 680.994 557.32 684.95 553.29L681.8 431.45L688.97 394.02L680.18 380.48Z" fill="#53526B"/>
<path d="M621.35 522.36V527.38H619.75V524.04H613.9V527.38H612.29V522.37L621.35 522.36Z" fill="#E82127"/>
<path d="M619.92 520.74H613.74C613.335 520.643 612.964 520.437 612.668 520.145C612.372 519.852 612.162 519.484 612.06 519.08H621.59C621.487 519.483 621.276 519.851 620.98 520.143C620.684 520.436 620.314 520.642 619.91 520.74" fill="#E82127"/>
<path d="M675.8 519.14C675.694 519.539 675.484 519.903 675.19 520.193C674.897 520.483 674.53 520.689 674.13 520.79H671.53L671.4 520.84V527.4H669.8V520.84L669.65 520.79H667.05C666.651 520.687 666.286 520.479 665.993 520.19C665.7 519.9 665.488 519.538 665.38 519.14H675.8Z" fill="#E82127"/>
<path d="M618.85 545.34C618.85 545.34 618.85 566.05 614.07 574.81C609.29 583.57 581.42 578.81 581.42 578.81L586.99 549.34L618.85 545.34Z" fill="#D6DBE6"/>
<path d="M584.45 593.14C588.65 597.14 606.06 589.14 604.86 584.38C604.02 581.01 601.08 568.95 599.41 562.11L598.25 557.3C598.25 557.3 588.05 554.11 584.45 557.3C583.14 558.46 582.22 563.03 581.79 568.55C581.05 578.14 581.8 590.6 584.45 593.14Z" fill="#FDC2CC"/>
<path d="M622.8 394.81L650.67 416.31C650.67 416.31 692.08 413.92 681.73 394.01C677.223 385.254 674.504 375.688 673.73 365.87C673.393 362.248 673.393 358.602 673.73 354.98C673.73 354.98 635.5 319.98 640.28 359.76C640.657 362.813 640.877 365.884 640.94 368.96C641.51 398.82 622.8 394.81 622.8 394.81Z" fill="#FDC2CC"/>
<path opacity="0.1" d="M640.36 359.77C640.737 362.823 640.957 365.894 641.02 368.97C645.31 371.811 650.344 373.321 655.49 373.31C662.62 373.31 667.87 366.37 672.61 361.76C672.08 355.15 673.8 354.99 673.8 354.99C673.8 354.99 635.58 319.95 640.36 359.77Z" fill="black"/>
<path d="M655.49 371.72C670.004 371.72 681.77 359.954 681.77 345.44C681.77 330.926 670.004 319.16 655.49 319.16C640.976 319.16 629.21 330.926 629.21 345.44C629.21 359.954 640.976 371.72 655.49 371.72Z" fill="#FDC2CC"/>
<path opacity="0.1" d="M674.2 370.52C674.2 370.52 678.58 370.92 687.34 382.86C696.1 394.8 715.21 396.4 715.21 396.4C715.21 396.4 722.38 393.21 730.34 429.05C738.3 464.89 740.69 488.78 736.71 492.76C732.73 496.74 716.8 502.33 708.8 502.33C708.8 502.33 706.41 552.5 710.39 561.26C714.37 570.02 709.59 575.6 709.59 575.6L674.59 573.21C674.59 573.21 662.64 558.08 660.25 531.8C657.86 505.52 649.9 430.65 653.88 421.89C657.86 413.13 675.38 390.83 674.59 388.44C673.8 386.05 674.2 370.52 674.2 370.52Z" fill="black"/>
<path d="M674.29 370.28C674.29 370.28 680.18 370.12 688.94 382.07C697.7 394.02 716.8 395.61 716.8 395.61C716.8 395.61 723.97 392.42 731.93 428.26C739.89 464.1 742.28 487.99 738.3 491.97C734.32 495.95 718.39 501.53 710.43 501.53C710.43 501.53 708.04 551.7 712.02 560.46C716 569.22 711.22 574.8 711.22 574.8L676.22 572.41C676.22 572.41 664.27 557.28 661.88 531C659.49 504.72 651.51 429.86 655.49 421.14C659.47 412.42 676.99 390.08 676.2 387.69C675.41 385.3 674.29 370.28 674.29 370.28Z" fill="#D6DBE6"/>
<path opacity="0.1" d="M581.8 568.54C585.61 565.63 592.8 561.1 599.42 562.1L598.26 557.29C598.26 557.29 588.06 554.1 584.46 557.29C583.13 558.45 582.22 563.01 581.8 568.54Z" fill="black"/>
<path opacity="0.1" d="M640.8 375.3C640.8 375.3 620.49 388.44 618.1 394.02C615.71 399.6 606.95 403.58 606.95 403.58C606.95 403.58 590.23 412.34 590.23 443.4L581.47 487.2L621.29 542.95C621.29 542.95 626.07 487.2 628.46 473.66C630.85 460.12 634.03 434.66 634.03 434.66C634.03 434.66 645.98 419.53 644.38 415.55C642.78 411.57 640.8 375.3 640.8 375.3Z" fill="black"/>
<path d="M640.8 375.06C640.8 375.06 619.62 386.85 617.24 392.42C614.86 397.99 606.09 401.98 606.09 401.98C606.09 401.98 589.37 410.74 589.37 441.8L580.61 485.6L579.02 569.22C579.02 569.22 593.36 555.68 603.71 562.05C614.06 568.42 620.43 541.34 620.43 541.34C620.43 541.34 625.21 485.59 627.6 472.05C629.99 458.51 633.17 433.05 633.17 433.05C633.17 433.05 645.12 417.92 643.52 413.94C641.92 409.96 640.8 375.06 640.8 375.06Z" fill="#D6DBE6"/>
<path opacity="0.1" d="M632.42 313.47C633.768 311.755 635.327 310.216 637.06 308.89C639.8 306.61 642.83 304.23 646.23 304.43C648.153 304.686 650.001 305.347 651.65 306.37C660.117 310.83 668.56 315.337 676.98 319.89C680.09 321.57 683.3 323.35 685.47 326.37C687.64 329.39 688.52 333.27 689.13 337.07C689.64 339.644 689.762 342.28 689.49 344.89C689.242 347.449 688 349.808 686.03 351.46C683.76 353.11 680.65 353.12 678.75 355.28C677.65 356.53 677.17 358.28 676.39 359.8C675.61 361.32 674.26 362.8 672.72 362.53C671.18 362.26 670.25 360.63 670.03 358.98C669.932 357.308 670.029 355.63 670.32 353.98C670.62 350.98 670.24 347.8 668.5 345.57C667.3 344.05 665.58 343.13 664.42 341.57C661.64 337.81 662.91 331.57 659.86 328.04C658.974 327.117 657.86 326.446 656.63 326.095C655.4 325.743 654.099 325.724 652.86 326.04C650.39 326.56 648.13 327.9 645.86 329.04C642.793 330.587 639.581 331.826 636.27 332.74C633.49 333.5 630.27 335.32 629.32 331.62C627.87 326.19 629.22 317.88 632.42 313.47Z" fill="black"/>
<path d="M633.22 312.68C634.568 310.965 636.127 309.426 637.86 308.1C640.6 305.82 643.63 303.44 647.03 303.64C648.953 303.896 650.801 304.557 652.45 305.58C660.91 310.04 667.94 305.82 677.78 319.1C679.88 321.94 684.1 322.56 686.27 325.58C688.44 328.6 689.32 332.48 689.93 336.28C690.44 338.854 690.562 341.49 690.29 344.1C690.042 346.659 688.8 349.018 686.83 350.67C684.56 352.32 681.45 352.33 679.55 354.49C678.45 355.74 677.97 357.49 677.19 359.01C676.41 360.53 675.06 362.01 673.52 361.74C671.98 361.47 671.05 359.84 670.83 358.19C670.732 356.518 670.829 354.84 671.12 353.19C671.42 350.19 671.04 347.01 669.3 344.78C668.1 343.26 666.38 342.34 665.22 340.78C662.44 337.02 663.71 330.78 660.66 327.25C659.774 326.327 658.66 325.656 657.43 325.305C656.2 324.953 654.899 324.934 653.66 325.25C651.19 325.77 648.93 327.11 646.66 328.25C643.593 329.797 640.381 331.036 637.07 331.95C634.29 332.71 631.07 334.53 630.12 330.83C628.66 325.4 630.02 317.08 633.22 312.68Z" fill="#865A61"/>
<path opacity="0.1" d="M705 434.23C705 434.23 715.62 461.31 707.65 472.46L690.13 468.46C690.13 468.46 706.06 473.24 703.67 463.68C701.28 454.12 705 434.23 705 434.23Z" fill="black"/>
<path opacity="0.1" d="M710.8 501.14C710.8 501.14 687.7 502.73 681.33 497.95C689.718 504.353 699.624 508.471 710.08 509.9L710.8 501.14Z" fill="black"/>
<path opacity="0.1" d="M611.29 450.14C611.29 450.14 599.34 486.78 600.14 492.35C600.94 497.92 602.53 559.25 602.53 559.25L604.92 558.45L604.12 491.55L611.29 450.14Z" fill="black"/>
<path d="M713.61 494.92L440.61 274.92C439.021 273.332 437.134 272.073 435.058 271.215C432.982 270.357 430.757 269.917 428.51 269.92H416.91C440.091 240.214 451.068 202.784 447.604 165.263C444.14 127.743 426.494 92.956 398.266 67.9965C370.038 43.037 333.352 29.7842 295.689 30.9405C258.027 32.0967 222.223 47.5749 195.579 74.219C168.935 100.863 153.457 136.667 152.3 174.329C151.144 211.992 164.397 248.678 189.356 276.906C214.316 305.134 249.103 322.78 286.623 326.244C324.144 329.708 361.574 318.731 391.28 295.55V307.14C391.277 309.387 391.717 311.612 392.575 313.688C393.433 315.764 394.692 317.651 396.28 319.24L669.28 539.24C670.86 540.833 672.741 542.098 674.812 542.961C676.884 543.824 679.106 544.269 681.35 544.269C683.594 544.269 685.816 543.824 687.888 542.961C689.959 542.098 691.84 540.833 693.42 539.24L713.54 519.14C716.75 515.932 718.56 511.583 718.573 507.044C718.586 502.506 716.802 498.147 713.61 494.92ZM300.14 269.92C282.114 269.92 264.493 264.575 249.505 254.56C234.517 244.546 222.836 230.311 215.938 213.658C209.039 197.004 207.235 178.679 210.751 160.999C214.268 143.32 222.948 127.08 235.694 114.334C248.44 101.588 264.68 92.9079 282.359 89.3912C300.039 85.8746 318.364 87.6795 335.018 94.5776C351.671 101.476 365.906 113.157 375.92 128.145C385.935 143.133 391.28 160.754 391.28 178.78C391.289 190.752 388.938 202.609 384.362 213.672C379.785 224.735 373.072 234.787 364.607 243.253C356.143 251.72 346.092 258.435 335.03 263.014C323.968 267.593 312.112 269.947 300.14 269.94V269.92Z" fill="url(#paint3_linear)"/>
<path d="M715.61 492.92L442.61 272.92C441.021 271.332 439.134 270.073 437.058 269.215C434.982 268.357 432.757 267.917 430.51 267.92H418.91C442.091 238.214 453.068 200.784 449.604 163.263C446.14 125.743 428.494 90.956 400.266 65.9965C372.038 41.037 335.352 27.7842 297.689 28.9405C260.027 30.0967 224.223 45.5749 197.579 72.219C170.935 98.8631 155.457 134.667 154.3 172.329C153.144 209.992 166.397 246.678 191.356 274.906C216.316 303.134 251.103 320.78 288.623 324.244C326.144 327.708 363.574 316.731 393.28 293.55V305.14C393.277 307.387 393.717 309.612 394.575 311.688C395.433 313.764 396.692 315.651 398.28 317.24L671.28 537.24C672.86 538.833 674.741 540.098 676.812 540.961C678.884 541.824 681.106 542.269 683.35 542.269C685.594 542.269 687.816 541.824 689.888 540.961C691.959 540.098 693.84 538.833 695.42 537.24L715.54 517.14C718.75 513.932 720.56 509.583 720.573 505.044C720.586 500.506 718.802 496.147 715.61 492.92ZM302.14 267.92C284.114 267.92 266.493 262.575 251.505 252.56C236.517 242.546 224.836 228.311 217.938 211.658C211.039 195.004 209.235 176.679 212.751 158.999C216.268 141.32 224.948 125.08 237.694 112.334C250.44 99.5882 266.68 90.9079 284.359 87.3912C302.039 83.8746 320.364 85.6795 337.018 92.5776C353.671 99.4758 367.906 111.157 377.92 126.145C387.935 141.133 393.28 158.754 393.28 176.78C393.289 188.752 390.938 200.609 386.362 211.672C381.785 222.735 375.072 232.787 366.607 241.253C358.143 249.72 348.092 256.435 337.03 261.014C325.968 265.593 314.112 267.947 302.14 267.94V267.92Z" fill="#6C63FF"/>
<path d="M695.31 472.86C695.31 472.86 655.46 427.16 661.06 458.52C665.06 480.82 680.17 492.77 687.34 495.16C694.51 497.55 695.31 472.86 695.31 472.86Z" fill="#FDC2CC"/>
<path d="M704.87 430.65C704.87 430.65 705.67 460.12 709.65 464.1C713.63 468.08 707.26 472.86 707.26 472.86L691.33 468.86C691.33 468.86 695.33 495.14 678.59 491.96C678.59 491.96 689.74 502.31 700.89 503.91C712.04 505.51 711.24 501.52 711.24 501.52L727.96 481.61L704.87 430.65Z" fill="#D6DBE6"/>
<path d="M709.28 501.95L725.44 498.4L723.28 490.95L713.28 486.95L700.28 492.95L709.28 501.95Z" fill="#D6DBE6"/>
<path d="M312.11 214.55L333.62 197.96C333.62 197.96 319.21 201.05 319.62 178.02C319.615 177.943 319.615 177.867 319.62 177.79C319.62 175.71 319.82 173.43 320.12 170.92C323.81 140.19 294.31 167.23 294.31 167.23C294.564 169.951 294.564 172.689 294.31 175.41C294.31 175.48 294.31 175.56 294.31 175.63C293.727 183.203 291.639 190.583 288.17 197.34C280.16 212.7 312.11 214.55 312.11 214.55Z" fill="#FDC2CC"/>
<path opacity="0.1" d="M297.06 171.14C300.71 174.69 302.94 181.14 308.43 181.14C312.402 181.149 316.288 179.983 319.6 177.79C319.6 175.71 319.8 173.43 320.1 170.92C323.79 140.19 294.29 167.23 294.29 167.23C294.29 167.23 297.45 166.14 297.06 171.14Z" fill="black"/>
<path d="M308.43 180.14C319.63 180.14 328.71 171.06 328.71 159.86C328.71 148.66 319.63 139.58 308.43 139.58C297.23 139.58 288.15 148.66 288.15 159.86C288.15 171.06 297.23 180.14 308.43 180.14Z" fill="#FDC2CC"/>
<path opacity="0.1" d="M327.88 133.89C326.717 132.42 325.373 131.103 323.88 129.97C321.54 128.02 318.94 125.97 316.03 126.15C314.383 126.369 312.802 126.935 311.39 127.81C304.14 131.63 298.13 128.02 289.7 139.38C287.9 141.81 284.29 142.38 282.43 144.93C280.57 147.48 279.82 150.83 279.29 154.09C278.852 156.295 278.747 158.554 278.98 160.79C279.202 162.985 280.28 165.004 281.98 166.41C283.92 167.82 286.59 167.83 288.22 169.68C289.04 170.885 289.711 172.184 290.22 173.55C290.88 174.85 292.04 176.08 293.36 175.89C294.68 175.7 295.47 174.27 295.66 172.89C295.743 171.462 295.659 170.029 295.41 168.62C295.16 166.09 295.48 163.33 296.97 161.42C297.97 160.11 299.47 159.33 300.46 158C302.84 154.79 301.76 149.4 304.37 146.42C305.133 145.636 306.091 145.069 307.145 144.775C308.199 144.482 309.312 144.473 310.37 144.75C312.472 145.35 314.489 146.217 316.37 147.33C318.995 148.655 321.745 149.717 324.58 150.5C326.96 151.15 329.72 152.71 330.53 149.5C331.8 144.78 330.61 137.66 327.88 133.89Z" fill="black"/>
<path d="M327.88 132.89C326.717 131.42 325.373 130.103 323.88 128.97C321.54 127.02 318.94 124.97 316.03 125.15C314.383 125.369 312.802 125.935 311.39 126.81C304.14 130.63 298.13 127.02 289.7 138.38C287.9 140.81 284.29 141.38 282.43 143.93C280.57 146.48 279.82 149.83 279.29 153.09C278.852 155.295 278.747 157.554 278.98 159.79C279.202 161.985 280.28 164.004 281.98 165.41C283.92 166.82 286.59 166.83 288.22 168.68C289.04 169.885 289.711 171.184 290.22 172.55C290.88 173.85 292.04 175.08 293.36 174.89C294.68 174.7 295.47 173.27 295.66 171.89C295.743 170.462 295.659 169.029 295.41 167.62C295.16 165.09 295.48 162.33 296.97 160.42C297.97 159.11 299.47 158.33 300.46 157C302.84 153.79 301.76 148.4 304.37 145.42C305.133 144.636 306.091 144.069 307.145 143.775C308.199 143.482 309.312 143.473 310.37 143.75C312.472 144.35 314.489 145.217 316.37 146.33C318.995 147.655 321.745 148.717 324.58 149.5C326.96 150.15 329.72 151.71 330.53 148.5C331.8 143.78 330.61 136.66 327.88 132.89Z" fill="#865A61"/>
<path opacity="0.1" d="M288.15 225.22L287.75 240.57C293.561 242.149 299.558 242.946 305.58 242.94C306.58 242.94 307.63 242.94 308.65 242.87C313.991 242.64 319.285 241.774 324.42 240.29H324.52C325.47 240.01 326.41 239.72 327.34 239.4H327.44L328.29 239.1C331.527 237.96 334.67 236.569 337.69 234.94L337.88 234.84C338.21 234.66 338.54 234.48 338.88 234.29L337.33 213.6L339.8 199.41L326.28 190.2C325.521 191.296 324.671 192.326 323.74 193.28C322.405 194.674 320.843 195.831 319.12 196.7C309.42 201.48 298.38 193.88 292.89 189.18L291.64 188.07C290.22 186.78 289.41 185.9 289.41 185.9L282.65 196.34L288.15 225.22Z" fill="black"/>
<path d="M288.15 226.22L287.75 241.57C293.561 243.149 299.558 243.946 305.58 243.94C306.58 243.94 307.63 243.94 308.65 243.87C313.991 243.64 319.285 242.774 324.42 241.29H324.52C325.47 241.01 326.41 240.72 327.34 240.4H327.44L328.29 240.1C331.527 238.96 334.67 237.569 337.69 235.94L337.88 235.84C338.21 235.66 338.54 235.48 338.88 235.29L337.33 214.6L339.8 200.41L326.28 191.2C325.521 192.296 324.671 193.326 323.74 194.28C322.405 195.674 320.843 196.831 319.12 197.7C309.42 202.48 298.38 194.88 292.89 190.18L291.64 189.07C290.22 187.78 289.41 186.9 289.41 186.9L282.65 197.34L288.15 226.22Z" fill="#53526B"/>
<path d="M325.63 227.45C325.63 227.45 326.37 233.34 327.34 240.38H327.44L328.29 240.08C331.527 238.94 334.67 237.549 337.69 235.92L337.88 235.82C338.21 235.64 338.54 235.46 338.88 235.27C343.313 232.782 347.452 229.803 351.22 226.39L351.55 226.08C353.616 224.21 355.557 222.205 357.36 220.08L357.57 219.83C354 207.44 346.57 203.54 346.57 203.54C346.57 203.54 339.81 200.46 337.96 196.16C336.11 191.86 319.78 182.77 319.78 182.77V182.84C319.78 183.61 319.52 190.66 319.13 197.75C318.88 202.36 318.57 206.99 318.21 209.93C318.132 210.885 317.958 211.83 317.69 212.75C316.42 215.78 325.63 227.45 325.63 227.45Z" fill="#555388"/>
</g>
<defs>
<linearGradient id="paint0_linear" x1="514.28" y1="794.6" x2="514.28" y2="39.29" gradientUnits="userSpaceOnUse">
<stop stop-color="#808080" stop-opacity="0.25"/>
<stop offset="0.54" stop-color="#808080" stop-opacity="0.12"/>
<stop offset="1" stop-color="#808080" stop-opacity="0.1"/>
</linearGradient>
<linearGradient id="paint1_linear" x1="37403.3" y1="61950.1" x2="37403.3" y2="47304" gradientUnits="userSpaceOnUse">
<stop stop-color="#808080" stop-opacity="0.25"/>
<stop offset="0.54" stop-color="#808080" stop-opacity="0.12"/>
<stop offset="1" stop-color="#808080" stop-opacity="0.1"/>
</linearGradient>
<linearGradient id="paint2_linear" x1="-174859" y1="471660" x2="-174859" y2="176789" gradientUnits="userSpaceOnUse">
<stop stop-color="#808080" stop-opacity="0.25"/>
<stop offset="0.54" stop-color="#808080" stop-opacity="0.12"/>
<stop offset="1" stop-color="#808080" stop-opacity="0.1"/>
</linearGradient>
<linearGradient id="paint3_linear" x1="271153" y1="291718" x2="271153" y2="28047" gradientUnits="userSpaceOnUse">
<stop stop-color="#808080" stop-opacity="0.25"/>
<stop offset="0.54" stop-color="#808080" stop-opacity="0.12"/>
<stop offset="1" stop-color="#808080" stop-opacity="0.1"/>
</linearGradient>
<clipPath id="clip0">
<rect width="1113.61" height="844.14" fill="white"/>
</clipPath>
</defs>
</svg>
